<?xml version="1.0" encoding="utf-8" standalone="no"?>
<!DOCTYPE svg PUBLIC "-//W3C//DTD SVG 1.1//EN"
  "http://www.w3.org/Graphics/SVG/1.1/DTD/svg11.dtd">
<svg xmlns:xlink="http://www.w3.org/1999/xlink" width="576pt" height="504pt" viewBox="0 0 576 504" xmlns="http://www.w3.org/2000/svg" version="1.1">
 <metadata>
  <rdf:RDF xmlns:dc="http://purl.org/dc/elements/1.1/" xmlns:cc="http://creativecommons.org/ns#" xmlns:rdf="http://www.w3.org/1999/02/22-rdf-syntax-ns#">
   <cc:Work>
    <dc:type rdf:resource="http://purl.org/dc/dcmitype/StillImage"/>
    <dc:date>2023-06-23T21:32:36.167472</dc:date>
    <dc:format>image/svg+xml</dc:format>
    <dc:creator>
     <cc:Agent>
      <dc:title>Matplotlib v3.5.1, https://matplotlib.org/</dc:title>
     </cc:Agent>
    </dc:creator>
   </cc:Work>
  </rdf:RDF>
 </metadata>
 <defs>
  <style type="text/css">*{stroke-linejoin: round; stroke-linecap: butt}</style>
 </defs>
 <g id="figure_1">
  <g id="patch_1">
   <path d="M 0 504 
L 576 504 
L 576 0 
L 0 0 
L 0 504 
z
" style="fill: none"/>
  </g>
  <g id="axes_1">
   <g id="patch_2">
    <path d="M 72 441 
L 518.4 441 
L 518.4 60.48 
L 72 60.48 
z
" style="fill: #ffffff"/>
   </g>
   <g id="PolyCollection_1">
    <defs>
     <path id="me987ded8dc" d="M 146.414923 -80.296364 
L 146.385077 -80.296364 
L 146.372864 -83.790579 
L 146.352208 -87.284793 
L 146.318412 -90.779008 
L 146.264867 -94.273223 
L 146.182626 -97.767438 
L 146.060024 -101.261653 
L 145.882402 -104.755868 
L 145.632 -108.250083 
L 145.288115 -111.744298 
L 144.827626 -115.238512 
L 144.226037 -118.732727 
L 143.459175 -122.226942 
L 142.505643 -125.721157 
L 141.349964 -129.215372 
L 139.986116 -132.709587 
L 138.42081 -136.203802 
L 136.675614 -139.698017 
L 134.786913 -143.192231 
L 132.802955 -146.686446 
L 130.777816 -150.180661 
L 128.763 -153.674876 
L 126.798239 -157.169091 
L 124.903666 -160.663306 
L 123.075528 -164.157521 
L 121.286984 -167.651736 
L 119.494442 -171.14595 
L 117.648572 -174.640165 
L 115.708057 -178.13438 
L 113.653496 -181.628595 
L 111.498794 -185.12281 
L 109.297787 -188.617025 
L 107.144568 -192.11124 
L 105.166877 -195.605455 
L 103.512952 -199.099669 
L 102.333318 -202.593884 
L 101.76 -206.088099 
L 101.886511 -209.582314 
L 102.752233 -213.076529 
L 104.334397 -216.570744 
L 106.549571 -220.064959 
L 109.264673 -223.559174 
L 112.315464 -227.053388 
L 115.52882 -230.547603 
L 118.744368 -234.041818 
L 121.831487 -237.536033 
L 124.699064 -241.030248 
L 127.297332 -244.524463 
L 129.612928 -248.018678 
L 131.659585 -251.512893 
L 133.467287 -255.007107 
L 135.072311 -258.501322 
L 136.509719 -261.995537 
L 137.808819 -265.489752 
L 138.991311 -268.983967 
L 140.071382 -272.478182 
L 141.056925 -275.972397 
L 141.95123 -279.466612 
L 142.754747 -282.960826 
L 143.466712 -286.455041 
L 144.086549 -289.949256 
L 144.614968 -293.443471 
L 145.054691 -296.937686 
L 145.410725 -300.431901 
L 145.690183 -303.926116 
L 145.90167 -307.420331 
L 146.054404 -310.914545 
L 146.157208 -314.40876 
L 146.217594 -317.902975 
L 146.241091 -321.39719 
L 146.230943 -324.891405 
L 146.188256 -328.38562 
L 146.112606 -331.879835 
L 146.00307 -335.37405 
L 145.859547 -338.868264 
L 145.684168 -342.362479 
L 145.482516 -345.856694 
L 145.26433 -349.350909 
L 145.043426 -352.845124 
L 144.836677 -356.339339 
L 144.662117 -359.833554 
L 144.536447 -363.327769 
L 144.472449 -366.821983 
L 144.476864 -370.316198 
L 144.549226 -373.810413 
L 144.681951 -377.304628 
L 144.861645 -380.798843 
L 145.071333 -384.293058 
L 145.293084 -387.787273 
L 145.510489 -391.281488 
L 145.710512 -394.775702 
L 145.884485 -398.269917 
L 146.028213 -401.764132 
L 146.141366 -405.258347 
L 146.226454 -408.752562 
L 146.287673 -412.246777 
L 146.329872 -415.740992 
L 146.357768 -419.235207 
L 146.375469 -422.729421 
L 146.386255 -426.223636 
L 146.413745 -426.223636 
L 146.413745 -426.223636 
L 146.424531 -422.729421 
L 146.442232 -419.235207 
L 146.470128 -415.740992 
L 146.512327 -412.246777 
L 146.573546 -408.752562 
L 146.658634 -405.258347 
L 146.771787 -401.764132 
L 146.915515 -398.269917 
L 147.089488 -394.775702 
L 147.289511 -391.281488 
L 147.506916 -387.787273 
L 147.728667 -384.293058 
L 147.938355 -380.798843 
L 148.118049 -377.304628 
L 148.250774 -373.810413 
L 148.323136 -370.316198 
L 148.327551 -366.821983 
L 148.263553 -363.327769 
L 148.137883 -359.833554 
L 147.963323 -356.339339 
L 147.756574 -352.845124 
L 147.53567 -349.350909 
L 147.317484 -345.856694 
L 147.115832 -342.362479 
L 146.940453 -338.868264 
L 146.79693 -335.37405 
L 146.687394 -331.879835 
L 146.611744 -328.38562 
L 146.569057 -324.891405 
L 146.558909 -321.39719 
L 146.582406 -317.902975 
L 146.642792 -314.40876 
L 146.745596 -310.914545 
L 146.89833 -307.420331 
L 147.109817 -303.926116 
L 147.389275 -300.431901 
L 147.745309 -296.937686 
L 148.185032 -293.443471 
L 148.713451 -289.949256 
L 149.333288 -286.455041 
L 150.045253 -282.960826 
L 150.84877 -279.466612 
L 151.743075 -275.972397 
L 152.728618 -272.478182 
L 153.808689 -268.983967 
L 154.991181 -265.489752 
L 156.290281 -261.995537 
L 157.727689 -258.501322 
L 159.332713 -255.007107 
L 161.140415 -251.512893 
L 163.187072 -248.018678 
L 165.502668 -244.524463 
L 168.100936 -241.030248 
L 170.968513 -237.536033 
L 174.055632 -234.041818 
L 177.27118 -230.547603 
L 180.484536 -227.053388 
L 183.535327 -223.559174 
L 186.250429 -220.064959 
L 188.465603 -216.570744 
L 190.047767 -213.076529 
L 190.913489 -209.582314 
L 191.04 -206.088099 
L 190.466682 -202.593884 
L 189.287048 -199.099669 
L 187.633123 -195.605455 
L 185.655432 -192.11124 
L 183.502213 -188.617025 
L 181.301206 -185.12281 
L 179.146504 -181.628595 
L 177.091943 -178.13438 
L 175.151428 -174.640165 
L 173.305558 -171.14595 
L 171.513016 -167.651736 
L 169.724472 -164.157521 
L 167.896334 -160.663306 
L 166.001761 -157.169091 
L 164.037 -153.674876 
L 162.022184 -150.180661 
L 159.997045 -146.686446 
L 158.013087 -143.192231 
L 156.124386 -139.698017 
L 154.37919 -136.203802 
L 152.813884 -132.709587 
L 151.450036 -129.215372 
L 150.294357 -125.721157 
L 149.340825 -122.226942 
L 148.573963 -118.732727 
L 147.972374 -115.238512 
L 147.511885 -111.744298 
L 147.168 -108.250083 
L 146.917598 -104.755868 
L 146.739976 -101.261653 
L 146.617374 -97.767438 
L 146.535133 -94.273223 
L 146.481588 -90.779008 
L 146.447792 -87.284793 
L 146.427136 -83.790579 
L 146.414923 -80.296364 
z
" style="stroke: #000000; stroke-opacity: 0.5"/>
    </defs>
    <g clip-path="url(#pa6f08e4da5)">
     <use xlink:href="#me987ded8dc" x="0" y="504" style="fill: #8bc191; fill-opacity: 0.5; stroke: #000000; stroke-opacity: 0.5"/>
    </g>
   </g>
   <g id="PolyCollection_2">
    <defs>
     <path id="m714c101738" d="M 295.221555 -89.810186 
L 295.178445 -89.810186 
L 295.16138 -92.642645 
L 295.133011 -95.475104 
L 295.087489 -98.307563 
L 295.016987 -101.140023 
L 294.911617 -103.972482 
L 294.759657 -106.804941 
L 294.54822 -109.6374 
L 294.2644 -112.469859 
L 293.896855 -115.302319 
L 293.437638 -118.134778 
L 292.883913 -120.967237 
L 292.239151 -123.799696 
L 291.513342 -126.632155 
L 290.72191 -129.464614 
L 289.883268 -132.297074 
L 289.015282 -135.129533 
L 288.131242 -137.961992 
L 287.236202 -140.794451 
L 286.324567 -143.62691 
L 285.37968 -146.45937 
L 284.37575 -149.291829 
L 283.281971 -152.124288 
L 282.068206 -154.956747 
L 280.711185 -157.789206 
L 279.200055 -160.621666 
L 277.540159 -163.454125 
L 275.754267 -166.286584 
L 273.880899 -169.119043 
L 271.969869 -171.951502 
L 270.075634 -174.783962 
L 268.249384 -177.616421 
L 266.531083 -180.44888 
L 264.942817 -183.281339 
L 263.484831 -186.113798 
L 262.135421 -188.946257 
L 260.855394 -191.778717 
L 259.597004 -194.611176 
L 258.316269 -197.443635 
L 256.986562 -200.276094 
L 255.61065 -203.108553 
L 254.228243 -205.941013 
L 252.916792 -208.773472 
L 251.784641 -211.605931 
L 250.957393 -214.43839 
L 250.56 -217.270849 
L 250.698141 -220.103309 
L 251.442559 -222.935768 
L 252.819214 -225.768227 
L 254.806588 -228.600686 
L 257.339842 -231.433145 
L 260.320105 -234.265605 
L 263.626506 -237.098064 
L 267.128551 -239.930523 
L 270.69707 -242.762982 
L 274.212795 -245.595441 
L 277.572394 -248.427901 
L 280.692276 -251.26036 
L 283.510604 -254.092819 
L 285.987872 -256.925278 
L 288.106199 -259.757737 
L 289.867406 -262.590196 
L 291.289952 -265.422656 
L 292.404938 -268.255115 
L 293.251562 -271.087574 
L 293.872526 -273.920033 
L 294.309887 -276.752492 
L 294.601792 -279.584952 
L 294.780316 -282.417411 
L 294.870477 -285.24987 
L 294.890353 -288.082329 
L 294.852079 -290.914788 
L 294.763507 -293.747248 
L 294.630221 -296.579707 
L 294.45763 -299.412166 
L 294.252819 -302.244625 
L 294.025849 -305.077084 
L 293.790258 -307.909544 
L 293.562612 -310.742003 
L 293.361112 -313.574462 
L 293.203491 -316.406921 
L 293.104592 -319.23938 
L 293.074136 -322.07184 
L 293.115187 -324.904299 
L 293.223659 -327.736758 
L 293.388997 -330.569217 
L 293.595875 -333.401676 
L 293.826529 -336.234135 
L 294.063256 -339.066595 
L 294.290573 -341.899054 
L 294.49671 -344.731513 
L 294.674269 -347.563972 
L 294.820113 -350.396431 
L 294.934657 -353.228891 
L 295.020848 -356.06135 
L 295.083078 -358.893809 
L 295.126237 -361.726268 
L 295.155018 -364.558727 
L 295.173485 -367.391187 
L 295.184891 -370.223646 
L 295.215109 -370.223646 
L 295.215109 -370.223646 
L 295.226515 -367.391187 
L 295.244982 -364.558727 
L 295.273763 -361.726268 
L 295.316922 -358.893809 
L 295.379152 -356.06135 
L 295.465343 -353.228891 
L 295.579887 -350.396431 
L 295.725731 -347.563972 
L 295.90329 -344.731513 
L 296.109427 -341.899054 
L 296.336744 -339.066595 
L 296.573471 -336.234135 
L 296.804125 -333.401676 
L 297.011003 -330.569217 
L 297.176341 -327.736758 
L 297.284813 -324.904299 
L 297.325864 -322.07184 
L 297.295408 -319.23938 
L 297.196509 -316.406921 
L 297.038888 -313.574462 
L 296.837388 -310.742003 
L 296.609742 -307.909544 
L 296.374151 -305.077084 
L 296.147181 -302.244625 
L 295.94237 -299.412166 
L 295.769779 -296.579707 
L 295.636493 -293.747248 
L 295.547921 -290.914788 
L 295.509647 -288.082329 
L 295.529523 -285.24987 
L 295.619684 -282.417411 
L 295.798208 -279.584952 
L 296.090113 -276.752492 
L 296.527474 -273.920033 
L 297.148438 -271.087574 
L 297.995062 -268.255115 
L 299.110048 -265.422656 
L 300.532594 -262.590196 
L 302.293801 -259.757737 
L 304.412128 -256.925278 
L 306.889396 -254.092819 
L 309.707724 -251.26036 
L 312.827606 -248.427901 
L 316.187205 -245.595441 
L 319.70293 -242.762982 
L 323.271449 -239.930523 
L 326.773494 -237.098064 
L 330.079895 -234.265605 
L 333.060158 -231.433145 
L 335.593412 -228.600686 
L 337.580786 -225.768227 
L 338.957441 -222.935768 
L 339.701859 -220.103309 
L 339.84 -217.270849 
L 339.442607 -214.43839 
L 338.615359 -211.605931 
L 337.483208 -208.773472 
L 336.171757 -205.941013 
L 334.78935 -203.108553 
L 333.413438 -200.276094 
L 332.083731 -197.443635 
L 330.802996 -194.611176 
L 329.544606 -191.778717 
L 328.264579 -188.946257 
L 326.915169 -186.113798 
L 325.457183 -183.281339 
L 323.868917 -180.44888 
L 322.150616 -177.616421 
L 320.324366 -174.783962 
L 318.430131 -171.951502 
L 316.519101 -169.119043 
L 314.645733 -166.286584 
L 312.859841 -163.454125 
L 311.199945 -160.621666 
L 309.688815 -157.789206 
L 308.331794 -154.956747 
L 307.118029 -152.124288 
L 306.02425 -149.291829 
L 305.02032 -146.45937 
L 304.075433 -143.62691 
L 303.163798 -140.794451 
L 302.268758 -137.961992 
L 301.384718 -135.129533 
L 300.516732 -132.297074 
L 299.67809 -129.464614 
L 298.886658 -126.632155 
L 298.160849 -123.799696 
L 297.516087 -120.967237 
L 296.962362 -118.134778 
L 296.503145 -115.302319 
L 296.1356 -112.469859 
L 295.85178 -109.6374 
L 295.640343 -106.804941 
L 295.488383 -103.972482 
L 295.383013 -101.140023 
L 295.312511 -98.307563 
L 295.266989 -95.475104 
L 295.23862 -92.642645 
L 295.221555 -89.810186 
z
" style="stroke: #000000; stroke-opacity: 0.5"/>
    </defs>
    <g clip-path="url(#pa6f08e4da5)">
     <use xlink:href="#m714c101738" x="0" y="504" style="fill: #8bc191; fill-opacity: 0.5; stroke: #000000; stroke-opacity: 0.5"/>
    </g>
   </g>
   <g id="PolyCollection_3">
    <defs>
     <path id="m143671e4e7" d="M 444.02352 -82.333937 
L 443.97648 -82.333937 
L 443.961286 -84.651846 
L 443.937738 -86.969754 
L 443.902152 -89.287663 
L 443.849731 -91.605571 
L 443.774463 -93.92348 
L 443.669151 -96.241388 
L 443.525594 -98.559297 
L 443.334988 -100.877205 
L 443.088555 -103.195114 
L 442.778408 -105.513022 
L 442.398566 -107.830931 
L 441.946048 -110.148839 
L 441.421841 -112.466748 
L 440.831599 -114.784656 
L 440.185857 -117.102565 
L 439.499631 -119.420473 
L 438.791356 -121.738382 
L 438.081202 -124.05629 
L 437.388962 -126.374199 
L 436.731798 -128.692107 
L 436.122184 -131.010016 
L 435.566388 -133.327924 
L 435.063742 -135.645833 
L 434.606806 -137.963741 
L 434.182364 -140.28165 
L 433.773015 -142.599558 
L 433.359039 -144.917467 
L 432.92016 -147.235375 
L 432.436935 -149.553284 
L 431.891592 -151.871192 
L 431.268348 -154.189101 
L 430.553378 -156.507009 
L 429.734677 -158.824918 
L 428.802103 -161.142826 
L 427.747738 -163.460735 
L 426.566626 -165.778643 
L 425.257726 -168.096552 
L 423.824834 -170.41446 
L 422.277184 -172.732369 
L 420.629471 -175.050277 
L 418.901217 -177.368186 
L 417.11553 -179.686094 
L 415.297525 -182.004003 
L 413.472731 -184.321911 
L 411.665861 -186.63982 
L 409.900181 -188.957728 
L 408.19757 -191.275637 
L 406.579157 -193.593545 
L 405.066225 -195.911454 
L 403.681013 -198.229362 
L 402.44705 -200.547271 
L 401.388789 -202.865179 
L 400.530506 -205.183088 
L 399.89465 -207.500996 
L 399.499993 -209.818905 
L 399.36 -212.136813 
L 399.481799 -214.454722 
L 399.865964 -216.77263 
L 400.507121 -219.090539 
L 401.39518 -221.408447 
L 402.516821 -223.726356 
L 403.856829 -226.044264 
L 405.398944 -228.362173 
L 407.126013 -230.680081 
L 409.01949 -232.99799 
L 411.058486 -235.315898 
L 413.218724 -237.633807 
L 415.471801 -239.951715 
L 417.785082 -242.269624 
L 420.122416 -244.587532 
L 422.44566 -246.905441 
L 424.716821 -249.223349 
L 426.900482 -251.541258 
L 428.966095 -253.859166 
L 430.889795 -256.177075 
L 432.655448 -258.494983 
L 434.254829 -260.812892 
L 435.686965 -263.1308 
L 436.956851 -265.448709 
L 438.073791 -267.766617 
L 439.049677 -270.084526 
L 439.897451 -272.402434 
L 440.629937 -274.720343 
L 441.259109 -277.038251 
L 441.795777 -279.35616 
L 442.249605 -281.674068 
L 442.629317 -283.991977 
L 442.942982 -286.309885 
L 443.198257 -288.627794 
L 443.402543 -290.945702 
L 443.563018 -293.263611 
L 443.68658 -295.581519 
L 443.779723 -297.899428 
L 443.848395 -300.217336 
L 443.897877 -302.535245 
L 443.932702 -304.853153 
L 443.956631 -307.171062 
L 443.972677 -309.48897 
L 443.983176 -311.806879 
L 444.016824 -311.806879 
L 444.016824 -311.806879 
L 444.027323 -309.48897 
L 444.043369 -307.171062 
L 444.067298 -304.853153 
L 444.102123 -302.535245 
L 444.151605 -300.217336 
L 444.220277 -297.899428 
L 444.31342 -295.581519 
L 444.436982 -293.263611 
L 444.597457 -290.945702 
L 444.801743 -288.627794 
L 445.057018 -286.309885 
L 445.370683 -283.991977 
L 445.750395 -281.674068 
L 446.204223 -279.35616 
L 446.740891 -277.038251 
L 447.370063 -274.720343 
L 448.102549 -272.402434 
L 448.950323 -270.084526 
L 449.926209 -267.766617 
L 451.043149 -265.448709 
L 452.313035 -263.1308 
L 453.745171 -260.812892 
L 455.344552 -258.494983 
L 457.110205 -256.177075 
L 459.033905 -253.859166 
L 461.099518 -251.541258 
L 463.283179 -249.223349 
L 465.55434 -246.905441 
L 467.877584 -244.587532 
L 470.214918 -242.269624 
L 472.528199 -239.951715 
L 474.781276 -237.633807 
L 476.941514 -235.315898 
L 478.98051 -232.99799 
L 480.873987 -230.680081 
L 482.601056 -228.362173 
L 484.143171 -226.044264 
L 485.483179 -223.726356 
L 486.60482 -221.408447 
L 487.492879 -219.090539 
L 488.134036 -216.77263 
L 488.518201 -214.454722 
L 488.64 -212.136813 
L 488.500007 -209.818905 
L 488.10535 -207.500996 
L 487.469494 -205.183088 
L 486.611211 -202.865179 
L 485.55295 -200.547271 
L 484.318987 -198.229362 
L 482.933775 -195.911454 
L 481.420843 -193.593545 
L 479.80243 -191.275637 
L 478.099819 -188.957728 
L 476.334139 -186.63982 
L 474.527269 -184.321911 
L 472.702475 -182.004003 
L 470.88447 -179.686094 
L 469.098783 -177.368186 
L 467.370529 -175.050277 
L 465.722816 -172.732369 
L 464.175166 -170.41446 
L 462.742274 -168.096552 
L 461.433374 -165.778643 
L 460.252262 -163.460735 
L 459.197897 -161.142826 
L 458.265323 -158.824918 
L 457.446622 -156.507009 
L 456.731652 -154.189101 
L 456.108408 -151.871192 
L 455.563065 -149.553284 
L 455.07984 -147.235375 
L 454.640961 -144.917467 
L 454.226985 -142.599558 
L 453.817636 -140.28165 
L 453.393194 -137.963741 
L 452.936258 -135.645833 
L 452.433612 -133.327924 
L 451.877816 -131.010016 
L 451.268202 -128.692107 
L 450.611038 -126.374199 
L 449.918798 -124.05629 
L 449.208644 -121.738382 
L 448.500369 -119.420473 
L 447.814143 -117.102565 
L 447.168401 -114.784656 
L 446.578159 -112.466748 
L 446.053952 -110.148839 
L 445.601434 -107.830931 
L 445.221592 -105.513022 
L 444.911445 -103.195114 
L 444.665012 -100.877205 
L 444.474406 -98.559297 
L 444.330849 -96.241388 
L 444.225537 -93.92348 
L 444.150269 -91.605571 
L 444.097848 -89.287663 
L 444.062262 -86.969754 
L 444.038714 -84.651846 
L 444.02352 -82.333937 
z
" style="stroke: #000000; stroke-opacity: 0.5"/>
    </defs>
    <g clip-path="url(#pa6f08e4da5)">
     <use xlink:href="#m143671e4e7" x="0" y="504" style="fill: #8bc191; fill-opacity: 0.5; stroke: #000000; stroke-opacity: 0.5"/>
    </g>
   </g>
   <g id="matplotlib.axis_1">
    <g id="xtick_1">
     <g id="line2d_1">
      <defs>
       <path id="m3e64675c47" d="M 0 0 
L 0 3.5 
" style="stroke: #000000; stroke-width: 0.8"/>
      </defs>
      <g>
       <use xlink:href="#m3e64675c47" x="146.4" y="441" style="stroke: #000000; stroke-width: 0.8"/>
      </g>
     </g>
     <g id="text_1">
      <!-- Před -->
      <g transform="translate(129.718359 459.397656)scale(0.15 -0.15)">
       <defs>
        <path id="DejaVuSans-50" d="M 1259 4147 
L 1259 2394 
L 2053 2394 
Q 2494 2394 2734 2622 
Q 2975 2850 2975 3272 
Q 2975 3691 2734 3919 
Q 2494 4147 2053 4147 
L 1259 4147 
z
M 628 4666 
L 2053 4666 
Q 2838 4666 3239 4311 
Q 3641 3956 3641 3272 
Q 3641 2581 3239 2228 
Q 2838 1875 2053 1875 
L 1259 1875 
L 1259 0 
L 628 0 
L 628 4666 
z
" transform="scale(0.015625)"/>
        <path id="DejaVuSans-159" d="M 2631 2963 
Q 2534 3019 2420 3045 
Q 2306 3072 2169 3072 
Q 1681 3072 1420 2755 
Q 1159 2438 1159 1844 
L 1159 0 
L 581 0 
L 581 3500 
L 1159 3500 
L 1159 2956 
Q 1341 3275 1631 3429 
Q 1922 3584 2338 3584 
Q 2397 3584 2469 3576 
Q 2541 3569 2628 3553 
L 2631 2963 
z
M 1457 3944 
L 691 5119 
L 1126 5119 
L 1688 4353 
L 2251 5119 
L 2685 5119 
L 1919 3944 
L 1457 3944 
z
" transform="scale(0.015625)"/>
        <path id="DejaVuSans-65" d="M 3597 1894 
L 3597 1613 
L 953 1613 
Q 991 1019 1311 708 
Q 1631 397 2203 397 
Q 2534 397 2845 478 
Q 3156 559 3463 722 
L 3463 178 
Q 3153 47 2828 -22 
Q 2503 -91 2169 -91 
Q 1331 -91 842 396 
Q 353 884 353 1716 
Q 353 2575 817 3079 
Q 1281 3584 2069 3584 
Q 2775 3584 3186 3129 
Q 3597 2675 3597 1894 
z
M 3022 2063 
Q 3016 2534 2758 2815 
Q 2500 3097 2075 3097 
Q 1594 3097 1305 2825 
Q 1016 2553 972 2059 
L 3022 2063 
z
" transform="scale(0.015625)"/>
        <path id="DejaVuSans-64" d="M 2906 2969 
L 2906 4863 
L 3481 4863 
L 3481 0 
L 2906 0 
L 2906 525 
Q 2725 213 2448 61 
Q 2172 -91 1784 -91 
Q 1150 -91 751 415 
Q 353 922 353 1747 
Q 353 2572 751 3078 
Q 1150 3584 1784 3584 
Q 2172 3584 2448 3432 
Q 2725 3281 2906 2969 
z
M 947 1747 
Q 947 1113 1208 752 
Q 1469 391 1925 391 
Q 2381 391 2643 752 
Q 2906 1113 2906 1747 
Q 2906 2381 2643 2742 
Q 2381 3103 1925 3103 
Q 1469 3103 1208 2742 
Q 947 2381 947 1747 
z
" transform="scale(0.015625)"/>
       </defs>
       <use xlink:href="#DejaVuSans-50"/>
       <use xlink:href="#DejaVuSans-159" x="58.552734"/>
       <use xlink:href="#DejaVuSans-65" x="97.416016"/>
       <use xlink:href="#DejaVuSans-64" x="158.939453"/>
      </g>
     </g>
    </g>
    <g id="xtick_2">
     <g id="line2d_2">
      <g>
       <use xlink:href="#m3e64675c47" x="295.2" y="441" style="stroke: #000000; stroke-width: 0.8"/>
      </g>
     </g>
     <g id="text_2">
      <!-- Po 2 týdnech -->
      <g transform="translate(246.435937 459.997656)scale(0.15 -0.15)">
       <defs>
        <path id="DejaVuSans-6f" d="M 1959 3097 
Q 1497 3097 1228 2736 
Q 959 2375 959 1747 
Q 959 1119 1226 758 
Q 1494 397 1959 397 
Q 2419 397 2687 759 
Q 2956 1122 2956 1747 
Q 2956 2369 2687 2733 
Q 2419 3097 1959 3097 
z
M 1959 3584 
Q 2709 3584 3137 3096 
Q 3566 2609 3566 1747 
Q 3566 888 3137 398 
Q 2709 -91 1959 -91 
Q 1206 -91 779 398 
Q 353 888 353 1747 
Q 353 2609 779 3096 
Q 1206 3584 1959 3584 
z
" transform="scale(0.015625)"/>
        <path id="DejaVuSans-20" transform="scale(0.015625)"/>
        <path id="DejaVuSans-32" d="M 1228 531 
L 3431 531 
L 3431 0 
L 469 0 
L 469 531 
Q 828 903 1448 1529 
Q 2069 2156 2228 2338 
Q 2531 2678 2651 2914 
Q 2772 3150 2772 3378 
Q 2772 3750 2511 3984 
Q 2250 4219 1831 4219 
Q 1534 4219 1204 4116 
Q 875 4013 500 3803 
L 500 4441 
Q 881 4594 1212 4672 
Q 1544 4750 1819 4750 
Q 2544 4750 2975 4387 
Q 3406 4025 3406 3419 
Q 3406 3131 3298 2873 
Q 3191 2616 2906 2266 
Q 2828 2175 2409 1742 
Q 1991 1309 1228 531 
z
" transform="scale(0.015625)"/>
        <path id="DejaVuSans-74" d="M 1172 4494 
L 1172 3500 
L 2356 3500 
L 2356 3053 
L 1172 3053 
L 1172 1153 
Q 1172 725 1289 603 
Q 1406 481 1766 481 
L 2356 481 
L 2356 0 
L 1766 0 
Q 1100 0 847 248 
Q 594 497 594 1153 
L 594 3053 
L 172 3053 
L 172 3500 
L 594 3500 
L 594 4494 
L 1172 4494 
z
" transform="scale(0.015625)"/>
        <path id="DejaVuSans-fd" d="M 2059 -325 
Q 1816 -950 1584 -1140 
Q 1353 -1331 966 -1331 
L 506 -1331 
L 506 -850 
L 844 -850 
Q 1081 -850 1212 -737 
Q 1344 -625 1503 -206 
L 1606 56 
L 191 3500 
L 800 3500 
L 1894 763 
L 2988 3500 
L 3597 3500 
L 2059 -325 
z
M 2330 5119 
L 2952 5119 
L 1934 3944 
L 1455 3944 
L 2330 5119 
z
" transform="scale(0.015625)"/>
        <path id="DejaVuSans-6e" d="M 3513 2113 
L 3513 0 
L 2938 0 
L 2938 2094 
Q 2938 2591 2744 2837 
Q 2550 3084 2163 3084 
Q 1697 3084 1428 2787 
Q 1159 2491 1159 1978 
L 1159 0 
L 581 0 
L 581 3500 
L 1159 3500 
L 1159 2956 
Q 1366 3272 1645 3428 
Q 1925 3584 2291 3584 
Q 2894 3584 3203 3211 
Q 3513 2838 3513 2113 
z
" transform="scale(0.015625)"/>
        <path id="DejaVuSans-63" d="M 3122 3366 
L 3122 2828 
Q 2878 2963 2633 3030 
Q 2388 3097 2138 3097 
Q 1578 3097 1268 2742 
Q 959 2388 959 1747 
Q 959 1106 1268 751 
Q 1578 397 2138 397 
Q 2388 397 2633 464 
Q 2878 531 3122 666 
L 3122 134 
Q 2881 22 2623 -34 
Q 2366 -91 2075 -91 
Q 1284 -91 818 406 
Q 353 903 353 1747 
Q 353 2603 823 3093 
Q 1294 3584 2113 3584 
Q 2378 3584 2631 3529 
Q 2884 3475 3122 3366 
z
" transform="scale(0.015625)"/>
        <path id="DejaVuSans-68" d="M 3513 2113 
L 3513 0 
L 2938 0 
L 2938 2094 
Q 2938 2591 2744 2837 
Q 2550 3084 2163 3084 
Q 1697 3084 1428 2787 
Q 1159 2491 1159 1978 
L 1159 0 
L 581 0 
L 581 4863 
L 1159 4863 
L 1159 2956 
Q 1366 3272 1645 3428 
Q 1925 3584 2291 3584 
Q 2894 3584 3203 3211 
Q 3513 2838 3513 2113 
z
" transform="scale(0.015625)"/>
       </defs>
       <use xlink:href="#DejaVuSans-50"/>
       <use xlink:href="#DejaVuSans-6f" x="56.677734"/>
       <use xlink:href="#DejaVuSans-20" x="117.859375"/>
       <use xlink:href="#DejaVuSans-32" x="149.646484"/>
       <use xlink:href="#DejaVuSans-20" x="213.269531"/>
       <use xlink:href="#DejaVuSans-74" x="245.056641"/>
       <use xlink:href="#DejaVuSans-fd" x="284.265625"/>
       <use xlink:href="#DejaVuSans-64" x="343.445312"/>
       <use xlink:href="#DejaVuSans-6e" x="406.921875"/>
       <use xlink:href="#DejaVuSans-65" x="470.300781"/>
       <use xlink:href="#DejaVuSans-63" x="531.824219"/>
       <use xlink:href="#DejaVuSans-68" x="586.804688"/>
      </g>
     </g>
    </g>
    <g id="xtick_3">
     <g id="line2d_3">
      <g>
       <use xlink:href="#m3e64675c47" x="444" y="441" style="stroke: #000000; stroke-width: 0.8"/>
      </g>
     </g>
     <g id="text_3">
      <!-- Po 8 týdnech -->
      <g transform="translate(395.235937 459.997656)scale(0.15 -0.15)">
       <defs>
        <path id="DejaVuSans-38" d="M 2034 2216 
Q 1584 2216 1326 1975 
Q 1069 1734 1069 1313 
Q 1069 891 1326 650 
Q 1584 409 2034 409 
Q 2484 409 2743 651 
Q 3003 894 3003 1313 
Q 3003 1734 2745 1975 
Q 2488 2216 2034 2216 
z
M 1403 2484 
Q 997 2584 770 2862 
Q 544 3141 544 3541 
Q 544 4100 942 4425 
Q 1341 4750 2034 4750 
Q 2731 4750 3128 4425 
Q 3525 4100 3525 3541 
Q 3525 3141 3298 2862 
Q 3072 2584 2669 2484 
Q 3125 2378 3379 2068 
Q 3634 1759 3634 1313 
Q 3634 634 3220 271 
Q 2806 -91 2034 -91 
Q 1263 -91 848 271 
Q 434 634 434 1313 
Q 434 1759 690 2068 
Q 947 2378 1403 2484 
z
M 1172 3481 
Q 1172 3119 1398 2916 
Q 1625 2713 2034 2713 
Q 2441 2713 2670 2916 
Q 2900 3119 2900 3481 
Q 2900 3844 2670 4047 
Q 2441 4250 2034 4250 
Q 1625 4250 1398 4047 
Q 1172 3844 1172 3481 
z
" transform="scale(0.015625)"/>
       </defs>
       <use xlink:href="#DejaVuSans-50"/>
       <use xlink:href="#DejaVuSans-6f" x="56.677734"/>
       <use xlink:href="#DejaVuSans-20" x="117.859375"/>
       <use xlink:href="#DejaVuSans-38" x="149.646484"/>
       <use xlink:href="#DejaVuSans-20" x="213.269531"/>
       <use xlink:href="#DejaVuSans-74" x="245.056641"/>
       <use xlink:href="#DejaVuSans-fd" x="284.265625"/>
       <use xlink:href="#DejaVuSans-64" x="343.445312"/>
       <use xlink:href="#DejaVuSans-6e" x="406.921875"/>
       <use xlink:href="#DejaVuSans-65" x="470.300781"/>
       <use xlink:href="#DejaVuSans-63" x="531.824219"/>
       <use xlink:href="#DejaVuSans-68" x="586.804688"/>
      </g>
     </g>
    </g>
   </g>
   <g id="matplotlib.axis_2">
    <g id="ytick_1">
     <g id="line2d_4">
      <defs>
       <path id="m3ae70fbabe" d="M 0 0 
L -3.5 0 
" style="stroke: #000000; stroke-width: 0.8"/>
      </defs>
      <g>
       <use xlink:href="#m3ae70fbabe" x="72" y="429.012199" style="stroke: #000000; stroke-width: 0.8"/>
      </g>
     </g>
     <g id="text_4">
      <!-- 0.1 -->
      <g transform="translate(41.145313 434.711027)scale(0.15 -0.15)">
       <defs>
        <path id="DejaVuSans-30" d="M 2034 4250 
Q 1547 4250 1301 3770 
Q 1056 3291 1056 2328 
Q 1056 1369 1301 889 
Q 1547 409 2034 409 
Q 2525 409 2770 889 
Q 3016 1369 3016 2328 
Q 3016 3291 2770 3770 
Q 2525 4250 2034 4250 
z
M 2034 4750 
Q 2819 4750 3233 4129 
Q 3647 3509 3647 2328 
Q 3647 1150 3233 529 
Q 2819 -91 2034 -91 
Q 1250 -91 836 529 
Q 422 1150 422 2328 
Q 422 3509 836 4129 
Q 1250 4750 2034 4750 
z
" transform="scale(0.015625)"/>
        <path id="DejaVuSans-2e" d="M 684 794 
L 1344 794 
L 1344 0 
L 684 0 
L 684 794 
z
" transform="scale(0.015625)"/>
        <path id="DejaVuSans-31" d="M 794 531 
L 1825 531 
L 1825 4091 
L 703 3866 
L 703 4441 
L 1819 4666 
L 2450 4666 
L 2450 531 
L 3481 531 
L 3481 0 
L 794 0 
L 794 531 
z
" transform="scale(0.015625)"/>
       </defs>
       <use xlink:href="#DejaVuSans-30"/>
       <use xlink:href="#DejaVuSans-2e" x="63.623047"/>
       <use xlink:href="#DejaVuSans-31" x="95.410156"/>
      </g>
     </g>
    </g>
    <g id="ytick_2">
     <g id="line2d_5">
      <g>
       <use xlink:href="#m3ae70fbabe" x="72" y="383.879997" style="stroke: #000000; stroke-width: 0.8"/>
      </g>
     </g>
     <g id="text_5">
      <!-- 0.2 -->
      <g transform="translate(41.145313 389.578825)scale(0.15 -0.15)">
       <use xlink:href="#DejaVuSans-30"/>
       <use xlink:href="#DejaVuSans-2e" x="63.623047"/>
       <use xlink:href="#DejaVuSans-32" x="95.410156"/>
      </g>
     </g>
    </g>
    <g id="ytick_3">
     <g id="line2d_6">
      <g>
       <use xlink:href="#m3ae70fbabe" x="72" y="338.747795" style="stroke: #000000; stroke-width: 0.8"/>
      </g>
     </g>
     <g id="text_6">
      <!-- 0.3 -->
      <g transform="translate(41.145313 344.446623)scale(0.15 -0.15)">
       <defs>
        <path id="DejaVuSans-33" d="M 2597 2516 
Q 3050 2419 3304 2112 
Q 3559 1806 3559 1356 
Q 3559 666 3084 287 
Q 2609 -91 1734 -91 
Q 1441 -91 1130 -33 
Q 819 25 488 141 
L 488 750 
Q 750 597 1062 519 
Q 1375 441 1716 441 
Q 2309 441 2620 675 
Q 2931 909 2931 1356 
Q 2931 1769 2642 2001 
Q 2353 2234 1838 2234 
L 1294 2234 
L 1294 2753 
L 1863 2753 
Q 2328 2753 2575 2939 
Q 2822 3125 2822 3475 
Q 2822 3834 2567 4026 
Q 2313 4219 1838 4219 
Q 1578 4219 1281 4162 
Q 984 4106 628 3988 
L 628 4550 
Q 988 4650 1302 4700 
Q 1616 4750 1894 4750 
Q 2613 4750 3031 4423 
Q 3450 4097 3450 3541 
Q 3450 3153 3228 2886 
Q 3006 2619 2597 2516 
z
" transform="scale(0.015625)"/>
       </defs>
       <use xlink:href="#DejaVuSans-30"/>
       <use xlink:href="#DejaVuSans-2e" x="63.623047"/>
       <use xlink:href="#DejaVuSans-33" x="95.410156"/>
      </g>
     </g>
    </g>
    <g id="ytick_4">
     <g id="line2d_7">
      <g>
       <use xlink:href="#m3ae70fbabe" x="72" y="293.615592" style="stroke: #000000; stroke-width: 0.8"/>
      </g>
     </g>
     <g id="text_7">
      <!-- 0.4 -->
      <g transform="translate(41.145313 299.31442)scale(0.15 -0.15)">
       <defs>
        <path id="DejaVuSans-34" d="M 2419 4116 
L 825 1625 
L 2419 1625 
L 2419 4116 
z
M 2253 4666 
L 3047 4666 
L 3047 1625 
L 3713 1625 
L 3713 1100 
L 3047 1100 
L 3047 0 
L 2419 0 
L 2419 1100 
L 313 1100 
L 313 1709 
L 2253 4666 
z
" transform="scale(0.015625)"/>
       </defs>
       <use xlink:href="#DejaVuSans-30"/>
       <use xlink:href="#DejaVuSans-2e" x="63.623047"/>
       <use xlink:href="#DejaVuSans-34" x="95.410156"/>
      </g>
     </g>
    </g>
    <g id="ytick_5">
     <g id="line2d_8">
      <g>
       <use xlink:href="#m3ae70fbabe" x="72" y="248.48339" style="stroke: #000000; stroke-width: 0.8"/>
      </g>
     </g>
     <g id="text_8">
      <!-- 0.5 -->
      <g transform="translate(41.145313 254.182218)scale(0.15 -0.15)">
       <defs>
        <path id="DejaVuSans-35" d="M 691 4666 
L 3169 4666 
L 3169 4134 
L 1269 4134 
L 1269 2991 
Q 1406 3038 1543 3061 
Q 1681 3084 1819 3084 
Q 2600 3084 3056 2656 
Q 3513 2228 3513 1497 
Q 3513 744 3044 326 
Q 2575 -91 1722 -91 
Q 1428 -91 1123 -41 
Q 819 9 494 109 
L 494 744 
Q 775 591 1075 516 
Q 1375 441 1709 441 
Q 2250 441 2565 725 
Q 2881 1009 2881 1497 
Q 2881 1984 2565 2268 
Q 2250 2553 1709 2553 
Q 1456 2553 1204 2497 
Q 953 2441 691 2322 
L 691 4666 
z
" transform="scale(0.015625)"/>
       </defs>
       <use xlink:href="#DejaVuSans-30"/>
       <use xlink:href="#DejaVuSans-2e" x="63.623047"/>
       <use xlink:href="#DejaVuSans-35" x="95.410156"/>
      </g>
     </g>
    </g>
    <g id="ytick_6">
     <g id="line2d_9">
      <g>
       <use xlink:href="#m3ae70fbabe" x="72" y="203.351188" style="stroke: #000000; stroke-width: 0.8"/>
      </g>
     </g>
     <g id="text_9">
      <!-- 0.6 -->
      <g transform="translate(41.145313 209.050016)scale(0.15 -0.15)">
       <defs>
        <path id="DejaVuSans-36" d="M 2113 2584 
Q 1688 2584 1439 2293 
Q 1191 2003 1191 1497 
Q 1191 994 1439 701 
Q 1688 409 2113 409 
Q 2538 409 2786 701 
Q 3034 994 3034 1497 
Q 3034 2003 2786 2293 
Q 2538 2584 2113 2584 
z
M 3366 4563 
L 3366 3988 
Q 3128 4100 2886 4159 
Q 2644 4219 2406 4219 
Q 1781 4219 1451 3797 
Q 1122 3375 1075 2522 
Q 1259 2794 1537 2939 
Q 1816 3084 2150 3084 
Q 2853 3084 3261 2657 
Q 3669 2231 3669 1497 
Q 3669 778 3244 343 
Q 2819 -91 2113 -91 
Q 1303 -91 875 529 
Q 447 1150 447 2328 
Q 447 3434 972 4092 
Q 1497 4750 2381 4750 
Q 2619 4750 2861 4703 
Q 3103 4656 3366 4563 
z
" transform="scale(0.015625)"/>
       </defs>
       <use xlink:href="#DejaVuSans-30"/>
       <use xlink:href="#DejaVuSans-2e" x="63.623047"/>
       <use xlink:href="#DejaVuSans-36" x="95.410156"/>
      </g>
     </g>
    </g>
    <g id="ytick_7">
     <g id="line2d_10">
      <g>
       <use xlink:href="#m3ae70fbabe" x="72" y="158.218985" style="stroke: #000000; stroke-width: 0.8"/>
      </g>
     </g>
     <g id="text_10">
      <!-- 0.7 -->
      <g transform="translate(41.145313 163.917813)scale(0.15 -0.15)">
       <defs>
        <path id="DejaVuSans-37" d="M 525 4666 
L 3525 4666 
L 3525 4397 
L 1831 0 
L 1172 0 
L 2766 4134 
L 525 4134 
L 525 4666 
z
" transform="scale(0.015625)"/>
       </defs>
       <use xlink:href="#DejaVuSans-30"/>
       <use xlink:href="#DejaVuSans-2e" x="63.623047"/>
       <use xlink:href="#DejaVuSans-37" x="95.410156"/>
      </g>
     </g>
    </g>
    <g id="ytick_8">
     <g id="line2d_11">
      <g>
       <use xlink:href="#m3ae70fbabe" x="72" y="113.086783" style="stroke: #000000; stroke-width: 0.8"/>
      </g>
     </g>
     <g id="text_11">
      <!-- 0.8 -->
      <g transform="translate(41.145313 118.785611)scale(0.15 -0.15)">
       <use xlink:href="#DejaVuSans-30"/>
       <use xlink:href="#DejaVuSans-2e" x="63.623047"/>
       <use xlink:href="#DejaVuSans-38" x="95.410156"/>
      </g>
     </g>
    </g>
    <g id="ytick_9">
     <g id="line2d_12">
      <g>
       <use xlink:href="#m3ae70fbabe" x="72" y="67.95458" style="stroke: #000000; stroke-width: 0.8"/>
      </g>
     </g>
     <g id="text_12">
      <!-- 0.9 -->
      <g transform="translate(41.145313 73.653409)scale(0.15 -0.15)">
       <defs>
        <path id="DejaVuSans-39" d="M 703 97 
L 703 672 
Q 941 559 1184 500 
Q 1428 441 1663 441 
Q 2288 441 2617 861 
Q 2947 1281 2994 2138 
Q 2813 1869 2534 1725 
Q 2256 1581 1919 1581 
Q 1219 1581 811 2004 
Q 403 2428 403 3163 
Q 403 3881 828 4315 
Q 1253 4750 1959 4750 
Q 2769 4750 3195 4129 
Q 3622 3509 3622 2328 
Q 3622 1225 3098 567 
Q 2575 -91 1691 -91 
Q 1453 -91 1209 -44 
Q 966 3 703 97 
z
M 1959 2075 
Q 2384 2075 2632 2365 
Q 2881 2656 2881 3163 
Q 2881 3666 2632 3958 
Q 2384 4250 1959 4250 
Q 1534 4250 1286 3958 
Q 1038 3666 1038 3163 
Q 1038 2656 1286 2365 
Q 1534 2075 1959 2075 
z
" transform="scale(0.015625)"/>
       </defs>
       <use xlink:href="#DejaVuSans-30"/>
       <use xlink:href="#DejaVuSans-2e" x="63.623047"/>
       <use xlink:href="#DejaVuSans-39" x="95.410156"/>
      </g>
     </g>
    </g>
   </g>
   <g id="line2d_13">
    <path d="M 124.08 318.438304 
L 168.72 318.438304 
L 168.72 306.23307 
L 157.56 298.128812 
L 168.72 290.024555 
L 168.72 284.589152 
L 124.08 284.589152 
L 124.08 290.024555 
L 135.24 298.128812 
L 124.08 306.23307 
L 124.08 318.438304 
" clip-path="url(#pa6f08e4da5)" style="fill: none; stroke: #000000; stroke-linecap: square"/>
   </g>
   <g id="line2d_14">
    <path d="M 146.4 318.438304 
L 146.4 365.827116 
" clip-path="url(#pa6f08e4da5)" style="fill: none; stroke: #000000; stroke-linecap: square"/>
   </g>
   <g id="line2d_15">
    <path d="M 146.4 284.589152 
L 146.4 243.97017 
" clip-path="url(#pa6f08e4da5)" style="fill: none; stroke: #000000; stroke-linecap: square"/>
   </g>
   <g id="line2d_16">
    <path d="M 135.24 365.827116 
L 157.56 365.827116 
" clip-path="url(#pa6f08e4da5)" style="fill: none; stroke: #000000; stroke-linecap: square"/>
   </g>
   <g id="line2d_17">
    <path d="M 135.24 243.97017 
L 157.56 243.97017 
" clip-path="url(#pa6f08e4da5)" style="fill: none; stroke: #000000; stroke-linecap: square"/>
   </g>
   <g id="line2d_18">
    <defs>
     <path id="m6939b0290e" d="M 0 3 
C 0.795609 3 1.55874 2.683901 2.12132 2.12132 
C 2.683901 1.55874 3 0.795609 3 0 
C 3 -0.795609 2.683901 -1.55874 2.12132 -2.12132 
C 1.55874 -2.683901 0.795609 -3 0 -3 
C -0.795609 -3 -1.55874 -2.683901 -2.12132 -2.12132 
C -2.683901 -1.55874 -3 -0.795609 -3 0 
C -3 0.795609 -2.683901 1.55874 -2.12132 2.12132 
C -1.55874 2.683901 -0.795609 3 0 3 
z
" style="stroke: #000000"/>
    </defs>
    <g clip-path="url(#pa6f08e4da5)">
     <use xlink:href="#m6939b0290e" x="146.4" y="229.527865" style="fill-opacity: 0; stroke: #000000"/>
     <use xlink:href="#m6939b0290e" x="146.4" y="135.652884" style="fill-opacity: 0; stroke: #000000"/>
    </g>
   </g>
   <g id="line2d_19">
    <path d="M 272.88 316.181693 
L 317.52 316.181693 
L 317.52 302.260133 
L 306.36 293.615592 
L 317.52 284.971051 
L 317.52 280.075932 
L 272.88 280.075932 
L 272.88 284.971051 
L 284.04 293.615592 
L 272.88 302.260133 
L 272.88 316.181693 
" clip-path="url(#pa6f08e4da5)" style="fill: none; stroke: #000000; stroke-linecap: square"/>
   </g>
   <g id="line2d_20">
    <path d="M 295.2 316.181693 
L 295.2 365.827116 
" clip-path="url(#pa6f08e4da5)" style="fill: none; stroke: #000000; stroke-linecap: square"/>
   </g>
   <g id="line2d_21">
    <path d="M 295.2 280.075932 
L 295.2 259.76644 
" clip-path="url(#pa6f08e4da5)" style="fill: none; stroke: #000000; stroke-linecap: square"/>
   </g>
   <g id="line2d_22">
    <path d="M 284.04 365.827116 
L 306.36 365.827116 
" clip-path="url(#pa6f08e4da5)" style="fill: none; stroke: #000000; stroke-linecap: square"/>
   </g>
   <g id="line2d_23">
    <path d="M 284.04 259.76644 
L 306.36 259.76644 
" clip-path="url(#pa6f08e4da5)" style="fill: none; stroke: #000000; stroke-linecap: square"/>
   </g>
   <g id="line2d_24">
    <g clip-path="url(#pa6f08e4da5)">
     <use xlink:href="#m6939b0290e" x="295.2" y="182.139052" style="fill-opacity: 0; stroke: #000000"/>
    </g>
   </g>
   <g id="line2d_25">
    <path d="M 421.68 318.438304 
L 466.32 318.438304 
L 466.32 306.048633 
L 455.16 296.323524 
L 466.32 286.598416 
L 466.32 277.819321 
L 421.68 277.819321 
L 421.68 286.598416 
L 432.84 296.323524 
L 421.68 306.048633 
L 421.68 318.438304 
" clip-path="url(#pa6f08e4da5)" style="fill: none; stroke: #000000; stroke-linecap: square"/>
   </g>
   <g id="line2d_26">
    <path d="M 444 318.438304 
L 444 374.853557 
" clip-path="url(#pa6f08e4da5)" style="fill: none; stroke: #000000; stroke-linecap: square"/>
   </g>
   <g id="line2d_27">
    <path d="M 444 277.819321 
L 444 239.005627 
" clip-path="url(#pa6f08e4da5)" style="fill: none; stroke: #000000; stroke-linecap: square"/>
   </g>
   <g id="line2d_28">
    <path d="M 432.84 374.853557 
L 455.16 374.853557 
" clip-path="url(#pa6f08e4da5)" style="fill: none; stroke: #000000; stroke-linecap: square"/>
   </g>
   <g id="line2d_29">
    <path d="M 432.84 239.005627 
L 455.16 239.005627 
" clip-path="url(#pa6f08e4da5)" style="fill: none; stroke: #000000; stroke-linecap: square"/>
   </g>
   <g id="line2d_30"/>
   <g id="line2d_31">
    <path d="M 135.24 298.128812 
L 157.56 298.128812 
" clip-path="url(#pa6f08e4da5)" style="fill: none; stroke: #ff7f0e; stroke-linecap: square"/>
   </g>
   <g id="line2d_32">
    <path d="M 284.04 293.615592 
L 306.36 293.615592 
" clip-path="url(#pa6f08e4da5)" style="fill: none; stroke: #ff7f0e; stroke-linecap: square"/>
   </g>
   <g id="line2d_33">
    <path d="M 432.84 296.323524 
L 455.16 296.323524 
" clip-path="url(#pa6f08e4da5)" style="fill: none; stroke: #ff7f0e; stroke-linecap: square"/>
   </g>
   <g id="patch_3">
    <path d="M 72 441 
L 72 60.48 
" style="fill: none; stroke: #000000; stroke-width: 0.8; stroke-linejoin: miter; stroke-linecap: square"/>
   </g>
   <g id="patch_4">
    <path d="M 518.4 441 
L 518.4 60.48 
" style="fill: none; stroke: #000000; stroke-width: 0.8; stroke-linejoin: miter; stroke-linecap: square"/>
   </g>
   <g id="patch_5">
    <path d="M 72 441 
L 518.4 441 
" style="fill: none; stroke: #000000; stroke-width: 0.8; stroke-linejoin: miter; stroke-linecap: square"/>
   </g>
   <g id="patch_6">
    <path d="M 72 60.48 
L 518.4 60.48 
" style="fill: none; stroke: #000000; stroke-width: 0.8; stroke-linejoin: miter; stroke-linecap: square"/>
   </g>
   <g id="text_13">
    <!-- CBT3 -->
    <g transform="translate(268.885938 54.48)scale(0.2 -0.2)">
     <defs>
      <path id="DejaVuSans-43" d="M 4122 4306 
L 4122 3641 
Q 3803 3938 3442 4084 
Q 3081 4231 2675 4231 
Q 1875 4231 1450 3742 
Q 1025 3253 1025 2328 
Q 1025 1406 1450 917 
Q 1875 428 2675 428 
Q 3081 428 3442 575 
Q 3803 722 4122 1019 
L 4122 359 
Q 3791 134 3420 21 
Q 3050 -91 2638 -91 
Q 1578 -91 968 557 
Q 359 1206 359 2328 
Q 359 3453 968 4101 
Q 1578 4750 2638 4750 
Q 3056 4750 3426 4639 
Q 3797 4528 4122 4306 
z
" transform="scale(0.015625)"/>
      <path id="DejaVuSans-42" d="M 1259 2228 
L 1259 519 
L 2272 519 
Q 2781 519 3026 730 
Q 3272 941 3272 1375 
Q 3272 1813 3026 2020 
Q 2781 2228 2272 2228 
L 1259 2228 
z
M 1259 4147 
L 1259 2741 
L 2194 2741 
Q 2656 2741 2882 2914 
Q 3109 3088 3109 3444 
Q 3109 3797 2882 3972 
Q 2656 4147 2194 4147 
L 1259 4147 
z
M 628 4666 
L 2241 4666 
Q 2963 4666 3353 4366 
Q 3744 4066 3744 3513 
Q 3744 3084 3544 2831 
Q 3344 2578 2956 2516 
Q 3422 2416 3680 2098 
Q 3938 1781 3938 1306 
Q 3938 681 3513 340 
Q 3088 0 2303 0 
L 628 0 
L 628 4666 
z
" transform="scale(0.015625)"/>
      <path id="DejaVuSans-54" d="M -19 4666 
L 3928 4666 
L 3928 4134 
L 2272 4134 
L 2272 0 
L 1638 0 
L 1638 4134 
L -19 4134 
L -19 4666 
z
" transform="scale(0.015625)"/>
     </defs>
     <use xlink:href="#DejaVuSans-43"/>
     <use xlink:href="#DejaVuSans-42" x="69.824219"/>
     <use xlink:href="#DejaVuSans-54" x="138.427734"/>
     <use xlink:href="#DejaVuSans-33" x="199.511719"/>
    </g>
   </g>
  </g>
 </g>
 <defs>
  <clipPath id="pa6f08e4da5">
   <rect x="72" y="60.48" width="446.4" height="380.52"/>
  </clipPath>
 </defs>
</svg>
