<?xml version="1.0" encoding="utf-8" standalone="no"?>
<!DOCTYPE svg PUBLIC "-//W3C//DTD SVG 1.1//EN"
  "http://www.w3.org/Graphics/SVG/1.1/DTD/svg11.dtd">
<svg xmlns:xlink="http://www.w3.org/1999/xlink" width="576pt" height="504pt" viewBox="0 0 576 504" xmlns="http://www.w3.org/2000/svg" version="1.1">
 <metadata>
  <rdf:RDF xmlns:dc="http://purl.org/dc/elements/1.1/" xmlns:cc="http://creativecommons.org/ns#" xmlns:rdf="http://www.w3.org/1999/02/22-rdf-syntax-ns#">
   <cc:Work>
    <dc:type rdf:resource="http://purl.org/dc/dcmitype/StillImage"/>
    <dc:date>2023-06-25T20:06:47.165072</dc:date>
    <dc:format>image/svg+xml</dc:format>
    <dc:creator>
     <cc:Agent>
      <dc:title>Matplotlib v3.5.1, https://matplotlib.org/</dc:title>
     </cc:Agent>
    </dc:creator>
   </cc:Work>
  </rdf:RDF>
 </metadata>
 <defs>
  <style type="text/css">*{stroke-linejoin: round; stroke-linecap: butt}</style>
 </defs>
 <g id="figure_1">
  <g id="patch_1">
   <path d="M 0 504 
L 576 504 
L 576 0 
L 0 0 
L 0 504 
z
" style="fill: none"/>
  </g>
  <g id="axes_1">
   <g id="patch_2">
    <path d="M 72 441 
L 518.4 441 
L 518.4 60.48 
L 72 60.48 
z
" style="fill: #ffffff"/>
   </g>
   <g id="PolyCollection_1">
    <defs>
     <path id="m6f081108b7" d="M 146.427535 -94.349998 
L 146.372465 -94.349998 
L 146.356856 -97.702257 
L 146.333636 -101.054516 
L 146.299772 -104.406775 
L 146.251345 -107.759034 
L 146.183426 -111.111293 
L 146.089984 -114.463552 
L 145.963849 -117.815811 
L 145.796739 -121.16807 
L 145.579369 -124.520329 
L 145.301658 -127.872587 
L 144.953014 -131.224846 
L 144.522687 -134.577105 
L 144.000183 -137.929364 
L 143.375678 -141.281623 
L 142.64043 -144.633882 
L 141.787145 -147.986141 
L 140.810289 -151.3384 
L 139.706353 -154.690659 
L 138.47407 -158.042918 
L 137.114632 -161.395177 
L 135.631919 -164.747436 
L 134.032769 -168.099695 
L 132.327295 -171.451954 
L 130.529214 -174.804213 
L 128.656142 -178.156472 
L 126.72977 -181.508731 
L 124.77582 -184.86099 
L 122.823688 -188.213249 
L 120.905667 -191.565508 
L 119.055731 -194.917767 
L 117.307847 -198.270026 
L 115.69391 -201.622285 
L 114.241424 -204.974544 
L 112.971136 -208.326803 
L 111.894886 -211.679062 
L 111.013954 -215.031321 
L 110.318191 -218.38358 
L 109.786154 -221.735839 
L 109.38638 -225.088098 
L 109.07979 -228.440357 
L 108.823076 -231.792616 
L 108.572731 -235.144875 
L 108.289306 -238.497134 
L 107.941361 -241.849393 
L 107.50862 -245.201652 
L 106.983897 -248.553911 
L 106.373544 -251.90617 
L 105.696362 -255.258429 
L 104.981143 -258.610688 
L 104.263205 -261.962947 
L 103.580409 -265.315206 
L 102.969226 -268.667464 
L 102.461342 -272.019723 
L 102.081232 -275.371982 
L 101.844922 -278.724241 
L 101.76 -282.0765 
L 101.826729 -285.428759 
L 102.039989 -288.781018 
L 102.391667 -292.133277 
L 102.873096 -295.485536 
L 103.477163 -298.837795 
L 104.199795 -302.190054 
L 105.040634 -305.542313 
L 106.002861 -308.894572 
L 107.092239 -312.246831 
L 108.31556 -315.59909 
L 109.678768 -318.951349 
L 111.185044 -322.303608 
L 112.83314 -325.655867 
L 114.616196 -329.008126 
L 116.521189 -332.360385 
L 118.529058 -335.712644 
L 120.615458 -339.064903 
L 122.752003 -342.417162 
L 124.90783 -345.769421 
L 127.051273 -349.12168 
L 129.151473 -352.473939 
L 131.179782 -355.826198 
L 133.110881 -359.178457 
L 134.923569 -362.530716 
L 136.601248 -365.882975 
L 138.132123 -369.235234 
L 139.509173 -372.587493 
L 140.729936 -375.939752 
L 141.796137 -379.292011 
L 142.713198 -382.64427 
L 143.489648 -385.996529 
L 144.136457 -389.348788 
L 144.666334 -392.701047 
L 145.093013 -396.053306 
L 145.430578 -399.405565 
L 145.692851 -402.757824 
L 145.892894 -406.110083 
L 146.042625 -409.462341 
L 146.152572 -412.8146 
L 146.231752 -416.166859 
L 146.287666 -419.519118 
L 146.326372 -422.871377 
L 146.352636 -426.223636 
L 146.447364 -426.223636 
L 146.447364 -426.223636 
L 146.473628 -422.871377 
L 146.512334 -419.519118 
L 146.568248 -416.166859 
L 146.647428 -412.8146 
L 146.757375 -409.462341 
L 146.907106 -406.110083 
L 147.107149 -402.757824 
L 147.369422 -399.405565 
L 147.706987 -396.053306 
L 148.133666 -392.701047 
L 148.663543 -389.348788 
L 149.310352 -385.996529 
L 150.086802 -382.64427 
L 151.003863 -379.292011 
L 152.070064 -375.939752 
L 153.290827 -372.587493 
L 154.667877 -369.235234 
L 156.198752 -365.882975 
L 157.876431 -362.530716 
L 159.689119 -359.178457 
L 161.620218 -355.826198 
L 163.648527 -352.473939 
L 165.748727 -349.12168 
L 167.89217 -345.769421 
L 170.047997 -342.417162 
L 172.184542 -339.064903 
L 174.270942 -335.712644 
L 176.278811 -332.360385 
L 178.183804 -329.008126 
L 179.96686 -325.655867 
L 181.614956 -322.303608 
L 183.121232 -318.951349 
L 184.48444 -315.59909 
L 185.707761 -312.246831 
L 186.797139 -308.894572 
L 187.759366 -305.542313 
L 188.600205 -302.190054 
L 189.322837 -298.837795 
L 189.926904 -295.485536 
L 190.408333 -292.133277 
L 190.760011 -288.781018 
L 190.973271 -285.428759 
L 191.04 -282.0765 
L 190.955078 -278.724241 
L 190.718768 -275.371982 
L 190.338658 -272.019723 
L 189.830774 -268.667464 
L 189.219591 -265.315206 
L 188.536795 -261.962947 
L 187.818857 -258.610688 
L 187.103638 -255.258429 
L 186.426456 -251.90617 
L 185.816103 -248.553911 
L 185.29138 -245.201652 
L 184.858639 -241.849393 
L 184.510694 -238.497134 
L 184.227269 -235.144875 
L 183.976924 -231.792616 
L 183.72021 -228.440357 
L 183.41362 -225.088098 
L 183.013846 -221.735839 
L 182.481809 -218.38358 
L 181.786046 -215.031321 
L 180.905114 -211.679062 
L 179.828864 -208.326803 
L 178.558576 -204.974544 
L 177.10609 -201.622285 
L 175.492153 -198.270026 
L 173.744269 -194.917767 
L 171.894333 -191.565508 
L 169.976312 -188.213249 
L 168.02418 -184.86099 
L 166.07023 -181.508731 
L 164.143858 -178.156472 
L 162.270786 -174.804213 
L 160.472705 -171.451954 
L 158.767231 -168.099695 
L 157.168081 -164.747436 
L 155.685368 -161.395177 
L 154.32593 -158.042918 
L 153.093647 -154.690659 
L 151.989711 -151.3384 
L 151.012855 -147.986141 
L 150.15957 -144.633882 
L 149.424322 -141.281623 
L 148.799817 -137.929364 
L 148.277313 -134.577105 
L 147.846986 -131.224846 
L 147.498342 -127.872587 
L 147.220631 -124.520329 
L 147.003261 -121.16807 
L 146.836151 -117.815811 
L 146.710016 -114.463552 
L 146.616574 -111.111293 
L 146.548655 -107.759034 
L 146.500228 -104.406775 
L 146.466364 -101.054516 
L 146.443144 -97.702257 
L 146.427535 -94.349998 
z
" style="stroke: #000000; stroke-opacity: 0.5"/>
    </defs>
    <g clip-path="url(#pb0507f7081)">
     <use xlink:href="#m6f081108b7" x="0" y="504" style="fill: #5ca890; fill-opacity: 0.5; stroke: #000000; stroke-opacity: 0.5"/>
    </g>
   </g>
   <g id="PolyCollection_2">
    <defs>
     <path id="mf0da79ae6d" d="M 295.260875 -116.749906 
L 295.139125 -116.749906 
L 295.102479 -119.766254 
L 295.047016 -122.782603 
L 294.96496 -125.798952 
L 294.846286 -128.815301 
L 294.678503 -131.831649 
L 294.446599 -134.847998 
L 294.133229 -137.864347 
L 293.719196 -140.880696 
L 293.184279 -143.897044 
L 292.508379 -146.913393 
L 291.672938 -149.929742 
L 290.662489 -152.94609 
L 289.466169 -155.962439 
L 288.07897 -158.978788 
L 286.502528 -161.995137 
L 284.745283 -165.011485 
L 282.821935 -168.027834 
L 280.752263 -171.044183 
L 278.559491 -174.060531 
L 276.268509 -177.07688 
L 273.904339 -180.093229 
L 271.491203 -183.109578 
L 269.052484 -186.125926 
L 266.611662 -189.142275 
L 264.194128 -192.158624 
L 261.829492 -195.174973 
L 259.553858 -198.191321 
L 257.411417 -201.20767 
L 255.454759 -204.224019 
L 253.743458 -207.240367 
L 252.340776 -210.256716 
L 251.308664 -213.273065 
L 250.701592 -216.289414 
L 250.56 -219.305762 
L 250.904327 -222.322111 
L 251.730555 -225.33846 
L 253.008027 -228.354809 
L 254.680008 -231.371157 
L 256.667045 -234.387506 
L 258.872802 -237.403855 
L 261.191681 -240.420203 
L 263.517316 -243.436552 
L 265.750946 -246.452901 
L 267.808698 -249.46925 
L 269.62706 -252.485598 
L 271.166068 -255.501947 
L 272.410068 -258.518296 
L 273.366237 -261.534644 
L 274.061265 -264.550993 
L 274.536794 -267.567342 
L 274.844237 -270.583691 
L 275.039584 -273.600039 
L 275.178685 -276.616388 
L 275.313358 -279.632737 
L 275.488496 -282.649086 
L 275.740211 -285.665434 
L 276.094919 -288.681783 
L 276.569203 -291.698132 
L 277.170256 -294.71448 
L 277.896717 -297.730829 
L 278.739738 -300.747178 
L 279.684168 -303.763527 
L 280.709822 -306.779875 
L 281.792789 -309.796224 
L 282.906813 -312.812573 
L 284.024747 -315.828921 
L 285.120054 -318.84527 
L 286.168326 -321.861619 
L 287.148708 -324.877968 
L 288.045135 -327.894316 
L 288.847213 -330.910665 
L 289.550658 -333.927014 
L 290.157198 -336.943363 
L 290.673935 -339.959711 
L 291.112209 -342.97606 
L 291.486119 -345.992409 
L 291.810866 -349.008757 
L 292.101129 -352.025106 
L 292.369681 -355.041455 
L 292.626383 -358.057804 
L 292.877666 -361.074152 
L 293.126501 -364.090501 
L 293.372799 -367.10685 
L 293.614133 -370.123198 
L 293.846624 -373.139547 
L 294.065853 -376.155896 
L 294.267655 -379.172245 
L 294.448721 -382.188593 
L 294.606958 -385.204942 
L 294.741612 -388.221291 
L 294.853186 -391.23764 
L 294.943217 -394.253988 
L 295.013981 -397.270337 
L 295.068173 -400.286686 
L 295.108617 -403.303034 
L 295.138042 -406.319383 
L 295.158916 -409.335732 
L 295.173357 -412.352081 
L 295.183103 -415.368429 
L 295.216897 -415.368429 
L 295.216897 -415.368429 
L 295.226643 -412.352081 
L 295.241084 -409.335732 
L 295.261958 -406.319383 
L 295.291383 -403.303034 
L 295.331827 -400.286686 
L 295.386019 -397.270337 
L 295.456783 -394.253988 
L 295.546814 -391.23764 
L 295.658388 -388.221291 
L 295.793042 -385.204942 
L 295.951279 -382.188593 
L 296.132345 -379.172245 
L 296.334147 -376.155896 
L 296.553376 -373.139547 
L 296.785867 -370.123198 
L 297.027201 -367.10685 
L 297.273499 -364.090501 
L 297.522334 -361.074152 
L 297.773617 -358.057804 
L 298.030319 -355.041455 
L 298.298871 -352.025106 
L 298.589134 -349.008757 
L 298.913881 -345.992409 
L 299.287791 -342.97606 
L 299.726065 -339.959711 
L 300.242802 -336.943363 
L 300.849342 -333.927014 
L 301.552787 -330.910665 
L 302.354865 -327.894316 
L 303.251292 -324.877968 
L 304.231674 -321.861619 
L 305.279946 -318.84527 
L 306.375253 -315.828921 
L 307.493187 -312.812573 
L 308.607211 -309.796224 
L 309.690178 -306.779875 
L 310.715832 -303.763527 
L 311.660262 -300.747178 
L 312.503283 -297.730829 
L 313.229744 -294.71448 
L 313.830797 -291.698132 
L 314.305081 -288.681783 
L 314.659789 -285.665434 
L 314.911504 -282.649086 
L 315.086642 -279.632737 
L 315.221315 -276.616388 
L 315.360416 -273.600039 
L 315.555763 -270.583691 
L 315.863206 -267.567342 
L 316.338735 -264.550993 
L 317.033763 -261.534644 
L 317.989932 -258.518296 
L 319.233932 -255.501947 
L 320.77294 -252.485598 
L 322.591302 -249.46925 
L 324.649054 -246.452901 
L 326.882684 -243.436552 
L 329.208319 -240.420203 
L 331.527198 -237.403855 
L 333.732955 -234.387506 
L 335.719992 -231.371157 
L 337.391973 -228.354809 
L 338.669445 -225.33846 
L 339.495673 -222.322111 
L 339.84 -219.305762 
L 339.698408 -216.289414 
L 339.091336 -213.273065 
L 338.059224 -210.256716 
L 336.656542 -207.240367 
L 334.945241 -204.224019 
L 332.988583 -201.20767 
L 330.846142 -198.191321 
L 328.570508 -195.174973 
L 326.205872 -192.158624 
L 323.788338 -189.142275 
L 321.347516 -186.125926 
L 318.908797 -183.109578 
L 316.495661 -180.093229 
L 314.131491 -177.07688 
L 311.840509 -174.060531 
L 309.647737 -171.044183 
L 307.578065 -168.027834 
L 305.654717 -165.011485 
L 303.897472 -161.995137 
L 302.32103 -158.978788 
L 300.933831 -155.962439 
L 299.737511 -152.94609 
L 298.727062 -149.929742 
L 297.891621 -146.913393 
L 297.215721 -143.897044 
L 296.680804 -140.880696 
L 296.266771 -137.864347 
L 295.953401 -134.847998 
L 295.721497 -131.831649 
L 295.553714 -128.815301 
L 295.43504 -125.798952 
L 295.352984 -122.782603 
L 295.297521 -119.766254 
L 295.260875 -116.749906 
z
" style="stroke: #000000; stroke-opacity: 0.5"/>
    </defs>
    <g clip-path="url(#pb0507f7081)">
     <use xlink:href="#mf0da79ae6d" x="0" y="504" style="fill: #5ca890; fill-opacity: 0.5; stroke: #000000; stroke-opacity: 0.5"/>
    </g>
   </g>
   <g id="PolyCollection_3">
    <defs>
     <path id="m5c02e03ea4" d="M 444.024184 -80.296364 
L 443.975816 -80.296364 
L 443.961294 -83.349469 
L 443.939273 -86.402574 
L 443.906589 -89.455679 
L 443.859108 -92.508784 
L 443.791581 -95.561889 
L 443.697565 -98.614994 
L 443.569403 -101.668099 
L 443.398317 -104.721204 
L 443.174625 -107.774309 
L 442.888089 -110.827414 
L 442.528384 -113.880519 
L 442.085653 -116.933624 
L 441.551084 -119.98673 
L 440.91743 -123.039835 
L 440.179393 -126.09294 
L 439.333782 -129.146045 
L 438.379401 -132.19915 
L 437.316665 -135.252255 
L 436.14698 -138.30536 
L 434.872017 -141.358465 
L 433.493026 -144.41157 
L 432.010372 -147.464675 
L 430.423472 -150.51778 
L 428.731224 -153.570885 
L 426.932988 -156.62399 
L 425.030008 -159.677095 
L 423.027104 -162.730201 
L 420.93435 -165.783306 
L 418.768421 -168.836411 
L 416.553324 -171.889516 
L 414.320295 -174.942621 
L 412.106779 -177.995726 
L 409.954581 -181.048831 
L 407.907403 -184.101936 
L 406.008113 -187.155041 
L 404.296136 -190.208146 
L 402.805325 -193.261251 
L 401.562581 -196.314356 
L 400.58735 -199.367461 
L 399.891933 -202.420566 
L 399.482433 -205.473671 
L 399.36 -208.526777 
L 399.522039 -211.579882 
L 399.963052 -214.632987 
L 400.674886 -217.686092 
L 401.646309 -220.739197 
L 402.862012 -223.792302 
L 404.301267 -226.845407 
L 405.936606 -229.898512 
L 407.732909 -232.951617 
L 409.647267 -236.004722 
L 411.629873 -239.057827 
L 413.626016 -242.110932 
L 415.579082 -245.164037 
L 417.434256 -248.217142 
L 419.142494 -251.270248 
L 420.664263 -254.323353 
L 421.972558 -257.376458 
L 423.054806 -260.429563 
L 423.913445 -263.482668 
L 424.565133 -266.535773 
L 425.038734 -269.588878 
L 425.372386 -272.641983 
L 425.610026 -275.695088 
L 425.797764 -278.748193 
L 425.980467 -281.801298 
L 426.198824 -284.854403 
L 426.487062 -287.907508 
L 426.871391 -290.960613 
L 427.36917 -294.013719 
L 427.988735 -297.066824 
L 428.729796 -300.119929 
L 429.584299 -303.173034 
L 430.537638 -306.226139 
L 431.570104 -309.279244 
L 432.658481 -312.332349 
L 433.777667 -315.385454 
L 434.902236 -318.438559 
L 436.007855 -321.491664 
L 437.072486 -324.544769 
L 438.077316 -327.597874 
L 439.007401 -330.650979 
L 439.851994 -333.704084 
L 440.604599 -336.757189 
L 441.262751 -339.810295 
L 441.8276 -342.8634 
L 442.303326 -345.916505 
L 442.696468 -348.96961 
L 443.015207 -352.022715 
L 443.268681 -355.07582 
L 443.466356 -358.128925 
L 443.617501 -361.18203 
L 443.730784 -364.235135 
L 443.813992 -367.28824 
L 443.873876 -370.341345 
L 443.916096 -373.39445 
L 443.945251 -376.447555 
L 443.964966 -379.50066 
L 443.97802 -382.553766 
L 444.02198 -382.553766 
L 444.02198 -382.553766 
L 444.035034 -379.50066 
L 444.054749 -376.447555 
L 444.083904 -373.39445 
L 444.126124 -370.341345 
L 444.186008 -367.28824 
L 444.269216 -364.235135 
L 444.382499 -361.18203 
L 444.533644 -358.128925 
L 444.731319 -355.07582 
L 444.984793 -352.022715 
L 445.303532 -348.96961 
L 445.696674 -345.916505 
L 446.1724 -342.8634 
L 446.737249 -339.810295 
L 447.395401 -336.757189 
L 448.148006 -333.704084 
L 448.992599 -330.650979 
L 449.922684 -327.597874 
L 450.927514 -324.544769 
L 451.992145 -321.491664 
L 453.097764 -318.438559 
L 454.222333 -315.385454 
L 455.341519 -312.332349 
L 456.429896 -309.279244 
L 457.462362 -306.226139 
L 458.415701 -303.173034 
L 459.270204 -300.119929 
L 460.011265 -297.066824 
L 460.63083 -294.013719 
L 461.128609 -290.960613 
L 461.512938 -287.907508 
L 461.801176 -284.854403 
L 462.019533 -281.801298 
L 462.202236 -278.748193 
L 462.389974 -275.695088 
L 462.627614 -272.641983 
L 462.961266 -269.588878 
L 463.434867 -266.535773 
L 464.086555 -263.482668 
L 464.945194 -260.429563 
L 466.027442 -257.376458 
L 467.335737 -254.323353 
L 468.857506 -251.270248 
L 470.565744 -248.217142 
L 472.420918 -245.164037 
L 474.373984 -242.110932 
L 476.370127 -239.057827 
L 478.352733 -236.004722 
L 480.267091 -232.951617 
L 482.063394 -229.898512 
L 483.698733 -226.845407 
L 485.137988 -223.792302 
L 486.353691 -220.739197 
L 487.325114 -217.686092 
L 488.036948 -214.632987 
L 488.477961 -211.579882 
L 488.64 -208.526777 
L 488.517567 -205.473671 
L 488.108067 -202.420566 
L 487.41265 -199.367461 
L 486.437419 -196.314356 
L 485.194675 -193.261251 
L 483.703864 -190.208146 
L 481.991887 -187.155041 
L 480.092597 -184.101936 
L 478.045419 -181.048831 
L 475.893221 -177.995726 
L 473.679705 -174.942621 
L 471.446676 -171.889516 
L 469.231579 -168.836411 
L 467.06565 -165.783306 
L 464.972896 -162.730201 
L 462.969992 -159.677095 
L 461.067012 -156.62399 
L 459.268776 -153.570885 
L 457.576528 -150.51778 
L 455.989628 -147.464675 
L 454.506974 -144.41157 
L 453.127983 -141.358465 
L 451.85302 -138.30536 
L 450.683335 -135.252255 
L 449.620599 -132.19915 
L 448.666218 -129.146045 
L 447.820607 -126.09294 
L 447.08257 -123.039835 
L 446.448916 -119.98673 
L 445.914347 -116.933624 
L 445.471616 -113.880519 
L 445.111911 -110.827414 
L 444.825375 -107.774309 
L 444.601683 -104.721204 
L 444.430597 -101.668099 
L 444.302435 -98.614994 
L 444.208419 -95.561889 
L 444.140892 -92.508784 
L 444.093411 -89.455679 
L 444.060727 -86.402574 
L 444.038706 -83.349469 
L 444.024184 -80.296364 
z
" style="stroke: #000000; stroke-opacity: 0.5"/>
    </defs>
    <g clip-path="url(#pb0507f7081)">
     <use xlink:href="#m5c02e03ea4" x="0" y="504" style="fill: #5ca890; fill-opacity: 0.5; stroke: #000000; stroke-opacity: 0.5"/>
    </g>
   </g>
   <g id="matplotlib.axis_1">
    <g id="xtick_1">
     <g id="line2d_1">
      <defs>
       <path id="m9c2b41a4f2" d="M 0 0 
L 0 3.5 
" style="stroke: #000000; stroke-width: 0.8"/>
      </defs>
      <g>
       <use xlink:href="#m9c2b41a4f2" x="146.4" y="441" style="stroke: #000000; stroke-width: 0.8"/>
      </g>
     </g>
     <g id="text_1">
      <!-- Před -->
      <g transform="translate(129.718359 459.397656)scale(0.15 -0.15)">
       <defs>
        <path id="DejaVuSans-50" d="M 1259 4147 
L 1259 2394 
L 2053 2394 
Q 2494 2394 2734 2622 
Q 2975 2850 2975 3272 
Q 2975 3691 2734 3919 
Q 2494 4147 2053 4147 
L 1259 4147 
z
M 628 4666 
L 2053 4666 
Q 2838 4666 3239 4311 
Q 3641 3956 3641 3272 
Q 3641 2581 3239 2228 
Q 2838 1875 2053 1875 
L 1259 1875 
L 1259 0 
L 628 0 
L 628 4666 
z
" transform="scale(0.015625)"/>
        <path id="DejaVuSans-159" d="M 2631 2963 
Q 2534 3019 2420 3045 
Q 2306 3072 2169 3072 
Q 1681 3072 1420 2755 
Q 1159 2438 1159 1844 
L 1159 0 
L 581 0 
L 581 3500 
L 1159 3500 
L 1159 2956 
Q 1341 3275 1631 3429 
Q 1922 3584 2338 3584 
Q 2397 3584 2469 3576 
Q 2541 3569 2628 3553 
L 2631 2963 
z
M 1457 3944 
L 691 5119 
L 1126 5119 
L 1688 4353 
L 2251 5119 
L 2685 5119 
L 1919 3944 
L 1457 3944 
z
" transform="scale(0.015625)"/>
        <path id="DejaVuSans-65" d="M 3597 1894 
L 3597 1613 
L 953 1613 
Q 991 1019 1311 708 
Q 1631 397 2203 397 
Q 2534 397 2845 478 
Q 3156 559 3463 722 
L 3463 178 
Q 3153 47 2828 -22 
Q 2503 -91 2169 -91 
Q 1331 -91 842 396 
Q 353 884 353 1716 
Q 353 2575 817 3079 
Q 1281 3584 2069 3584 
Q 2775 3584 3186 3129 
Q 3597 2675 3597 1894 
z
M 3022 2063 
Q 3016 2534 2758 2815 
Q 2500 3097 2075 3097 
Q 1594 3097 1305 2825 
Q 1016 2553 972 2059 
L 3022 2063 
z
" transform="scale(0.015625)"/>
        <path id="DejaVuSans-64" d="M 2906 2969 
L 2906 4863 
L 3481 4863 
L 3481 0 
L 2906 0 
L 2906 525 
Q 2725 213 2448 61 
Q 2172 -91 1784 -91 
Q 1150 -91 751 415 
Q 353 922 353 1747 
Q 353 2572 751 3078 
Q 1150 3584 1784 3584 
Q 2172 3584 2448 3432 
Q 2725 3281 2906 2969 
z
M 947 1747 
Q 947 1113 1208 752 
Q 1469 391 1925 391 
Q 2381 391 2643 752 
Q 2906 1113 2906 1747 
Q 2906 2381 2643 2742 
Q 2381 3103 1925 3103 
Q 1469 3103 1208 2742 
Q 947 2381 947 1747 
z
" transform="scale(0.015625)"/>
       </defs>
       <use xlink:href="#DejaVuSans-50"/>
       <use xlink:href="#DejaVuSans-159" x="58.552734"/>
       <use xlink:href="#DejaVuSans-65" x="97.416016"/>
       <use xlink:href="#DejaVuSans-64" x="158.939453"/>
      </g>
     </g>
    </g>
    <g id="xtick_2">
     <g id="line2d_2">
      <g>
       <use xlink:href="#m9c2b41a4f2" x="295.2" y="441" style="stroke: #000000; stroke-width: 0.8"/>
      </g>
     </g>
     <g id="text_2">
      <!-- Po 2 týdnech -->
      <g transform="translate(246.435937 459.997656)scale(0.15 -0.15)">
       <defs>
        <path id="DejaVuSans-6f" d="M 1959 3097 
Q 1497 3097 1228 2736 
Q 959 2375 959 1747 
Q 959 1119 1226 758 
Q 1494 397 1959 397 
Q 2419 397 2687 759 
Q 2956 1122 2956 1747 
Q 2956 2369 2687 2733 
Q 2419 3097 1959 3097 
z
M 1959 3584 
Q 2709 3584 3137 3096 
Q 3566 2609 3566 1747 
Q 3566 888 3137 398 
Q 2709 -91 1959 -91 
Q 1206 -91 779 398 
Q 353 888 353 1747 
Q 353 2609 779 3096 
Q 1206 3584 1959 3584 
z
" transform="scale(0.015625)"/>
        <path id="DejaVuSans-20" transform="scale(0.015625)"/>
        <path id="DejaVuSans-32" d="M 1228 531 
L 3431 531 
L 3431 0 
L 469 0 
L 469 531 
Q 828 903 1448 1529 
Q 2069 2156 2228 2338 
Q 2531 2678 2651 2914 
Q 2772 3150 2772 3378 
Q 2772 3750 2511 3984 
Q 2250 4219 1831 4219 
Q 1534 4219 1204 4116 
Q 875 4013 500 3803 
L 500 4441 
Q 881 4594 1212 4672 
Q 1544 4750 1819 4750 
Q 2544 4750 2975 4387 
Q 3406 4025 3406 3419 
Q 3406 3131 3298 2873 
Q 3191 2616 2906 2266 
Q 2828 2175 2409 1742 
Q 1991 1309 1228 531 
z
" transform="scale(0.015625)"/>
        <path id="DejaVuSans-74" d="M 1172 4494 
L 1172 3500 
L 2356 3500 
L 2356 3053 
L 1172 3053 
L 1172 1153 
Q 1172 725 1289 603 
Q 1406 481 1766 481 
L 2356 481 
L 2356 0 
L 1766 0 
Q 1100 0 847 248 
Q 594 497 594 1153 
L 594 3053 
L 172 3053 
L 172 3500 
L 594 3500 
L 594 4494 
L 1172 4494 
z
" transform="scale(0.015625)"/>
        <path id="DejaVuSans-fd" d="M 2059 -325 
Q 1816 -950 1584 -1140 
Q 1353 -1331 966 -1331 
L 506 -1331 
L 506 -850 
L 844 -850 
Q 1081 -850 1212 -737 
Q 1344 -625 1503 -206 
L 1606 56 
L 191 3500 
L 800 3500 
L 1894 763 
L 2988 3500 
L 3597 3500 
L 2059 -325 
z
M 2330 5119 
L 2952 5119 
L 1934 3944 
L 1455 3944 
L 2330 5119 
z
" transform="scale(0.015625)"/>
        <path id="DejaVuSans-6e" d="M 3513 2113 
L 3513 0 
L 2938 0 
L 2938 2094 
Q 2938 2591 2744 2837 
Q 2550 3084 2163 3084 
Q 1697 3084 1428 2787 
Q 1159 2491 1159 1978 
L 1159 0 
L 581 0 
L 581 3500 
L 1159 3500 
L 1159 2956 
Q 1366 3272 1645 3428 
Q 1925 3584 2291 3584 
Q 2894 3584 3203 3211 
Q 3513 2838 3513 2113 
z
" transform="scale(0.015625)"/>
        <path id="DejaVuSans-63" d="M 3122 3366 
L 3122 2828 
Q 2878 2963 2633 3030 
Q 2388 3097 2138 3097 
Q 1578 3097 1268 2742 
Q 959 2388 959 1747 
Q 959 1106 1268 751 
Q 1578 397 2138 397 
Q 2388 397 2633 464 
Q 2878 531 3122 666 
L 3122 134 
Q 2881 22 2623 -34 
Q 2366 -91 2075 -91 
Q 1284 -91 818 406 
Q 353 903 353 1747 
Q 353 2603 823 3093 
Q 1294 3584 2113 3584 
Q 2378 3584 2631 3529 
Q 2884 3475 3122 3366 
z
" transform="scale(0.015625)"/>
        <path id="DejaVuSans-68" d="M 3513 2113 
L 3513 0 
L 2938 0 
L 2938 2094 
Q 2938 2591 2744 2837 
Q 2550 3084 2163 3084 
Q 1697 3084 1428 2787 
Q 1159 2491 1159 1978 
L 1159 0 
L 581 0 
L 581 4863 
L 1159 4863 
L 1159 2956 
Q 1366 3272 1645 3428 
Q 1925 3584 2291 3584 
Q 2894 3584 3203 3211 
Q 3513 2838 3513 2113 
z
" transform="scale(0.015625)"/>
       </defs>
       <use xlink:href="#DejaVuSans-50"/>
       <use xlink:href="#DejaVuSans-6f" x="56.677734"/>
       <use xlink:href="#DejaVuSans-20" x="117.859375"/>
       <use xlink:href="#DejaVuSans-32" x="149.646484"/>
       <use xlink:href="#DejaVuSans-20" x="213.269531"/>
       <use xlink:href="#DejaVuSans-74" x="245.056641"/>
       <use xlink:href="#DejaVuSans-fd" x="284.265625"/>
       <use xlink:href="#DejaVuSans-64" x="343.445312"/>
       <use xlink:href="#DejaVuSans-6e" x="406.921875"/>
       <use xlink:href="#DejaVuSans-65" x="470.300781"/>
       <use xlink:href="#DejaVuSans-63" x="531.824219"/>
       <use xlink:href="#DejaVuSans-68" x="586.804688"/>
      </g>
     </g>
    </g>
    <g id="xtick_3">
     <g id="line2d_3">
      <g>
       <use xlink:href="#m9c2b41a4f2" x="444" y="441" style="stroke: #000000; stroke-width: 0.8"/>
      </g>
     </g>
     <g id="text_3">
      <!-- Po 8 týdnech -->
      <g transform="translate(395.235937 459.997656)scale(0.15 -0.15)">
       <defs>
        <path id="DejaVuSans-38" d="M 2034 2216 
Q 1584 2216 1326 1975 
Q 1069 1734 1069 1313 
Q 1069 891 1326 650 
Q 1584 409 2034 409 
Q 2484 409 2743 651 
Q 3003 894 3003 1313 
Q 3003 1734 2745 1975 
Q 2488 2216 2034 2216 
z
M 1403 2484 
Q 997 2584 770 2862 
Q 544 3141 544 3541 
Q 544 4100 942 4425 
Q 1341 4750 2034 4750 
Q 2731 4750 3128 4425 
Q 3525 4100 3525 3541 
Q 3525 3141 3298 2862 
Q 3072 2584 2669 2484 
Q 3125 2378 3379 2068 
Q 3634 1759 3634 1313 
Q 3634 634 3220 271 
Q 2806 -91 2034 -91 
Q 1263 -91 848 271 
Q 434 634 434 1313 
Q 434 1759 690 2068 
Q 947 2378 1403 2484 
z
M 1172 3481 
Q 1172 3119 1398 2916 
Q 1625 2713 2034 2713 
Q 2441 2713 2670 2916 
Q 2900 3119 2900 3481 
Q 2900 3844 2670 4047 
Q 2441 4250 2034 4250 
Q 1625 4250 1398 4047 
Q 1172 3844 1172 3481 
z
" transform="scale(0.015625)"/>
       </defs>
       <use xlink:href="#DejaVuSans-50"/>
       <use xlink:href="#DejaVuSans-6f" x="56.677734"/>
       <use xlink:href="#DejaVuSans-20" x="117.859375"/>
       <use xlink:href="#DejaVuSans-38" x="149.646484"/>
       <use xlink:href="#DejaVuSans-20" x="213.269531"/>
       <use xlink:href="#DejaVuSans-74" x="245.056641"/>
       <use xlink:href="#DejaVuSans-fd" x="284.265625"/>
       <use xlink:href="#DejaVuSans-64" x="343.445312"/>
       <use xlink:href="#DejaVuSans-6e" x="406.921875"/>
       <use xlink:href="#DejaVuSans-65" x="470.300781"/>
       <use xlink:href="#DejaVuSans-63" x="531.824219"/>
       <use xlink:href="#DejaVuSans-68" x="586.804688"/>
      </g>
     </g>
    </g>
   </g>
   <g id="matplotlib.axis_2">
    <g id="ytick_1">
     <g id="line2d_4">
      <defs>
       <path id="mccbcc6a81e" d="M 0 0 
L -3.5 0 
" style="stroke: #000000; stroke-width: 0.8"/>
      </defs>
      <g>
       <use xlink:href="#mccbcc6a81e" x="72" y="428.428399" style="stroke: #000000; stroke-width: 0.8"/>
      </g>
     </g>
     <g id="text_4">
      <!-- 5 -->
      <g transform="translate(55.45625 434.127227)scale(0.15 -0.15)">
       <defs>
        <path id="DejaVuSans-35" d="M 691 4666 
L 3169 4666 
L 3169 4134 
L 1269 4134 
L 1269 2991 
Q 1406 3038 1543 3061 
Q 1681 3084 1819 3084 
Q 2600 3084 3056 2656 
Q 3513 2228 3513 1497 
Q 3513 744 3044 326 
Q 2575 -91 1722 -91 
Q 1428 -91 1123 -41 
Q 819 9 494 109 
L 494 744 
Q 775 591 1075 516 
Q 1375 441 1709 441 
Q 2250 441 2565 725 
Q 2881 1009 2881 1497 
Q 2881 1984 2565 2268 
Q 2250 2553 1709 2553 
Q 1456 2553 1204 2497 
Q 953 2441 691 2322 
L 691 4666 
z
" transform="scale(0.015625)"/>
       </defs>
       <use xlink:href="#DejaVuSans-35"/>
      </g>
     </g>
    </g>
    <g id="ytick_2">
     <g id="line2d_5">
      <g>
       <use xlink:href="#mccbcc6a81e" x="72" y="370.704894" style="stroke: #000000; stroke-width: 0.8"/>
      </g>
     </g>
     <g id="text_5">
      <!-- 10 -->
      <g transform="translate(45.9125 376.403722)scale(0.15 -0.15)">
       <defs>
        <path id="DejaVuSans-31" d="M 794 531 
L 1825 531 
L 1825 4091 
L 703 3866 
L 703 4441 
L 1819 4666 
L 2450 4666 
L 2450 531 
L 3481 531 
L 3481 0 
L 794 0 
L 794 531 
z
" transform="scale(0.015625)"/>
        <path id="DejaVuSans-30" d="M 2034 4250 
Q 1547 4250 1301 3770 
Q 1056 3291 1056 2328 
Q 1056 1369 1301 889 
Q 1547 409 2034 409 
Q 2525 409 2770 889 
Q 3016 1369 3016 2328 
Q 3016 3291 2770 3770 
Q 2525 4250 2034 4250 
z
M 2034 4750 
Q 2819 4750 3233 4129 
Q 3647 3509 3647 2328 
Q 3647 1150 3233 529 
Q 2819 -91 2034 -91 
Q 1250 -91 836 529 
Q 422 1150 422 2328 
Q 422 3509 836 4129 
Q 1250 4750 2034 4750 
z
" transform="scale(0.015625)"/>
       </defs>
       <use xlink:href="#DejaVuSans-31"/>
       <use xlink:href="#DejaVuSans-30" x="63.623047"/>
      </g>
     </g>
    </g>
    <g id="ytick_3">
     <g id="line2d_6">
      <g>
       <use xlink:href="#mccbcc6a81e" x="72" y="312.981389" style="stroke: #000000; stroke-width: 0.8"/>
      </g>
     </g>
     <g id="text_6">
      <!-- 15 -->
      <g transform="translate(45.9125 318.680217)scale(0.15 -0.15)">
       <use xlink:href="#DejaVuSans-31"/>
       <use xlink:href="#DejaVuSans-35" x="63.623047"/>
      </g>
     </g>
    </g>
    <g id="ytick_4">
     <g id="line2d_7">
      <g>
       <use xlink:href="#mccbcc6a81e" x="72" y="255.257884" style="stroke: #000000; stroke-width: 0.8"/>
      </g>
     </g>
     <g id="text_7">
      <!-- 20 -->
      <g transform="translate(45.9125 260.956712)scale(0.15 -0.15)">
       <use xlink:href="#DejaVuSans-32"/>
       <use xlink:href="#DejaVuSans-30" x="63.623047"/>
      </g>
     </g>
    </g>
    <g id="ytick_5">
     <g id="line2d_8">
      <g>
       <use xlink:href="#mccbcc6a81e" x="72" y="197.534379" style="stroke: #000000; stroke-width: 0.8"/>
      </g>
     </g>
     <g id="text_8">
      <!-- 25 -->
      <g transform="translate(45.9125 203.233207)scale(0.15 -0.15)">
       <use xlink:href="#DejaVuSans-32"/>
       <use xlink:href="#DejaVuSans-35" x="63.623047"/>
      </g>
     </g>
    </g>
    <g id="ytick_6">
     <g id="line2d_9">
      <g>
       <use xlink:href="#mccbcc6a81e" x="72" y="139.810874" style="stroke: #000000; stroke-width: 0.8"/>
      </g>
     </g>
     <g id="text_9">
      <!-- 30 -->
      <g transform="translate(45.9125 145.509702)scale(0.15 -0.15)">
       <defs>
        <path id="DejaVuSans-33" d="M 2597 2516 
Q 3050 2419 3304 2112 
Q 3559 1806 3559 1356 
Q 3559 666 3084 287 
Q 2609 -91 1734 -91 
Q 1441 -91 1130 -33 
Q 819 25 488 141 
L 488 750 
Q 750 597 1062 519 
Q 1375 441 1716 441 
Q 2309 441 2620 675 
Q 2931 909 2931 1356 
Q 2931 1769 2642 2001 
Q 2353 2234 1838 2234 
L 1294 2234 
L 1294 2753 
L 1863 2753 
Q 2328 2753 2575 2939 
Q 2822 3125 2822 3475 
Q 2822 3834 2567 4026 
Q 2313 4219 1838 4219 
Q 1578 4219 1281 4162 
Q 984 4106 628 3988 
L 628 4550 
Q 988 4650 1302 4700 
Q 1616 4750 1894 4750 
Q 2613 4750 3031 4423 
Q 3450 4097 3450 3541 
Q 3450 3153 3228 2886 
Q 3006 2619 2597 2516 
z
" transform="scale(0.015625)"/>
       </defs>
       <use xlink:href="#DejaVuSans-33"/>
       <use xlink:href="#DejaVuSans-30" x="63.623047"/>
      </g>
     </g>
    </g>
    <g id="ytick_7">
     <g id="line2d_10">
      <g>
       <use xlink:href="#mccbcc6a81e" x="72" y="82.087369" style="stroke: #000000; stroke-width: 0.8"/>
      </g>
     </g>
     <g id="text_10">
      <!-- 35 -->
      <g transform="translate(45.9125 87.786197)scale(0.15 -0.15)">
       <use xlink:href="#DejaVuSans-33"/>
       <use xlink:href="#DejaVuSans-35" x="63.623047"/>
      </g>
     </g>
    </g>
   </g>
   <g id="line2d_11">
    <path d="M 124.08 278.347286 
L 168.72 278.347286 
L 168.72 251.983225 
L 157.56 232.168482 
L 168.72 212.353739 
L 168.72 197.534379 
L 124.08 197.534379 
L 124.08 212.353739 
L 135.24 232.168482 
L 124.08 251.983225 
L 124.08 278.347286 
" clip-path="url(#pb0507f7081)" style="fill: none; stroke: #000000; stroke-linecap: square"/>
   </g>
   <g id="line2d_12">
    <path d="M 146.4 278.347286 
L 146.4 336.070791 
" clip-path="url(#pb0507f7081)" style="fill: none; stroke: #000000; stroke-linecap: square"/>
   </g>
   <g id="line2d_13">
    <path d="M 146.4 197.534379 
L 146.4 151.355575 
" clip-path="url(#pb0507f7081)" style="fill: none; stroke: #000000; stroke-linecap: square"/>
   </g>
   <g id="line2d_14">
    <path d="M 135.24 336.070791 
L 157.56 336.070791 
" clip-path="url(#pb0507f7081)" style="fill: none; stroke: #000000; stroke-linecap: square"/>
   </g>
   <g id="line2d_15">
    <path d="M 135.24 151.355575 
L 157.56 151.355575 
" clip-path="url(#pb0507f7081)" style="fill: none; stroke: #000000; stroke-linecap: square"/>
   </g>
   <g id="line2d_16"/>
   <g id="line2d_17">
    <path d="M 272.88 289.891987 
L 317.52 289.891987 
L 317.52 292.500674 
L 306.36 278.347286 
L 317.52 264.193898 
L 317.52 232.168482 
L 272.88 232.168482 
L 272.88 264.193898 
L 284.04 278.347286 
L 272.88 292.500674 
L 272.88 289.891987 
" clip-path="url(#pb0507f7081)" style="fill: none; stroke: #000000; stroke-linecap: square"/>
   </g>
   <g id="line2d_18">
    <path d="M 295.2 289.891987 
L 295.2 324.52609 
" clip-path="url(#pb0507f7081)" style="fill: none; stroke: #000000; stroke-linecap: square"/>
   </g>
   <g id="line2d_19">
    <path d="M 295.2 232.168482 
L 295.2 151.355575 
" clip-path="url(#pb0507f7081)" style="fill: none; stroke: #000000; stroke-linecap: square"/>
   </g>
   <g id="line2d_20">
    <path d="M 284.04 324.52609 
L 306.36 324.52609 
" clip-path="url(#pb0507f7081)" style="fill: none; stroke: #000000; stroke-linecap: square"/>
   </g>
   <g id="line2d_21">
    <path d="M 284.04 151.355575 
L 306.36 151.355575 
" clip-path="url(#pb0507f7081)" style="fill: none; stroke: #000000; stroke-linecap: square"/>
   </g>
   <g id="line2d_22"/>
   <g id="line2d_23">
    <path d="M 421.68 312.981389 
L 466.32 312.981389 
L 466.32 301.214697 
L 455.16 289.891987 
L 466.32 278.569276 
L 466.32 266.802585 
L 421.68 266.802585 
L 421.68 278.569276 
L 432.84 289.891987 
L 421.68 301.214697 
L 421.68 312.981389 
" clip-path="url(#pb0507f7081)" style="fill: none; stroke: #000000; stroke-linecap: square"/>
   </g>
   <g id="line2d_24">
    <path d="M 444 312.981389 
L 444 359.160193 
" clip-path="url(#pb0507f7081)" style="fill: none; stroke: #000000; stroke-linecap: square"/>
   </g>
   <g id="line2d_25">
    <path d="M 444 266.802585 
L 444 197.534379 
" clip-path="url(#pb0507f7081)" style="fill: none; stroke: #000000; stroke-linecap: square"/>
   </g>
   <g id="line2d_26">
    <path d="M 432.84 359.160193 
L 455.16 359.160193 
" clip-path="url(#pb0507f7081)" style="fill: none; stroke: #000000; stroke-linecap: square"/>
   </g>
   <g id="line2d_27">
    <path d="M 432.84 197.534379 
L 455.16 197.534379 
" clip-path="url(#pb0507f7081)" style="fill: none; stroke: #000000; stroke-linecap: square"/>
   </g>
   <g id="line2d_28">
    <defs>
     <path id="m4398cab839" d="M 0 3 
C 0.795609 3 1.55874 2.683901 2.12132 2.12132 
C 2.683901 1.55874 3 0.795609 3 0 
C 3 -0.795609 2.683901 -1.55874 2.12132 -2.12132 
C 1.55874 -2.683901 0.795609 -3 0 -3 
C -0.795609 -3 -1.55874 -2.683901 -2.12132 -2.12132 
C -2.683901 -1.55874 -3 -0.795609 -3 0 
C -3 0.795609 -2.683901 1.55874 -2.12132 2.12132 
C -1.55874 2.683901 -0.795609 3 0 3 
z
" style="stroke: #000000"/>
    </defs>
    <g clip-path="url(#pb0507f7081)">
     <use xlink:href="#m4398cab839" x="444" y="185.989678" style="fill-opacity: 0; stroke: #000000"/>
    </g>
   </g>
   <g id="line2d_29">
    <path d="M 135.24 232.168482 
L 157.56 232.168482 
" clip-path="url(#pb0507f7081)" style="fill: none; stroke: #ff7f0e; stroke-linecap: square"/>
   </g>
   <g id="line2d_30">
    <path d="M 284.04 278.347286 
L 306.36 278.347286 
" clip-path="url(#pb0507f7081)" style="fill: none; stroke: #ff7f0e; stroke-linecap: square"/>
   </g>
   <g id="line2d_31">
    <path d="M 432.84 289.891987 
L 455.16 289.891987 
" clip-path="url(#pb0507f7081)" style="fill: none; stroke: #ff7f0e; stroke-linecap: square"/>
   </g>
   <g id="patch_3">
    <path d="M 72 441 
L 72 60.48 
" style="fill: none; stroke: #000000; stroke-width: 0.8; stroke-linejoin: miter; stroke-linecap: square"/>
   </g>
   <g id="patch_4">
    <path d="M 518.4 441 
L 518.4 60.48 
" style="fill: none; stroke: #000000; stroke-width: 0.8; stroke-linejoin: miter; stroke-linecap: square"/>
   </g>
   <g id="patch_5">
    <path d="M 72 441 
L 518.4 441 
" style="fill: none; stroke: #000000; stroke-width: 0.8; stroke-linejoin: miter; stroke-linecap: square"/>
   </g>
   <g id="patch_6">
    <path d="M 72 60.48 
L 518.4 60.48 
" style="fill: none; stroke: #000000; stroke-width: 0.8; stroke-linejoin: miter; stroke-linecap: square"/>
   </g>
   <g id="text_11">
    <!-- IOP -->
    <g transform="translate(278.348437 54.48)scale(0.2 -0.2)">
     <defs>
      <path id="DejaVuSans-49" d="M 628 4666 
L 1259 4666 
L 1259 0 
L 628 0 
L 628 4666 
z
" transform="scale(0.015625)"/>
      <path id="DejaVuSans-4f" d="M 2522 4238 
Q 1834 4238 1429 3725 
Q 1025 3213 1025 2328 
Q 1025 1447 1429 934 
Q 1834 422 2522 422 
Q 3209 422 3611 934 
Q 4013 1447 4013 2328 
Q 4013 3213 3611 3725 
Q 3209 4238 2522 4238 
z
M 2522 4750 
Q 3503 4750 4090 4092 
Q 4678 3434 4678 2328 
Q 4678 1225 4090 567 
Q 3503 -91 2522 -91 
Q 1538 -91 948 565 
Q 359 1222 359 2328 
Q 359 3434 948 4092 
Q 1538 4750 2522 4750 
z
" transform="scale(0.015625)"/>
     </defs>
     <use xlink:href="#DejaVuSans-49"/>
     <use xlink:href="#DejaVuSans-4f" x="29.492188"/>
     <use xlink:href="#DejaVuSans-50" x="108.203125"/>
    </g>
   </g>
  </g>
 </g>
 <defs>
  <clipPath id="pb0507f7081">
   <rect x="72" y="60.48" width="446.4" height="380.52"/>
  </clipPath>
 </defs>
</svg>
