<?xml version="1.0" encoding="utf-8" standalone="no"?>
<!DOCTYPE svg PUBLIC "-//W3C//DTD SVG 1.1//EN"
  "http://www.w3.org/Graphics/SVG/1.1/DTD/svg11.dtd">
<svg xmlns:xlink="http://www.w3.org/1999/xlink" width="576pt" height="504pt" viewBox="0 0 576 504" xmlns="http://www.w3.org/2000/svg" version="1.1">
 <metadata>
  <rdf:RDF xmlns:dc="http://purl.org/dc/elements/1.1/" xmlns:cc="http://creativecommons.org/ns#" xmlns:rdf="http://www.w3.org/1999/02/22-rdf-syntax-ns#">
   <cc:Work>
    <dc:type rdf:resource="http://purl.org/dc/dcmitype/StillImage"/>
    <dc:date>2023-06-23T21:32:18.106812</dc:date>
    <dc:format>image/svg+xml</dc:format>
    <dc:creator>
     <cc:Agent>
      <dc:title>Matplotlib v3.5.1, https://matplotlib.org/</dc:title>
     </cc:Agent>
    </dc:creator>
   </cc:Work>
  </rdf:RDF>
 </metadata>
 <defs>
  <style type="text/css">*{stroke-linejoin: round; stroke-linecap: butt}</style>
 </defs>
 <g id="figure_1">
  <g id="patch_1">
   <path d="M 0 504 
L 576 504 
L 576 0 
L 0 0 
L 0 504 
z
" style="fill: none"/>
  </g>
  <g id="axes_1">
   <g id="patch_2">
    <path d="M 72 441 
L 518.4 441 
L 518.4 60.48 
L 72 60.48 
z
" style="fill: #ffffff"/>
   </g>
   <g id="PolyCollection_1">
    <defs>
     <path id="m318184dcee" d="M 146.419976 -107.409804 
L 146.380024 -107.409804 
L 146.363644 -110.630146 
L 146.335848 -113.850488 
L 146.2902 -117.07083 
L 146.217629 -120.291171 
L 146.105904 -123.511513 
L 145.939287 -126.731855 
L 145.698506 -129.952197 
L 145.361206 -133.172538 
L 144.902996 -136.39288 
L 144.299115 -139.613222 
L 143.526634 -142.833564 
L 142.566954 -146.053905 
L 141.408208 -149.274247 
L 140.0471 -152.494589 
L 138.489741 -155.714931 
L 136.75114 -158.935272 
L 134.853343 -162.155614 
L 132.822501 -165.375956 
L 130.685514 -168.596297 
L 128.467084 -171.816639 
L 126.187998 -175.036981 
L 123.865167 -178.257323 
L 121.513472 -181.477664 
L 119.1489 -184.698006 
L 116.792047 -187.918348 
L 114.470874 -191.13869 
L 112.221796 -194.359031 
L 110.088617 -197.579373 
L 108.119421 -200.799715 
L 106.361992 -204.020057 
L 104.858661 -207.240398 
L 103.641496 -210.46074 
L 102.728612 -213.681082 
L 102.122165 -216.901424 
L 101.808407 -220.121765 
L 101.76 -223.342107 
L 101.940631 -226.562449 
L 102.311612 -229.78279 
L 102.839706 -233.003132 
L 103.50485 -236.223474 
L 104.306056 -239.443816 
L 105.263722 -242.664157 
L 106.417103 -245.884499 
L 107.816717 -249.104841 
L 109.512777 -252.325183 
L 111.541932 -255.545524 
L 113.915271 -258.765866 
L 116.610455 -261.986208 
L 119.569898 -265.20655 
L 122.705498 -268.426891 
L 125.908839 -271.647233 
L 129.064592 -274.867575 
L 132.064302 -278.087916 
L 134.817955 -281.308258 
L 137.261549 -284.5286 
L 139.359973 -287.748942 
L 141.105588 -290.969283 
L 142.51361 -294.189625 
L 143.615752 -297.409967 
L 144.453499 -300.630309 
L 145.072063 -303.85065 
L 145.515632 -307.070992 
L 145.824119 -310.291334 
L 146.031297 -313.511676 
L 146.164059 -316.732017 
L 146.242466 -319.952359 
L 146.28029 -323.172701 
L 146.285817 -326.393043 
L 146.26281 -329.613384 
L 146.211565 -332.833726 
L 146.130096 -336.054068 
L 146.015469 -339.274409 
L 145.86528 -342.494751 
L 145.6792 -345.715093 
L 145.460383 -348.935435 
L 145.216496 -352.155776 
L 144.960061 -355.376118 
L 144.707885 -358.59646 
L 144.479514 -361.816802 
L 144.29485 -365.037143 
L 144.171342 -368.257485 
L 144.121277 -371.477827 
L 144.149769 -374.698169 
L 144.253899 -377.91851 
L 144.423209 -381.138852 
L 144.641434 -384.359194 
L 144.889072 -387.579536 
L 145.146234 -390.799877 
L 145.395207 -394.020219 
L 145.622278 -397.240561 
L 145.818621 -400.460902 
L 145.980259 -403.681244 
L 146.107321 -406.901586 
L 146.202899 -410.121928 
L 146.271804 -413.342269 
L 146.319472 -416.562611 
L 146.351145 -419.782953 
L 146.371375 -423.003295 
L 146.383801 -426.223636 
L 146.416199 -426.223636 
L 146.416199 -426.223636 
L 146.428625 -423.003295 
L 146.448855 -419.782953 
L 146.480528 -416.562611 
L 146.528196 -413.342269 
L 146.597101 -410.121928 
L 146.692679 -406.901586 
L 146.819741 -403.681244 
L 146.981379 -400.460902 
L 147.177722 -397.240561 
L 147.404793 -394.020219 
L 147.653766 -390.799877 
L 147.910928 -387.579536 
L 148.158566 -384.359194 
L 148.376791 -381.138852 
L 148.546101 -377.91851 
L 148.650231 -374.698169 
L 148.678723 -371.477827 
L 148.628658 -368.257485 
L 148.50515 -365.037143 
L 148.320486 -361.816802 
L 148.092115 -358.59646 
L 147.839939 -355.376118 
L 147.583504 -352.155776 
L 147.339617 -348.935435 
L 147.1208 -345.715093 
L 146.93472 -342.494751 
L 146.784531 -339.274409 
L 146.669904 -336.054068 
L 146.588435 -332.833726 
L 146.53719 -329.613384 
L 146.514183 -326.393043 
L 146.51971 -323.172701 
L 146.557534 -319.952359 
L 146.635941 -316.732017 
L 146.768703 -313.511676 
L 146.975881 -310.291334 
L 147.284368 -307.070992 
L 147.727937 -303.85065 
L 148.346501 -300.630309 
L 149.184248 -297.409967 
L 150.28639 -294.189625 
L 151.694412 -290.969283 
L 153.440027 -287.748942 
L 155.538451 -284.5286 
L 157.982045 -281.308258 
L 160.735698 -278.087916 
L 163.735408 -274.867575 
L 166.891161 -271.647233 
L 170.094502 -268.426891 
L 173.230102 -265.20655 
L 176.189545 -261.986208 
L 178.884729 -258.765866 
L 181.258068 -255.545524 
L 183.287223 -252.325183 
L 184.983283 -249.104841 
L 186.382897 -245.884499 
L 187.536278 -242.664157 
L 188.493944 -239.443816 
L 189.29515 -236.223474 
L 189.960294 -233.003132 
L 190.488388 -229.78279 
L 190.859369 -226.562449 
L 191.04 -223.342107 
L 190.991593 -220.121765 
L 190.677835 -216.901424 
L 190.071388 -213.681082 
L 189.158504 -210.46074 
L 187.941339 -207.240398 
L 186.438008 -204.020057 
L 184.680579 -200.799715 
L 182.711383 -197.579373 
L 180.578204 -194.359031 
L 178.329126 -191.13869 
L 176.007953 -187.918348 
L 173.6511 -184.698006 
L 171.286528 -181.477664 
L 168.934833 -178.257323 
L 166.612002 -175.036981 
L 164.332916 -171.816639 
L 162.114486 -168.596297 
L 159.977499 -165.375956 
L 157.946657 -162.155614 
L 156.04886 -158.935272 
L 154.310259 -155.714931 
L 152.7529 -152.494589 
L 151.391792 -149.274247 
L 150.233046 -146.053905 
L 149.273366 -142.833564 
L 148.500885 -139.613222 
L 147.897004 -136.39288 
L 147.438794 -133.172538 
L 147.101494 -129.952197 
L 146.860713 -126.731855 
L 146.694096 -123.511513 
L 146.582371 -120.291171 
L 146.5098 -117.07083 
L 146.464152 -113.850488 
L 146.436356 -110.630146 
L 146.419976 -107.409804 
z
" style="stroke: #000000; stroke-opacity: 0.5"/>
    </defs>
    <g clip-path="url(#p5dbc33069b)">
     <use xlink:href="#m318184dcee" x="0" y="504" style="fill: #8bc191; fill-opacity: 0.5; stroke: #000000; stroke-opacity: 0.5"/>
    </g>
   </g>
   <g id="PolyCollection_2">
    <defs>
     <path id="mac968d2559" d="M 295.236723 -85.733868 
L 295.163277 -85.733868 
L 295.137613 -88.955259 
L 295.09698 -92.17665 
L 295.034631 -95.39804 
L 294.941918 -98.619431 
L 294.808355 -101.840822 
L 294.621978 -105.062212 
L 294.370119 -108.283603 
L 294.040586 -111.504994 
L 293.623193 -114.726384 
L 293.111413 -117.947775 
L 292.503879 -121.169166 
L 291.805291 -124.390556 
L 291.026368 -127.611947 
L 290.182524 -130.833338 
L 289.291212 -134.054728 
L 288.368133 -137.276119 
L 287.422877 -140.49751 
L 286.45479 -143.7189 
L 285.45001 -146.940291 
L 284.380539 -150.161682 
L 283.205924 -153.383072 
L 281.877693 -156.604463 
L 280.346153 -159.825854 
L 278.568653 -163.047244 
L 276.518082 -166.268635 
L 274.190232 -169.490026 
L 271.608759 -172.711416 
L 268.826824 -175.932807 
L 265.924966 -179.154198 
L 263.005313 -182.375589 
L 260.182732 -185.596979 
L 257.573967 -188.81837 
L 255.286042 -192.039761 
L 253.405364 -195.261151 
L 251.98886 -198.482542 
L 251.058282 -201.703933 
L 250.598488 -204.925323 
L 250.56 -208.146714 
L 250.865647 -211.368105 
L 251.420534 -214.589495 
L 252.124092 -217.810886 
L 252.882582 -221.032277 
L 253.62032 -224.253667 
L 254.287985 -227.475058 
L 254.866841 -230.696449 
L 255.368334 -233.917839 
L 255.82936 -237.13923 
L 256.304233 -240.360621 
L 256.854966 -243.582011 
L 257.54163 -246.803402 
L 258.414424 -250.024793 
L 259.50849 -253.246183 
L 260.84182 -256.467574 
L 262.41585 -259.688965 
L 264.217846 -262.910355 
L 266.223988 -266.131746 
L 268.402222 -269.353137 
L 270.714334 -272.574527 
L 273.117233 -275.795918 
L 275.563774 -279.017309 
L 278.003679 -282.2387 
L 280.385037 -285.46009 
L 282.656575 -288.681481 
L 284.770589 -291.902872 
L 286.686096 -295.124262 
L 288.371634 -298.345653 
L 289.807203 -301.567044 
L 290.985027 -304.788434 
L 291.9091 -308.009825 
L 292.593743 -311.231216 
L 293.061557 -314.452606 
L 293.341178 -317.673997 
L 293.465168 -320.895388 
L 293.468186 -324.116778 
L 293.38545 -327.338169 
L 293.251366 -330.55956 
L 293.098196 -333.78095 
L 292.954685 -337.002341 
L 292.844676 -340.223732 
L 292.785865 -343.445122 
L 292.788902 -346.666513 
L 292.857077 -349.887904 
L 292.986709 -353.109294 
L 293.168269 -356.330685 
L 293.38808 -359.552076 
L 293.630352 -362.773466 
L 293.879232 -365.994857 
L 294.120567 -369.216248 
L 294.343157 -372.437639 
L 294.539399 -375.659029 
L 294.705341 -378.88042 
L 294.84025 -382.101811 
L 294.945889 -385.323201 
L 295.025669 -388.544592 
L 295.083842 -391.765983 
L 295.124829 -394.987373 
L 295.152752 -398.208764 
L 295.171157 -401.430155 
L 295.182899 -404.651545 
L 295.217101 -404.651545 
L 295.217101 -404.651545 
L 295.228843 -401.430155 
L 295.247248 -398.208764 
L 295.275171 -394.987373 
L 295.316158 -391.765983 
L 295.374331 -388.544592 
L 295.454111 -385.323201 
L 295.55975 -382.101811 
L 295.694659 -378.88042 
L 295.860601 -375.659029 
L 296.056843 -372.437639 
L 296.279433 -369.216248 
L 296.520768 -365.994857 
L 296.769648 -362.773466 
L 297.01192 -359.552076 
L 297.231731 -356.330685 
L 297.413291 -353.109294 
L 297.542923 -349.887904 
L 297.611098 -346.666513 
L 297.614135 -343.445122 
L 297.555324 -340.223732 
L 297.445315 -337.002341 
L 297.301804 -333.78095 
L 297.148634 -330.55956 
L 297.01455 -327.338169 
L 296.931814 -324.116778 
L 296.934832 -320.895388 
L 297.058822 -317.673997 
L 297.338443 -314.452606 
L 297.806257 -311.231216 
L 298.4909 -308.009825 
L 299.414973 -304.788434 
L 300.592797 -301.567044 
L 302.028366 -298.345653 
L 303.713904 -295.124262 
L 305.629411 -291.902872 
L 307.743425 -288.681481 
L 310.014963 -285.46009 
L 312.396321 -282.2387 
L 314.836226 -279.017309 
L 317.282767 -275.795918 
L 319.685666 -272.574527 
L 321.997778 -269.353137 
L 324.176012 -266.131746 
L 326.182154 -262.910355 
L 327.98415 -259.688965 
L 329.55818 -256.467574 
L 330.89151 -253.246183 
L 331.985576 -250.024793 
L 332.85837 -246.803402 
L 333.545034 -243.582011 
L 334.095767 -240.360621 
L 334.57064 -237.13923 
L 335.031666 -233.917839 
L 335.533159 -230.696449 
L 336.112015 -227.475058 
L 336.77968 -224.253667 
L 337.517418 -221.032277 
L 338.275908 -217.810886 
L 338.979466 -214.589495 
L 339.534353 -211.368105 
L 339.84 -208.146714 
L 339.801512 -204.925323 
L 339.341718 -201.703933 
L 338.41114 -198.482542 
L 336.994636 -195.261151 
L 335.113958 -192.039761 
L 332.826033 -188.81837 
L 330.217268 -185.596979 
L 327.394687 -182.375589 
L 324.475034 -179.154198 
L 321.573176 -175.932807 
L 318.791241 -172.711416 
L 316.209768 -169.490026 
L 313.881918 -166.268635 
L 311.831347 -163.047244 
L 310.053847 -159.825854 
L 308.522307 -156.604463 
L 307.194076 -153.383072 
L 306.019461 -150.161682 
L 304.94999 -146.940291 
L 303.94521 -143.7189 
L 302.977123 -140.49751 
L 302.031867 -137.276119 
L 301.108788 -134.054728 
L 300.217476 -130.833338 
L 299.373632 -127.611947 
L 298.594709 -124.390556 
L 297.896121 -121.169166 
L 297.288587 -117.947775 
L 296.776807 -114.726384 
L 296.359414 -111.504994 
L 296.029881 -108.283603 
L 295.778022 -105.062212 
L 295.591645 -101.840822 
L 295.458082 -98.619431 
L 295.365369 -95.39804 
L 295.30302 -92.17665 
L 295.262387 -88.955259 
L 295.236723 -85.733868 
z
" style="stroke: #000000; stroke-opacity: 0.5"/>
    </defs>
    <g clip-path="url(#p5dbc33069b)">
     <use xlink:href="#mac968d2559" x="0" y="504" style="fill: #8bc191; fill-opacity: 0.5; stroke: #000000; stroke-opacity: 0.5"/>
    </g>
   </g>
   <g id="PolyCollection_3">
    <defs>
     <path id="madc0023d0e" d="M 444.029288 -80.296364 
L 443.970712 -80.296364 
L 443.953943 -82.929361 
L 443.929015 -85.562358 
L 443.892763 -88.195356 
L 443.841189 -90.828353 
L 443.769418 -93.461351 
L 443.671714 -96.094348 
L 443.541601 -98.727345 
L 443.372075 -101.360343 
L 443.15594 -103.99334 
L 442.886221 -106.626337 
L 442.556631 -109.259335 
L 442.162018 -111.892332 
L 441.698717 -114.52533 
L 441.164723 -117.158327 
L 440.559623 -119.791324 
L 439.884239 -122.424322 
L 439.140024 -125.057319 
L 438.328255 -127.690317 
L 437.449187 -130.323314 
L 436.501319 -132.956311 
L 435.480952 -135.589309 
L 434.382202 -138.222306 
L 433.197522 -140.855303 
L 431.918737 -143.488301 
L 430.538448 -146.121298 
L 429.051583 -148.754296 
L 427.456846 -151.387293 
L 425.757761 -154.02029 
L 423.96314 -156.653288 
L 422.086882 -159.286285 
L 420.147157 -161.919282 
L 418.165177 -164.55228 
L 416.163852 -167.185277 
L 414.166634 -169.818275 
L 412.196805 -172.451272 
L 410.277351 -175.084269 
L 408.431361 -177.717267 
L 406.682763 -180.350264 
L 405.057031 -182.983262 
L 403.581506 -185.616259 
L 402.284975 -188.249256 
L 401.196327 -190.882254 
L 400.342297 -193.515251 
L 399.744529 -196.148248 
L 399.416379 -198.781246 
L 399.36 -201.414243 
L 399.564247 -204.047241 
L 400.003849 -206.680238 
L 400.640118 -209.313235 
L 401.4232 -211.946233 
L 402.295681 -214.57923 
L 403.197112 -217.212227 
L 404.068923 -219.845225 
L 404.85916 -222.478222 
L 405.526508 -225.11122 
L 406.043231 -227.744217 
L 406.396791 -230.377214 
L 406.590106 -233.010212 
L 406.64057 -235.643209 
L 406.578071 -238.276207 
L 406.442311 -240.909204 
L 406.279742 -243.542201 
L 406.140416 -246.175199 
L 406.074954 -248.808196 
L 406.131799 -251.441193 
L 406.354805 -254.074191 
L 406.781215 -256.707188 
L 407.439995 -259.340186 
L 408.350533 -261.973183 
L 409.521699 -264.60618 
L 410.951311 -267.239178 
L 412.626053 -269.872175 
L 414.521904 -272.505173 
L 416.605143 -275.13817 
L 418.83391 -277.771167 
L 421.160316 -280.404165 
L 423.532952 -283.037162 
L 425.899666 -285.670159 
L 428.210362 -288.303157 
L 430.419606 -290.936154 
L 432.488817 -293.569152 
L 434.387867 -296.202149 
L 436.095968 -298.835146 
L 437.601845 -301.468144 
L 438.903205 -304.101141 
L 440.005658 -306.734138 
L 440.921224 -309.367136 
L 441.666628 -312.000133 
L 442.261561 -314.633131 
L 442.727058 -317.266128 
L 443.08411 -319.899125 
L 443.352587 -322.532123 
L 443.550482 -325.16512 
L 443.693472 -327.798118 
L 443.794749 -330.431115 
L 443.865063 -333.064112 
L 443.912914 -335.69711 
L 443.944831 -338.330107 
L 443.965699 -340.963104 
L 444.034301 -340.963104 
L 444.034301 -340.963104 
L 444.055169 -338.330107 
L 444.087086 -335.69711 
L 444.134937 -333.064112 
L 444.205251 -330.431115 
L 444.306528 -327.798118 
L 444.449518 -325.16512 
L 444.647413 -322.532123 
L 444.91589 -319.899125 
L 445.272942 -317.266128 
L 445.738439 -314.633131 
L 446.333372 -312.000133 
L 447.078776 -309.367136 
L 447.994342 -306.734138 
L 449.096795 -304.101141 
L 450.398155 -301.468144 
L 451.904032 -298.835146 
L 453.612133 -296.202149 
L 455.511183 -293.569152 
L 457.580394 -290.936154 
L 459.789638 -288.303157 
L 462.100334 -285.670159 
L 464.467048 -283.037162 
L 466.839684 -280.404165 
L 469.16609 -277.771167 
L 471.394857 -275.13817 
L 473.478096 -272.505173 
L 475.373947 -269.872175 
L 477.048689 -267.239178 
L 478.478301 -264.60618 
L 479.649467 -261.973183 
L 480.560005 -259.340186 
L 481.218785 -256.707188 
L 481.645195 -254.074191 
L 481.868201 -251.441193 
L 481.925046 -248.808196 
L 481.859584 -246.175199 
L 481.720258 -243.542201 
L 481.557689 -240.909204 
L 481.421929 -238.276207 
L 481.35943 -235.643209 
L 481.409894 -233.010212 
L 481.603209 -230.377214 
L 481.956769 -227.744217 
L 482.473492 -225.11122 
L 483.14084 -222.478222 
L 483.931077 -219.845225 
L 484.802888 -217.212227 
L 485.704319 -214.57923 
L 486.5768 -211.946233 
L 487.359882 -209.313235 
L 487.996151 -206.680238 
L 488.435753 -204.047241 
L 488.64 -201.414243 
L 488.583621 -198.781246 
L 488.255471 -196.148248 
L 487.657703 -193.515251 
L 486.803673 -190.882254 
L 485.715025 -188.249256 
L 484.418494 -185.616259 
L 482.942969 -182.983262 
L 481.317237 -180.350264 
L 479.568639 -177.717267 
L 477.722649 -175.084269 
L 475.803195 -172.451272 
L 473.833366 -169.818275 
L 471.836148 -167.185277 
L 469.834823 -164.55228 
L 467.852843 -161.919282 
L 465.913118 -159.286285 
L 464.03686 -156.653288 
L 462.242239 -154.02029 
L 460.543154 -151.387293 
L 458.948417 -148.754296 
L 457.461552 -146.121298 
L 456.081263 -143.488301 
L 454.802478 -140.855303 
L 453.617798 -138.222306 
L 452.519048 -135.589309 
L 451.498681 -132.956311 
L 450.550813 -130.323314 
L 449.671745 -127.690317 
L 448.859976 -125.057319 
L 448.115761 -122.424322 
L 447.440377 -119.791324 
L 446.835277 -117.158327 
L 446.301283 -114.52533 
L 445.837982 -111.892332 
L 445.443369 -109.259335 
L 445.113779 -106.626337 
L 444.84406 -103.99334 
L 444.627925 -101.360343 
L 444.458399 -98.727345 
L 444.328286 -96.094348 
L 444.230582 -93.461351 
L 444.158811 -90.828353 
L 444.107237 -88.195356 
L 444.070985 -85.562358 
L 444.046057 -82.929361 
L 444.029288 -80.296364 
z
" style="stroke: #000000; stroke-opacity: 0.5"/>
    </defs>
    <g clip-path="url(#p5dbc33069b)">
     <use xlink:href="#madc0023d0e" x="0" y="504" style="fill: #8bc191; fill-opacity: 0.5; stroke: #000000; stroke-opacity: 0.5"/>
    </g>
   </g>
   <g id="matplotlib.axis_1">
    <g id="xtick_1">
     <g id="line2d_1">
      <defs>
       <path id="m012ed2a9c2" d="M 0 0 
L 0 3.5 
" style="stroke: #000000; stroke-width: 0.8"/>
      </defs>
      <g>
       <use xlink:href="#m012ed2a9c2" x="146.4" y="441" style="stroke: #000000; stroke-width: 0.8"/>
      </g>
     </g>
     <g id="text_1">
      <!-- Před -->
      <g transform="translate(129.718359 459.397656)scale(0.15 -0.15)">
       <defs>
        <path id="DejaVuSans-50" d="M 1259 4147 
L 1259 2394 
L 2053 2394 
Q 2494 2394 2734 2622 
Q 2975 2850 2975 3272 
Q 2975 3691 2734 3919 
Q 2494 4147 2053 4147 
L 1259 4147 
z
M 628 4666 
L 2053 4666 
Q 2838 4666 3239 4311 
Q 3641 3956 3641 3272 
Q 3641 2581 3239 2228 
Q 2838 1875 2053 1875 
L 1259 1875 
L 1259 0 
L 628 0 
L 628 4666 
z
" transform="scale(0.015625)"/>
        <path id="DejaVuSans-159" d="M 2631 2963 
Q 2534 3019 2420 3045 
Q 2306 3072 2169 3072 
Q 1681 3072 1420 2755 
Q 1159 2438 1159 1844 
L 1159 0 
L 581 0 
L 581 3500 
L 1159 3500 
L 1159 2956 
Q 1341 3275 1631 3429 
Q 1922 3584 2338 3584 
Q 2397 3584 2469 3576 
Q 2541 3569 2628 3553 
L 2631 2963 
z
M 1457 3944 
L 691 5119 
L 1126 5119 
L 1688 4353 
L 2251 5119 
L 2685 5119 
L 1919 3944 
L 1457 3944 
z
" transform="scale(0.015625)"/>
        <path id="DejaVuSans-65" d="M 3597 1894 
L 3597 1613 
L 953 1613 
Q 991 1019 1311 708 
Q 1631 397 2203 397 
Q 2534 397 2845 478 
Q 3156 559 3463 722 
L 3463 178 
Q 3153 47 2828 -22 
Q 2503 -91 2169 -91 
Q 1331 -91 842 396 
Q 353 884 353 1716 
Q 353 2575 817 3079 
Q 1281 3584 2069 3584 
Q 2775 3584 3186 3129 
Q 3597 2675 3597 1894 
z
M 3022 2063 
Q 3016 2534 2758 2815 
Q 2500 3097 2075 3097 
Q 1594 3097 1305 2825 
Q 1016 2553 972 2059 
L 3022 2063 
z
" transform="scale(0.015625)"/>
        <path id="DejaVuSans-64" d="M 2906 2969 
L 2906 4863 
L 3481 4863 
L 3481 0 
L 2906 0 
L 2906 525 
Q 2725 213 2448 61 
Q 2172 -91 1784 -91 
Q 1150 -91 751 415 
Q 353 922 353 1747 
Q 353 2572 751 3078 
Q 1150 3584 1784 3584 
Q 2172 3584 2448 3432 
Q 2725 3281 2906 2969 
z
M 947 1747 
Q 947 1113 1208 752 
Q 1469 391 1925 391 
Q 2381 391 2643 752 
Q 2906 1113 2906 1747 
Q 2906 2381 2643 2742 
Q 2381 3103 1925 3103 
Q 1469 3103 1208 2742 
Q 947 2381 947 1747 
z
" transform="scale(0.015625)"/>
       </defs>
       <use xlink:href="#DejaVuSans-50"/>
       <use xlink:href="#DejaVuSans-159" x="58.552734"/>
       <use xlink:href="#DejaVuSans-65" x="97.416016"/>
       <use xlink:href="#DejaVuSans-64" x="158.939453"/>
      </g>
     </g>
    </g>
    <g id="xtick_2">
     <g id="line2d_2">
      <g>
       <use xlink:href="#m012ed2a9c2" x="295.2" y="441" style="stroke: #000000; stroke-width: 0.8"/>
      </g>
     </g>
     <g id="text_2">
      <!-- Po 2 týdnech -->
      <g transform="translate(246.435937 459.997656)scale(0.15 -0.15)">
       <defs>
        <path id="DejaVuSans-6f" d="M 1959 3097 
Q 1497 3097 1228 2736 
Q 959 2375 959 1747 
Q 959 1119 1226 758 
Q 1494 397 1959 397 
Q 2419 397 2687 759 
Q 2956 1122 2956 1747 
Q 2956 2369 2687 2733 
Q 2419 3097 1959 3097 
z
M 1959 3584 
Q 2709 3584 3137 3096 
Q 3566 2609 3566 1747 
Q 3566 888 3137 398 
Q 2709 -91 1959 -91 
Q 1206 -91 779 398 
Q 353 888 353 1747 
Q 353 2609 779 3096 
Q 1206 3584 1959 3584 
z
" transform="scale(0.015625)"/>
        <path id="DejaVuSans-20" transform="scale(0.015625)"/>
        <path id="DejaVuSans-32" d="M 1228 531 
L 3431 531 
L 3431 0 
L 469 0 
L 469 531 
Q 828 903 1448 1529 
Q 2069 2156 2228 2338 
Q 2531 2678 2651 2914 
Q 2772 3150 2772 3378 
Q 2772 3750 2511 3984 
Q 2250 4219 1831 4219 
Q 1534 4219 1204 4116 
Q 875 4013 500 3803 
L 500 4441 
Q 881 4594 1212 4672 
Q 1544 4750 1819 4750 
Q 2544 4750 2975 4387 
Q 3406 4025 3406 3419 
Q 3406 3131 3298 2873 
Q 3191 2616 2906 2266 
Q 2828 2175 2409 1742 
Q 1991 1309 1228 531 
z
" transform="scale(0.015625)"/>
        <path id="DejaVuSans-74" d="M 1172 4494 
L 1172 3500 
L 2356 3500 
L 2356 3053 
L 1172 3053 
L 1172 1153 
Q 1172 725 1289 603 
Q 1406 481 1766 481 
L 2356 481 
L 2356 0 
L 1766 0 
Q 1100 0 847 248 
Q 594 497 594 1153 
L 594 3053 
L 172 3053 
L 172 3500 
L 594 3500 
L 594 4494 
L 1172 4494 
z
" transform="scale(0.015625)"/>
        <path id="DejaVuSans-fd" d="M 2059 -325 
Q 1816 -950 1584 -1140 
Q 1353 -1331 966 -1331 
L 506 -1331 
L 506 -850 
L 844 -850 
Q 1081 -850 1212 -737 
Q 1344 -625 1503 -206 
L 1606 56 
L 191 3500 
L 800 3500 
L 1894 763 
L 2988 3500 
L 3597 3500 
L 2059 -325 
z
M 2330 5119 
L 2952 5119 
L 1934 3944 
L 1455 3944 
L 2330 5119 
z
" transform="scale(0.015625)"/>
        <path id="DejaVuSans-6e" d="M 3513 2113 
L 3513 0 
L 2938 0 
L 2938 2094 
Q 2938 2591 2744 2837 
Q 2550 3084 2163 3084 
Q 1697 3084 1428 2787 
Q 1159 2491 1159 1978 
L 1159 0 
L 581 0 
L 581 3500 
L 1159 3500 
L 1159 2956 
Q 1366 3272 1645 3428 
Q 1925 3584 2291 3584 
Q 2894 3584 3203 3211 
Q 3513 2838 3513 2113 
z
" transform="scale(0.015625)"/>
        <path id="DejaVuSans-63" d="M 3122 3366 
L 3122 2828 
Q 2878 2963 2633 3030 
Q 2388 3097 2138 3097 
Q 1578 3097 1268 2742 
Q 959 2388 959 1747 
Q 959 1106 1268 751 
Q 1578 397 2138 397 
Q 2388 397 2633 464 
Q 2878 531 3122 666 
L 3122 134 
Q 2881 22 2623 -34 
Q 2366 -91 2075 -91 
Q 1284 -91 818 406 
Q 353 903 353 1747 
Q 353 2603 823 3093 
Q 1294 3584 2113 3584 
Q 2378 3584 2631 3529 
Q 2884 3475 3122 3366 
z
" transform="scale(0.015625)"/>
        <path id="DejaVuSans-68" d="M 3513 2113 
L 3513 0 
L 2938 0 
L 2938 2094 
Q 2938 2591 2744 2837 
Q 2550 3084 2163 3084 
Q 1697 3084 1428 2787 
Q 1159 2491 1159 1978 
L 1159 0 
L 581 0 
L 581 4863 
L 1159 4863 
L 1159 2956 
Q 1366 3272 1645 3428 
Q 1925 3584 2291 3584 
Q 2894 3584 3203 3211 
Q 3513 2838 3513 2113 
z
" transform="scale(0.015625)"/>
       </defs>
       <use xlink:href="#DejaVuSans-50"/>
       <use xlink:href="#DejaVuSans-6f" x="56.677734"/>
       <use xlink:href="#DejaVuSans-20" x="117.859375"/>
       <use xlink:href="#DejaVuSans-32" x="149.646484"/>
       <use xlink:href="#DejaVuSans-20" x="213.269531"/>
       <use xlink:href="#DejaVuSans-74" x="245.056641"/>
       <use xlink:href="#DejaVuSans-fd" x="284.265625"/>
       <use xlink:href="#DejaVuSans-64" x="343.445312"/>
       <use xlink:href="#DejaVuSans-6e" x="406.921875"/>
       <use xlink:href="#DejaVuSans-65" x="470.300781"/>
       <use xlink:href="#DejaVuSans-63" x="531.824219"/>
       <use xlink:href="#DejaVuSans-68" x="586.804688"/>
      </g>
     </g>
    </g>
    <g id="xtick_3">
     <g id="line2d_3">
      <g>
       <use xlink:href="#m012ed2a9c2" x="444" y="441" style="stroke: #000000; stroke-width: 0.8"/>
      </g>
     </g>
     <g id="text_3">
      <!-- Po 8 týdnech -->
      <g transform="translate(395.235937 459.997656)scale(0.15 -0.15)">
       <defs>
        <path id="DejaVuSans-38" d="M 2034 2216 
Q 1584 2216 1326 1975 
Q 1069 1734 1069 1313 
Q 1069 891 1326 650 
Q 1584 409 2034 409 
Q 2484 409 2743 651 
Q 3003 894 3003 1313 
Q 3003 1734 2745 1975 
Q 2488 2216 2034 2216 
z
M 1403 2484 
Q 997 2584 770 2862 
Q 544 3141 544 3541 
Q 544 4100 942 4425 
Q 1341 4750 2034 4750 
Q 2731 4750 3128 4425 
Q 3525 4100 3525 3541 
Q 3525 3141 3298 2862 
Q 3072 2584 2669 2484 
Q 3125 2378 3379 2068 
Q 3634 1759 3634 1313 
Q 3634 634 3220 271 
Q 2806 -91 2034 -91 
Q 1263 -91 848 271 
Q 434 634 434 1313 
Q 434 1759 690 2068 
Q 947 2378 1403 2484 
z
M 1172 3481 
Q 1172 3119 1398 2916 
Q 1625 2713 2034 2713 
Q 2441 2713 2670 2916 
Q 2900 3119 2900 3481 
Q 2900 3844 2670 4047 
Q 2441 4250 2034 4250 
Q 1625 4250 1398 4047 
Q 1172 3844 1172 3481 
z
" transform="scale(0.015625)"/>
       </defs>
       <use xlink:href="#DejaVuSans-50"/>
       <use xlink:href="#DejaVuSans-6f" x="56.677734"/>
       <use xlink:href="#DejaVuSans-20" x="117.859375"/>
       <use xlink:href="#DejaVuSans-38" x="149.646484"/>
       <use xlink:href="#DejaVuSans-20" x="213.269531"/>
       <use xlink:href="#DejaVuSans-74" x="245.056641"/>
       <use xlink:href="#DejaVuSans-fd" x="284.265625"/>
       <use xlink:href="#DejaVuSans-64" x="343.445312"/>
       <use xlink:href="#DejaVuSans-6e" x="406.921875"/>
       <use xlink:href="#DejaVuSans-65" x="470.300781"/>
       <use xlink:href="#DejaVuSans-63" x="531.824219"/>
       <use xlink:href="#DejaVuSans-68" x="586.804688"/>
      </g>
     </g>
    </g>
   </g>
   <g id="matplotlib.axis_2">
    <g id="ytick_1">
     <g id="line2d_4">
      <defs>
       <path id="m27936adcbe" d="M 0 0 
L -3.5 0 
" style="stroke: #000000; stroke-width: 0.8"/>
      </defs>
      <g>
       <use xlink:href="#m27936adcbe" x="72" y="387.310653" style="stroke: #000000; stroke-width: 0.8"/>
      </g>
     </g>
     <g id="text_4">
      <!-- 0.2 -->
      <g transform="translate(41.145313 393.009481)scale(0.15 -0.15)">
       <defs>
        <path id="DejaVuSans-30" d="M 2034 4250 
Q 1547 4250 1301 3770 
Q 1056 3291 1056 2328 
Q 1056 1369 1301 889 
Q 1547 409 2034 409 
Q 2525 409 2770 889 
Q 3016 1369 3016 2328 
Q 3016 3291 2770 3770 
Q 2525 4250 2034 4250 
z
M 2034 4750 
Q 2819 4750 3233 4129 
Q 3647 3509 3647 2328 
Q 3647 1150 3233 529 
Q 2819 -91 2034 -91 
Q 1250 -91 836 529 
Q 422 1150 422 2328 
Q 422 3509 836 4129 
Q 1250 4750 2034 4750 
z
" transform="scale(0.015625)"/>
        <path id="DejaVuSans-2e" d="M 684 794 
L 1344 794 
L 1344 0 
L 684 0 
L 684 794 
z
" transform="scale(0.015625)"/>
       </defs>
       <use xlink:href="#DejaVuSans-30"/>
       <use xlink:href="#DejaVuSans-2e" x="63.623047"/>
       <use xlink:href="#DejaVuSans-32" x="95.410156"/>
      </g>
     </g>
    </g>
    <g id="ytick_2">
     <g id="line2d_5">
      <g>
       <use xlink:href="#m27936adcbe" x="72" y="316.412248" style="stroke: #000000; stroke-width: 0.8"/>
      </g>
     </g>
     <g id="text_5">
      <!-- 0.4 -->
      <g transform="translate(41.145313 322.111076)scale(0.15 -0.15)">
       <defs>
        <path id="DejaVuSans-34" d="M 2419 4116 
L 825 1625 
L 2419 1625 
L 2419 4116 
z
M 2253 4666 
L 3047 4666 
L 3047 1625 
L 3713 1625 
L 3713 1100 
L 3047 1100 
L 3047 0 
L 2419 0 
L 2419 1100 
L 313 1100 
L 313 1709 
L 2253 4666 
z
" transform="scale(0.015625)"/>
       </defs>
       <use xlink:href="#DejaVuSans-30"/>
       <use xlink:href="#DejaVuSans-2e" x="63.623047"/>
       <use xlink:href="#DejaVuSans-34" x="95.410156"/>
      </g>
     </g>
    </g>
    <g id="ytick_3">
     <g id="line2d_6">
      <g>
       <use xlink:href="#m27936adcbe" x="72" y="245.513842" style="stroke: #000000; stroke-width: 0.8"/>
      </g>
     </g>
     <g id="text_6">
      <!-- 0.6 -->
      <g transform="translate(41.145313 251.21267)scale(0.15 -0.15)">
       <defs>
        <path id="DejaVuSans-36" d="M 2113 2584 
Q 1688 2584 1439 2293 
Q 1191 2003 1191 1497 
Q 1191 994 1439 701 
Q 1688 409 2113 409 
Q 2538 409 2786 701 
Q 3034 994 3034 1497 
Q 3034 2003 2786 2293 
Q 2538 2584 2113 2584 
z
M 3366 4563 
L 3366 3988 
Q 3128 4100 2886 4159 
Q 2644 4219 2406 4219 
Q 1781 4219 1451 3797 
Q 1122 3375 1075 2522 
Q 1259 2794 1537 2939 
Q 1816 3084 2150 3084 
Q 2853 3084 3261 2657 
Q 3669 2231 3669 1497 
Q 3669 778 3244 343 
Q 2819 -91 2113 -91 
Q 1303 -91 875 529 
Q 447 1150 447 2328 
Q 447 3434 972 4092 
Q 1497 4750 2381 4750 
Q 2619 4750 2861 4703 
Q 3103 4656 3366 4563 
z
" transform="scale(0.015625)"/>
       </defs>
       <use xlink:href="#DejaVuSans-30"/>
       <use xlink:href="#DejaVuSans-2e" x="63.623047"/>
       <use xlink:href="#DejaVuSans-36" x="95.410156"/>
      </g>
     </g>
    </g>
    <g id="ytick_4">
     <g id="line2d_7">
      <g>
       <use xlink:href="#m27936adcbe" x="72" y="174.615437" style="stroke: #000000; stroke-width: 0.8"/>
      </g>
     </g>
     <g id="text_7">
      <!-- 0.8 -->
      <g transform="translate(41.145313 180.314265)scale(0.15 -0.15)">
       <use xlink:href="#DejaVuSans-30"/>
       <use xlink:href="#DejaVuSans-2e" x="63.623047"/>
       <use xlink:href="#DejaVuSans-38" x="95.410156"/>
      </g>
     </g>
    </g>
    <g id="ytick_5">
     <g id="line2d_8">
      <g>
       <use xlink:href="#m27936adcbe" x="72" y="103.717031" style="stroke: #000000; stroke-width: 0.8"/>
      </g>
     </g>
     <g id="text_8">
      <!-- 1.0 -->
      <g transform="translate(41.145313 109.415859)scale(0.15 -0.15)">
       <defs>
        <path id="DejaVuSans-31" d="M 794 531 
L 1825 531 
L 1825 4091 
L 703 3866 
L 703 4441 
L 1819 4666 
L 2450 4666 
L 2450 531 
L 3481 531 
L 3481 0 
L 794 0 
L 794 531 
z
" transform="scale(0.015625)"/>
       </defs>
       <use xlink:href="#DejaVuSans-31"/>
       <use xlink:href="#DejaVuSans-2e" x="63.623047"/>
       <use xlink:href="#DejaVuSans-30" x="95.410156"/>
      </g>
     </g>
    </g>
   </g>
   <g id="line2d_9">
    <path d="M 124.08 299.751122 
L 168.72 299.751122 
L 168.72 291.784411 
L 157.56 280.963045 
L 168.72 270.141679 
L 168.72 254.553389 
L 124.08 254.553389 
L 124.08 270.141679 
L 135.24 280.963045 
L 124.08 291.784411 
L 124.08 299.751122 
" clip-path="url(#p5dbc33069b)" style="fill: none; stroke: #000000; stroke-linecap: square"/>
   </g>
   <g id="line2d_10">
    <path d="M 146.4 299.751122 
L 146.4 342.290166 
" clip-path="url(#p5dbc33069b)" style="fill: none; stroke: #000000; stroke-linecap: square"/>
   </g>
   <g id="line2d_11">
    <path d="M 146.4 254.553389 
L 146.4 227.789241 
" clip-path="url(#p5dbc33069b)" style="fill: none; stroke: #000000; stroke-linecap: square"/>
   </g>
   <g id="line2d_12">
    <path d="M 135.24 342.290166 
L 157.56 342.290166 
" clip-path="url(#p5dbc33069b)" style="fill: none; stroke: #000000; stroke-linecap: square"/>
   </g>
   <g id="line2d_13">
    <path d="M 135.24 227.789241 
L 157.56 227.789241 
" clip-path="url(#p5dbc33069b)" style="fill: none; stroke: #000000; stroke-linecap: square"/>
   </g>
   <g id="line2d_14">
    <defs>
     <path id="mabdebe5ba0" d="M 0 3 
C 0.795609 3 1.55874 2.683901 2.12132 2.12132 
C 2.683901 1.55874 3 0.795609 3 0 
C 3 -0.795609 2.683901 -1.55874 2.12132 -2.12132 
C 1.55874 -2.683901 0.795609 -3 0 -3 
C -0.795609 -3 -1.55874 -2.683901 -2.12132 -2.12132 
C -2.683901 -1.55874 -3 -0.795609 -3 0 
C -3 0.795609 -2.683901 1.55874 -2.12132 2.12132 
C -1.55874 2.683901 -0.795609 3 0 3 
z
" style="stroke: #000000"/>
    </defs>
    <g clip-path="url(#p5dbc33069b)">
     <use xlink:href="#mabdebe5ba0" x="146.4" y="132.076393" style="fill-opacity: 0; stroke: #000000"/>
    </g>
   </g>
   <g id="line2d_15">
    <path d="M 272.88 309.322407 
L 317.52 309.322407 
L 317.52 297.323857 
L 306.36 284.507965 
L 317.52 271.692073 
L 317.52 255.794111 
L 272.88 255.794111 
L 272.88 271.692073 
L 284.04 284.507965 
L 272.88 297.323857 
L 272.88 309.322407 
" clip-path="url(#p5dbc33069b)" style="fill: none; stroke: #000000; stroke-linecap: square"/>
   </g>
   <g id="line2d_16">
    <path d="M 295.2 309.322407 
L 295.2 358.951291 
" clip-path="url(#p5dbc33069b)" style="fill: none; stroke: #000000; stroke-linecap: square"/>
   </g>
   <g id="line2d_17">
    <path d="M 295.2 255.794111 
L 295.2 224.244321 
" clip-path="url(#p5dbc33069b)" style="fill: none; stroke: #000000; stroke-linecap: square"/>
   </g>
   <g id="line2d_18">
    <path d="M 284.04 358.951291 
L 306.36 358.951291 
" clip-path="url(#p5dbc33069b)" style="fill: none; stroke: #000000; stroke-linecap: square"/>
   </g>
   <g id="line2d_19">
    <path d="M 284.04 224.244321 
L 306.36 224.244321 
" clip-path="url(#p5dbc33069b)" style="fill: none; stroke: #000000; stroke-linecap: square"/>
   </g>
   <g id="line2d_20">
    <g clip-path="url(#p5dbc33069b)">
     <use xlink:href="#mabdebe5ba0" x="295.2" y="158.663295" style="fill-opacity: 0; stroke: #000000"/>
    </g>
   </g>
   <g id="line2d_21">
    <path d="M 421.68 311.094867 
L 466.32 311.094867 
L 466.32 305.474616 
L 455.16 291.597806 
L 466.32 277.720995 
L 466.32 253.135421 
L 421.68 253.135421 
L 421.68 277.720995 
L 432.84 291.597806 
L 421.68 305.474616 
L 421.68 311.094867 
" clip-path="url(#p5dbc33069b)" style="fill: none; stroke: #000000; stroke-linecap: square"/>
   </g>
   <g id="line2d_22">
    <path d="M 444 311.094867 
L 444 366.041132 
" clip-path="url(#p5dbc33069b)" style="fill: none; stroke: #000000; stroke-linecap: square"/>
   </g>
   <g id="line2d_23">
    <path d="M 444 253.135421 
L 444 220.6994 
" clip-path="url(#p5dbc33069b)" style="fill: none; stroke: #000000; stroke-linecap: square"/>
   </g>
   <g id="line2d_24">
    <path d="M 432.84 366.041132 
L 455.16 366.041132 
" clip-path="url(#p5dbc33069b)" style="fill: none; stroke: #000000; stroke-linecap: square"/>
   </g>
   <g id="line2d_25">
    <path d="M 432.84 220.6994 
L 455.16 220.6994 
" clip-path="url(#p5dbc33069b)" style="fill: none; stroke: #000000; stroke-linecap: square"/>
   </g>
   <g id="line2d_26"/>
   <g id="line2d_27">
    <path d="M 135.24 280.963045 
L 157.56 280.963045 
" clip-path="url(#p5dbc33069b)" style="fill: none; stroke: #ff7f0e; stroke-linecap: square"/>
   </g>
   <g id="line2d_28">
    <path d="M 284.04 284.507965 
L 306.36 284.507965 
" clip-path="url(#p5dbc33069b)" style="fill: none; stroke: #ff7f0e; stroke-linecap: square"/>
   </g>
   <g id="line2d_29">
    <path d="M 432.84 291.597806 
L 455.16 291.597806 
" clip-path="url(#p5dbc33069b)" style="fill: none; stroke: #ff7f0e; stroke-linecap: square"/>
   </g>
   <g id="patch_3">
    <path d="M 72 441 
L 72 60.48 
" style="fill: none; stroke: #000000; stroke-width: 0.8; stroke-linejoin: miter; stroke-linecap: square"/>
   </g>
   <g id="patch_4">
    <path d="M 518.4 441 
L 518.4 60.48 
" style="fill: none; stroke: #000000; stroke-width: 0.8; stroke-linejoin: miter; stroke-linecap: square"/>
   </g>
   <g id="patch_5">
    <path d="M 72 441 
L 518.4 441 
" style="fill: none; stroke: #000000; stroke-width: 0.8; stroke-linejoin: miter; stroke-linecap: square"/>
   </g>
   <g id="patch_6">
    <path d="M 72 60.48 
L 518.4 60.48 
" style="fill: none; stroke: #000000; stroke-width: 0.8; stroke-linejoin: miter; stroke-linecap: square"/>
   </g>
   <g id="text_9">
    <!-- CBT2 -->
    <g transform="translate(268.885938 54.48)scale(0.2 -0.2)">
     <defs>
      <path id="DejaVuSans-43" d="M 4122 4306 
L 4122 3641 
Q 3803 3938 3442 4084 
Q 3081 4231 2675 4231 
Q 1875 4231 1450 3742 
Q 1025 3253 1025 2328 
Q 1025 1406 1450 917 
Q 1875 428 2675 428 
Q 3081 428 3442 575 
Q 3803 722 4122 1019 
L 4122 359 
Q 3791 134 3420 21 
Q 3050 -91 2638 -91 
Q 1578 -91 968 557 
Q 359 1206 359 2328 
Q 359 3453 968 4101 
Q 1578 4750 2638 4750 
Q 3056 4750 3426 4639 
Q 3797 4528 4122 4306 
z
" transform="scale(0.015625)"/>
      <path id="DejaVuSans-42" d="M 1259 2228 
L 1259 519 
L 2272 519 
Q 2781 519 3026 730 
Q 3272 941 3272 1375 
Q 3272 1813 3026 2020 
Q 2781 2228 2272 2228 
L 1259 2228 
z
M 1259 4147 
L 1259 2741 
L 2194 2741 
Q 2656 2741 2882 2914 
Q 3109 3088 3109 3444 
Q 3109 3797 2882 3972 
Q 2656 4147 2194 4147 
L 1259 4147 
z
M 628 4666 
L 2241 4666 
Q 2963 4666 3353 4366 
Q 3744 4066 3744 3513 
Q 3744 3084 3544 2831 
Q 3344 2578 2956 2516 
Q 3422 2416 3680 2098 
Q 3938 1781 3938 1306 
Q 3938 681 3513 340 
Q 3088 0 2303 0 
L 628 0 
L 628 4666 
z
" transform="scale(0.015625)"/>
      <path id="DejaVuSans-54" d="M -19 4666 
L 3928 4666 
L 3928 4134 
L 2272 4134 
L 2272 0 
L 1638 0 
L 1638 4134 
L -19 4134 
L -19 4666 
z
" transform="scale(0.015625)"/>
     </defs>
     <use xlink:href="#DejaVuSans-43"/>
     <use xlink:href="#DejaVuSans-42" x="69.824219"/>
     <use xlink:href="#DejaVuSans-54" x="138.427734"/>
     <use xlink:href="#DejaVuSans-32" x="199.511719"/>
    </g>
   </g>
  </g>
 </g>
 <defs>
  <clipPath id="p5dbc33069b">
   <rect x="72" y="60.48" width="446.4" height="380.52"/>
  </clipPath>
 </defs>
</svg>
