<?xml version="1.0" encoding="utf-8" standalone="no"?>
<!DOCTYPE svg PUBLIC "-//W3C//DTD SVG 1.1//EN"
  "http://www.w3.org/Graphics/SVG/1.1/DTD/svg11.dtd">
<svg xmlns:xlink="http://www.w3.org/1999/xlink" width="576pt" height="504pt" viewBox="0 0 576 504" xmlns="http://www.w3.org/2000/svg" version="1.1">
 <metadata>
  <rdf:RDF xmlns:dc="http://purl.org/dc/elements/1.1/" xmlns:cc="http://creativecommons.org/ns#" xmlns:rdf="http://www.w3.org/1999/02/22-rdf-syntax-ns#">
   <cc:Work>
    <dc:type rdf:resource="http://purl.org/dc/dcmitype/StillImage"/>
    <dc:date>2023-06-23T21:43:10.801083</dc:date>
    <dc:format>image/svg+xml</dc:format>
    <dc:creator>
     <cc:Agent>
      <dc:title>Matplotlib v3.5.1, https://matplotlib.org/</dc:title>
     </cc:Agent>
    </dc:creator>
   </cc:Work>
  </rdf:RDF>
 </metadata>
 <defs>
  <style type="text/css">*{stroke-linejoin: round; stroke-linecap: butt}</style>
 </defs>
 <g id="figure_1">
  <g id="patch_1">
   <path d="M 0 504 
L 576 504 
L 576 0 
L 0 0 
L 0 504 
z
" style="fill: none"/>
  </g>
  <g id="axes_1">
   <g id="patch_2">
    <path d="M 72 441 
L 518.4 441 
L 518.4 60.48 
L 72 60.48 
z
" style="fill: #ffffff"/>
   </g>
   <g id="PolyCollection_1">
    <defs>
     <path id="m18b7d3c097" d="M 146.422692 -95.546135 
L 146.377308 -95.546135 
L 146.363953 -98.886311 
L 146.343843 -102.226488 
L 146.314185 -105.566665 
L 146.271344 -108.906842 
L 146.210716 -112.247019 
L 146.126642 -115.587195 
L 146.012373 -118.927372 
L 145.860104 -122.267549 
L 145.661099 -125.607726 
L 145.405904 -128.947903 
L 145.084648 -132.288079 
L 144.68741 -135.628256 
L 144.204624 -138.968433 
L 143.627485 -142.30861 
L 142.948326 -145.648786 
L 142.160927 -148.988963 
L 141.260754 -152.32914 
L 140.24513 -155.669317 
L 139.113364 -159.009494 
L 137.866873 -162.34967 
L 136.509343 -165.689847 
L 135.046959 -169.030024 
L 133.488697 -172.370201 
L 131.846674 -175.710378 
L 130.136475 -179.050554 
L 128.37737 -182.390731 
L 126.592313 -185.730908 
L 124.807608 -189.071085 
L 123.052149 -192.411261 
L 121.356183 -195.751438 
L 119.749608 -199.091615 
L 118.259875 -202.431792 
L 116.90965 -205.771969 
L 115.714473 -209.112145 
L 114.680685 -212.452322 
L 113.803955 -215.792499 
L 113.068704 -219.132676 
L 112.448685 -222.472853 
L 111.908834 -225.813029 
L 111.408366 -229.153206 
L 110.904893 -232.493383 
L 110.359139 -235.83356 
L 109.739691 -239.173736 
L 109.027131 -242.513913 
L 108.21696 -245.85409 
L 107.320795 -249.194267 
L 106.365625 -252.534444 
L 105.391136 -255.87462 
L 104.445443 -259.214797 
L 103.579807 -262.554974 
L 102.84307 -265.895151 
L 102.276559 -269.235327 
L 101.910158 -272.575504 
L 101.76 -275.915681 
L 101.828009 -279.255858 
L 102.10323 -282.596035 
L 102.564625 -285.936211 
L 103.184847 -289.276388 
L 103.934402 -292.616565 
L 104.785605 -295.956742 
L 105.715836 -299.296919 
L 106.709709 -302.637095 
L 107.759992 -305.977272 
L 108.867253 -309.317449 
L 110.038394 -312.657626 
L 111.284374 -315.997802 
L 112.617488 -319.337979 
L 114.048598 -322.678156 
L 115.584694 -326.018333 
L 117.227077 -329.35851 
L 118.970347 -332.698686 
L 120.80225 -336.038863 
L 122.704313 -339.37904 
L 124.653104 -342.719217 
L 126.621877 -346.059394 
L 128.582365 -349.39957 
L 130.506504 -352.739747 
L 132.367916 -356.079924 
L 134.14307 -359.420101 
L 135.812089 -362.760277 
L 137.359227 -366.100454 
L 138.773079 -369.440631 
L 140.046572 -372.780808 
L 141.176804 -376.120985 
L 142.164744 -379.461161 
L 143.014832 -382.801338 
L 143.734487 -386.141515 
L 144.333526 -389.481692 
L 144.82353 -392.821869 
L 145.217181 -396.162045 
L 145.527605 -399.502222 
L 145.767774 -402.842399 
L 145.949998 -406.182576 
L 146.085533 -409.522752 
L 146.184322 -412.862929 
L 146.254863 -416.203106 
L 146.304198 -419.543283 
L 146.337986 -422.88346 
L 146.360642 -426.223636 
L 146.439358 -426.223636 
L 146.439358 -426.223636 
L 146.462014 -422.88346 
L 146.495802 -419.543283 
L 146.545137 -416.203106 
L 146.615678 -412.862929 
L 146.714467 -409.522752 
L 146.850002 -406.182576 
L 147.032226 -402.842399 
L 147.272395 -399.502222 
L 147.582819 -396.162045 
L 147.97647 -392.821869 
L 148.466474 -389.481692 
L 149.065513 -386.141515 
L 149.785168 -382.801338 
L 150.635256 -379.461161 
L 151.623196 -376.120985 
L 152.753428 -372.780808 
L 154.026921 -369.440631 
L 155.440773 -366.100454 
L 156.987911 -362.760277 
L 158.65693 -359.420101 
L 160.432084 -356.079924 
L 162.293496 -352.739747 
L 164.217635 -349.39957 
L 166.178123 -346.059394 
L 168.146896 -342.719217 
L 170.095687 -339.37904 
L 171.99775 -336.038863 
L 173.829653 -332.698686 
L 175.572923 -329.35851 
L 177.215306 -326.018333 
L 178.751402 -322.678156 
L 180.182512 -319.337979 
L 181.515626 -315.997802 
L 182.761606 -312.657626 
L 183.932747 -309.317449 
L 185.040008 -305.977272 
L 186.090291 -302.637095 
L 187.084164 -299.296919 
L 188.014395 -295.956742 
L 188.865598 -292.616565 
L 189.615153 -289.276388 
L 190.235375 -285.936211 
L 190.69677 -282.596035 
L 190.971991 -279.255858 
L 191.04 -275.915681 
L 190.889842 -272.575504 
L 190.523441 -269.235327 
L 189.95693 -265.895151 
L 189.220193 -262.554974 
L 188.354557 -259.214797 
L 187.408864 -255.87462 
L 186.434375 -252.534444 
L 185.479205 -249.194267 
L 184.58304 -245.85409 
L 183.772869 -242.513913 
L 183.060309 -239.173736 
L 182.440861 -235.83356 
L 181.895107 -232.493383 
L 181.391634 -229.153206 
L 180.891166 -225.813029 
L 180.351315 -222.472853 
L 179.731296 -219.132676 
L 178.996045 -215.792499 
L 178.119315 -212.452322 
L 177.085527 -209.112145 
L 175.89035 -205.771969 
L 174.540125 -202.431792 
L 173.050392 -199.091615 
L 171.443817 -195.751438 
L 169.747851 -192.411261 
L 167.992392 -189.071085 
L 166.207687 -185.730908 
L 164.42263 -182.390731 
L 162.663525 -179.050554 
L 160.953326 -175.710378 
L 159.311303 -172.370201 
L 157.753041 -169.030024 
L 156.290657 -165.689847 
L 154.933127 -162.34967 
L 153.686636 -159.009494 
L 152.55487 -155.669317 
L 151.539246 -152.32914 
L 150.639073 -148.988963 
L 149.851674 -145.648786 
L 149.172515 -142.30861 
L 148.595376 -138.968433 
L 148.11259 -135.628256 
L 147.715352 -132.288079 
L 147.394096 -128.947903 
L 147.138901 -125.607726 
L 146.939896 -122.267549 
L 146.787627 -118.927372 
L 146.673358 -115.587195 
L 146.589284 -112.247019 
L 146.528656 -108.906842 
L 146.485815 -105.566665 
L 146.456157 -102.226488 
L 146.436047 -98.886311 
L 146.422692 -95.546135 
z
" style="stroke: #000000; stroke-opacity: 0.5"/>
    </defs>
    <g clip-path="url(#p87a8ebb9a8)">
     <use xlink:href="#m18b7d3c097" x="0" y="504" style="fill: #8bc191; fill-opacity: 0.5; stroke: #000000; stroke-opacity: 0.5"/>
    </g>
   </g>
   <g id="PolyCollection_2">
    <defs>
     <path id="m78bf13e4f7" d="M 295.269482 -116.220173 
L 295.130518 -116.220173 
L 295.088145 -119.260093 
L 295.023785 -122.300013 
L 294.928304 -125.339933 
L 294.78995 -128.379853 
L 294.594142 -131.419773 
L 294.323482 -134.459693 
L 293.958073 -137.499613 
L 293.476241 -140.539533 
L 292.855665 -143.579454 
L 292.074925 -146.619374 
L 291.115342 -149.659294 
L 289.962934 -152.699214 
L 288.610242 -155.739134 
L 287.057723 -158.779054 
L 285.314441 -161.818974 
L 283.397853 -164.858894 
L 281.332618 -167.898814 
L 279.14852 -170.938734 
L 276.877822 -173.978654 
L 274.552461 -177.018575 
L 272.201636 -180.058495 
L 269.850286 -183.098415 
L 267.518836 -186.138335 
L 265.224358 -189.178255 
L 262.982991 -192.218175 
L 260.81317 -195.258095 
L 258.738986 -198.298015 
L 256.792865 -201.337935 
L 255.016811 -204.377855 
L 253.46167 -207.417776 
L 252.184176 -210.457696 
L 251.241992 -213.497616 
L 250.687322 -216.537536 
L 250.56 -219.577456 
L 250.88114 -222.617376 
L 251.648366 -225.657296 
L 252.833486 -228.697216 
L 254.383059 -231.737136 
L 256.221915 -234.777056 
L 258.259192 -237.816976 
L 260.396121 -240.856897 
L 262.534531 -243.896817 
L 264.584991 -246.936737 
L 266.473624 -249.976657 
L 268.146859 -253.016577 
L 269.573759 -256.056497 
L 270.745904 -259.096417 
L 271.675139 -262.136337 
L 272.389751 -265.176257 
L 272.929727 -268.216177 
L 273.341766 -271.256098 
L 273.674629 -274.296018 
L 273.97521 -277.335938 
L 274.285578 -280.375858 
L 274.641016 -283.415778 
L 275.068979 -286.455698 
L 275.588779 -289.495618 
L 276.211799 -292.535538 
L 276.942031 -295.575458 
L 277.776765 -298.615378 
L 278.707366 -301.655299 
L 279.720065 -304.695219 
L 280.796802 -307.735139 
L 281.916158 -310.775059 
L 283.054416 -313.814979 
L 284.186792 -316.854899 
L 285.28881 -319.894819 
L 286.337776 -322.934739 
L 287.314226 -325.974659 
L 288.203214 -329.014579 
L 288.995274 -332.054499 
L 289.686927 -335.09442 
L 290.280633 -338.13434 
L 290.784169 -341.17426 
L 291.209501 -344.21418 
L 291.571267 -347.2541 
L 291.885099 -350.29402 
L 292.165958 -353.33394 
L 292.426734 -356.37386 
L 292.677244 -359.41378 
L 292.923733 -362.4537 
L 293.16888 -365.493621 
L 293.412256 -368.533541 
L 293.65109 -371.573461 
L 293.881211 -374.613381 
L 294.097982 -377.653301 
L 294.297113 -380.693221 
L 294.475267 -383.733141 
L 294.630396 -386.773061 
L 294.761843 -389.812981 
L 294.870234 -392.852901 
L 294.957229 -395.892822 
L 295.025208 -398.932742 
L 295.076938 -401.972662 
L 295.115287 -405.012582 
L 295.142986 -408.052502 
L 295.162488 -411.092422 
L 295.175872 -414.132342 
L 295.184829 -417.172262 
L 295.215171 -417.172262 
L 295.215171 -417.172262 
L 295.224128 -414.132342 
L 295.237512 -411.092422 
L 295.257014 -408.052502 
L 295.284713 -405.012582 
L 295.323062 -401.972662 
L 295.374792 -398.932742 
L 295.442771 -395.892822 
L 295.529766 -392.852901 
L 295.638157 -389.812981 
L 295.769604 -386.773061 
L 295.924733 -383.733141 
L 296.102887 -380.693221 
L 296.302018 -377.653301 
L 296.518789 -374.613381 
L 296.74891 -371.573461 
L 296.987744 -368.533541 
L 297.23112 -365.493621 
L 297.476267 -362.4537 
L 297.722756 -359.41378 
L 297.973266 -356.37386 
L 298.234042 -353.33394 
L 298.514901 -350.29402 
L 298.828733 -347.2541 
L 299.190499 -344.21418 
L 299.615831 -341.17426 
L 300.119367 -338.13434 
L 300.713073 -335.09442 
L 301.404726 -332.054499 
L 302.196786 -329.014579 
L 303.085774 -325.974659 
L 304.062224 -322.934739 
L 305.11119 -319.894819 
L 306.213208 -316.854899 
L 307.345584 -313.814979 
L 308.483842 -310.775059 
L 309.603198 -307.735139 
L 310.679935 -304.695219 
L 311.692634 -301.655299 
L 312.623235 -298.615378 
L 313.457969 -295.575458 
L 314.188201 -292.535538 
L 314.811221 -289.495618 
L 315.331021 -286.455698 
L 315.758984 -283.415778 
L 316.114422 -280.375858 
L 316.42479 -277.335938 
L 316.725371 -274.296018 
L 317.058234 -271.256098 
L 317.470273 -268.216177 
L 318.010249 -265.176257 
L 318.724861 -262.136337 
L 319.654096 -259.096417 
L 320.826241 -256.056497 
L 322.253141 -253.016577 
L 323.926376 -249.976657 
L 325.815009 -246.936737 
L 327.865469 -243.896817 
L 330.003879 -240.856897 
L 332.140808 -237.816976 
L 334.178085 -234.777056 
L 336.016941 -231.737136 
L 337.566514 -228.697216 
L 338.751634 -225.657296 
L 339.51886 -222.617376 
L 339.84 -219.577456 
L 339.712678 -216.537536 
L 339.158008 -213.497616 
L 338.215824 -210.457696 
L 336.93833 -207.417776 
L 335.383189 -204.377855 
L 333.607135 -201.337935 
L 331.661014 -198.298015 
L 329.58683 -195.258095 
L 327.417009 -192.218175 
L 325.175642 -189.178255 
L 322.881164 -186.138335 
L 320.549714 -183.098415 
L 318.198364 -180.058495 
L 315.847539 -177.018575 
L 313.522178 -173.978654 
L 311.25148 -170.938734 
L 309.067382 -167.898814 
L 307.002147 -164.858894 
L 305.085559 -161.818974 
L 303.342277 -158.779054 
L 301.789758 -155.739134 
L 300.437066 -152.699214 
L 299.284658 -149.659294 
L 298.325075 -146.619374 
L 297.544335 -143.579454 
L 296.923759 -140.539533 
L 296.441927 -137.499613 
L 296.076518 -134.459693 
L 295.805858 -131.419773 
L 295.61005 -128.379853 
L 295.471696 -125.339933 
L 295.376215 -122.300013 
L 295.311855 -119.260093 
L 295.269482 -116.220173 
z
" style="stroke: #000000; stroke-opacity: 0.5"/>
    </defs>
    <g clip-path="url(#p87a8ebb9a8)">
     <use xlink:href="#m78bf13e4f7" x="0" y="504" style="fill: #8bc191; fill-opacity: 0.5; stroke: #000000; stroke-opacity: 0.5"/>
    </g>
   </g>
   <g id="PolyCollection_3">
    <defs>
     <path id="m2eff082df6" d="M 444.020403 -80.296364 
L 443.979597 -80.296364 
L 443.966972 -83.357613 
L 443.94762 -86.418863 
L 443.918606 -89.480113 
L 443.876049 -92.541363 
L 443.814979 -95.602612 
L 443.729224 -98.663862 
L 443.611379 -101.725112 
L 443.45286 -104.786362 
L 443.244085 -107.847611 
L 442.974777 -110.908861 
L 442.634386 -113.970111 
L 442.212593 -117.031361 
L 441.699839 -120.09261 
L 441.087796 -123.15386 
L 440.369721 -126.21511 
L 439.540588 -129.27636 
L 438.596995 -132.337609 
L 437.536819 -135.398859 
L 436.358707 -138.460109 
L 435.061514 -141.521359 
L 433.643845 -144.582608 
L 432.103887 -147.643858 
L 430.439667 -150.705108 
L 428.649824 -153.766358 
L 426.734878 -156.827607 
L 424.698862 -159.888857 
L 422.551088 -162.950107 
L 420.30773 -166.011357 
L 417.992906 -169.072606 
L 415.638979 -172.133856 
L 413.285891 -175.195106 
L 410.979529 -178.256356 
L 408.769237 -181.317605 
L 406.704787 -184.378855 
L 404.833186 -187.440105 
L 403.195745 -190.501354 
L 401.825802 -193.562604 
L 400.747347 -196.623854 
L 399.974685 -199.685104 
L 399.513054 -202.746353 
L 399.36 -205.807603 
L 399.507147 -208.868853 
L 399.941998 -211.930103 
L 400.649393 -214.991352 
L 401.612347 -218.052602 
L 402.812149 -221.113852 
L 404.227748 -224.175102 
L 405.834639 -227.236351 
L 407.603586 -230.297601 
L 409.499573 -233.358851 
L 411.481397 -236.420101 
L 413.50218 -239.48135 
L 415.510959 -242.5426 
L 417.455296 -245.60385 
L 419.284647 -248.6651 
L 420.954073 -251.726349 
L 422.427802 -254.787599 
L 423.682129 -257.848849 
L 424.707261 -260.910099 
L 425.507847 -263.971348 
L 426.102171 -267.032598 
L 426.520134 -270.093848 
L 426.800343 -273.155098 
L 426.986684 -276.216347 
L 427.124785 -279.277597 
L 427.25872 -282.338847 
L 427.428217 -285.400097 
L 427.666521 -288.461346 
L 427.99898 -291.522596 
L 428.442315 -294.583846 
L 429.004517 -297.645096 
L 429.685266 -300.706345 
L 430.476783 -303.767595 
L 431.364992 -306.828845 
L 432.330916 -309.890095 
L 433.352197 -312.951344 
L 434.40465 -316.012594 
L 435.463765 -319.073844 
L 436.506073 -322.135094 
L 437.510299 -325.196343 
L 438.458274 -328.257593 
L 439.335549 -331.318843 
L 440.131729 -334.380093 
L 440.840516 -337.441342 
L 441.459512 -340.502592 
L 441.989812 -343.563842 
L 442.435445 -346.625092 
L 442.802715 -349.686341 
L 443.099512 -352.747591 
L 443.334638 -355.808841 
L 443.517196 -358.870091 
L 443.656081 -361.93134 
L 443.759584 -364.99259 
L 443.835127 -368.05384 
L 443.889112 -371.11509 
L 443.926878 -374.176339 
L 443.952737 -377.237589 
L 443.970063 -380.298839 
L 443.981421 -383.360088 
L 444.018579 -383.360088 
L 444.018579 -383.360088 
L 444.029937 -380.298839 
L 444.047263 -377.237589 
L 444.073122 -374.176339 
L 444.110888 -371.11509 
L 444.164873 -368.05384 
L 444.240416 -364.99259 
L 444.343919 -361.93134 
L 444.482804 -358.870091 
L 444.665362 -355.808841 
L 444.900488 -352.747591 
L 445.197285 -349.686341 
L 445.564555 -346.625092 
L 446.010188 -343.563842 
L 446.540488 -340.502592 
L 447.159484 -337.441342 
L 447.868271 -334.380093 
L 448.664451 -331.318843 
L 449.541726 -328.257593 
L 450.489701 -325.196343 
L 451.493927 -322.135094 
L 452.536235 -319.073844 
L 453.59535 -316.012594 
L 454.647803 -312.951344 
L 455.669084 -309.890095 
L 456.635008 -306.828845 
L 457.523217 -303.767595 
L 458.314734 -300.706345 
L 458.995483 -297.645096 
L 459.557685 -294.583846 
L 460.00102 -291.522596 
L 460.333479 -288.461346 
L 460.571783 -285.400097 
L 460.74128 -282.338847 
L 460.875215 -279.277597 
L 461.013316 -276.216347 
L 461.199657 -273.155098 
L 461.479866 -270.093848 
L 461.897829 -267.032598 
L 462.492153 -263.971348 
L 463.292739 -260.910099 
L 464.317871 -257.848849 
L 465.572198 -254.787599 
L 467.045927 -251.726349 
L 468.715353 -248.6651 
L 470.544704 -245.60385 
L 472.489041 -242.5426 
L 474.49782 -239.48135 
L 476.518603 -236.420101 
L 478.500427 -233.358851 
L 480.396414 -230.297601 
L 482.165361 -227.236351 
L 483.772252 -224.175102 
L 485.187851 -221.113852 
L 486.387653 -218.052602 
L 487.350607 -214.991352 
L 488.058002 -211.930103 
L 488.492853 -208.868853 
L 488.64 -205.807603 
L 488.486946 -202.746353 
L 488.025315 -199.685104 
L 487.252653 -196.623854 
L 486.174198 -193.562604 
L 484.804255 -190.501354 
L 483.166814 -187.440105 
L 481.295213 -184.378855 
L 479.230763 -181.317605 
L 477.020471 -178.256356 
L 474.714109 -175.195106 
L 472.361021 -172.133856 
L 470.007094 -169.072606 
L 467.69227 -166.011357 
L 465.448912 -162.950107 
L 463.301138 -159.888857 
L 461.265122 -156.827607 
L 459.350176 -153.766358 
L 457.560333 -150.705108 
L 455.896113 -147.643858 
L 454.356155 -144.582608 
L 452.938486 -141.521359 
L 451.641293 -138.460109 
L 450.463181 -135.398859 
L 449.403005 -132.337609 
L 448.459412 -129.27636 
L 447.630279 -126.21511 
L 446.912204 -123.15386 
L 446.300161 -120.09261 
L 445.787407 -117.031361 
L 445.365614 -113.970111 
L 445.025223 -110.908861 
L 444.755915 -107.847611 
L 444.54714 -104.786362 
L 444.388621 -101.725112 
L 444.270776 -98.663862 
L 444.185021 -95.602612 
L 444.123951 -92.541363 
L 444.081394 -89.480113 
L 444.05238 -86.418863 
L 444.033028 -83.357613 
L 444.020403 -80.296364 
z
" style="stroke: #000000; stroke-opacity: 0.5"/>
    </defs>
    <g clip-path="url(#p87a8ebb9a8)">
     <use xlink:href="#m2eff082df6" x="0" y="504" style="fill: #8bc191; fill-opacity: 0.5; stroke: #000000; stroke-opacity: 0.5"/>
    </g>
   </g>
   <g id="matplotlib.axis_1">
    <g id="xtick_1">
     <g id="line2d_1">
      <defs>
       <path id="m1b891de8d4" d="M 0 0 
L 0 3.5 
" style="stroke: #000000; stroke-width: 0.8"/>
      </defs>
      <g>
       <use xlink:href="#m1b891de8d4" x="146.4" y="441" style="stroke: #000000; stroke-width: 0.8"/>
      </g>
     </g>
     <g id="text_1">
      <!-- Před -->
      <g transform="translate(129.718359 459.397656)scale(0.15 -0.15)">
       <defs>
        <path id="DejaVuSans-50" d="M 1259 4147 
L 1259 2394 
L 2053 2394 
Q 2494 2394 2734 2622 
Q 2975 2850 2975 3272 
Q 2975 3691 2734 3919 
Q 2494 4147 2053 4147 
L 1259 4147 
z
M 628 4666 
L 2053 4666 
Q 2838 4666 3239 4311 
Q 3641 3956 3641 3272 
Q 3641 2581 3239 2228 
Q 2838 1875 2053 1875 
L 1259 1875 
L 1259 0 
L 628 0 
L 628 4666 
z
" transform="scale(0.015625)"/>
        <path id="DejaVuSans-159" d="M 2631 2963 
Q 2534 3019 2420 3045 
Q 2306 3072 2169 3072 
Q 1681 3072 1420 2755 
Q 1159 2438 1159 1844 
L 1159 0 
L 581 0 
L 581 3500 
L 1159 3500 
L 1159 2956 
Q 1341 3275 1631 3429 
Q 1922 3584 2338 3584 
Q 2397 3584 2469 3576 
Q 2541 3569 2628 3553 
L 2631 2963 
z
M 1457 3944 
L 691 5119 
L 1126 5119 
L 1688 4353 
L 2251 5119 
L 2685 5119 
L 1919 3944 
L 1457 3944 
z
" transform="scale(0.015625)"/>
        <path id="DejaVuSans-65" d="M 3597 1894 
L 3597 1613 
L 953 1613 
Q 991 1019 1311 708 
Q 1631 397 2203 397 
Q 2534 397 2845 478 
Q 3156 559 3463 722 
L 3463 178 
Q 3153 47 2828 -22 
Q 2503 -91 2169 -91 
Q 1331 -91 842 396 
Q 353 884 353 1716 
Q 353 2575 817 3079 
Q 1281 3584 2069 3584 
Q 2775 3584 3186 3129 
Q 3597 2675 3597 1894 
z
M 3022 2063 
Q 3016 2534 2758 2815 
Q 2500 3097 2075 3097 
Q 1594 3097 1305 2825 
Q 1016 2553 972 2059 
L 3022 2063 
z
" transform="scale(0.015625)"/>
        <path id="DejaVuSans-64" d="M 2906 2969 
L 2906 4863 
L 3481 4863 
L 3481 0 
L 2906 0 
L 2906 525 
Q 2725 213 2448 61 
Q 2172 -91 1784 -91 
Q 1150 -91 751 415 
Q 353 922 353 1747 
Q 353 2572 751 3078 
Q 1150 3584 1784 3584 
Q 2172 3584 2448 3432 
Q 2725 3281 2906 2969 
z
M 947 1747 
Q 947 1113 1208 752 
Q 1469 391 1925 391 
Q 2381 391 2643 752 
Q 2906 1113 2906 1747 
Q 2906 2381 2643 2742 
Q 2381 3103 1925 3103 
Q 1469 3103 1208 2742 
Q 947 2381 947 1747 
z
" transform="scale(0.015625)"/>
       </defs>
       <use xlink:href="#DejaVuSans-50"/>
       <use xlink:href="#DejaVuSans-159" x="58.552734"/>
       <use xlink:href="#DejaVuSans-65" x="97.416016"/>
       <use xlink:href="#DejaVuSans-64" x="158.939453"/>
      </g>
     </g>
    </g>
    <g id="xtick_2">
     <g id="line2d_2">
      <g>
       <use xlink:href="#m1b891de8d4" x="295.2" y="441" style="stroke: #000000; stroke-width: 0.8"/>
      </g>
     </g>
     <g id="text_2">
      <!-- Po 2 týdnech -->
      <g transform="translate(246.435937 459.997656)scale(0.15 -0.15)">
       <defs>
        <path id="DejaVuSans-6f" d="M 1959 3097 
Q 1497 3097 1228 2736 
Q 959 2375 959 1747 
Q 959 1119 1226 758 
Q 1494 397 1959 397 
Q 2419 397 2687 759 
Q 2956 1122 2956 1747 
Q 2956 2369 2687 2733 
Q 2419 3097 1959 3097 
z
M 1959 3584 
Q 2709 3584 3137 3096 
Q 3566 2609 3566 1747 
Q 3566 888 3137 398 
Q 2709 -91 1959 -91 
Q 1206 -91 779 398 
Q 353 888 353 1747 
Q 353 2609 779 3096 
Q 1206 3584 1959 3584 
z
" transform="scale(0.015625)"/>
        <path id="DejaVuSans-20" transform="scale(0.015625)"/>
        <path id="DejaVuSans-32" d="M 1228 531 
L 3431 531 
L 3431 0 
L 469 0 
L 469 531 
Q 828 903 1448 1529 
Q 2069 2156 2228 2338 
Q 2531 2678 2651 2914 
Q 2772 3150 2772 3378 
Q 2772 3750 2511 3984 
Q 2250 4219 1831 4219 
Q 1534 4219 1204 4116 
Q 875 4013 500 3803 
L 500 4441 
Q 881 4594 1212 4672 
Q 1544 4750 1819 4750 
Q 2544 4750 2975 4387 
Q 3406 4025 3406 3419 
Q 3406 3131 3298 2873 
Q 3191 2616 2906 2266 
Q 2828 2175 2409 1742 
Q 1991 1309 1228 531 
z
" transform="scale(0.015625)"/>
        <path id="DejaVuSans-74" d="M 1172 4494 
L 1172 3500 
L 2356 3500 
L 2356 3053 
L 1172 3053 
L 1172 1153 
Q 1172 725 1289 603 
Q 1406 481 1766 481 
L 2356 481 
L 2356 0 
L 1766 0 
Q 1100 0 847 248 
Q 594 497 594 1153 
L 594 3053 
L 172 3053 
L 172 3500 
L 594 3500 
L 594 4494 
L 1172 4494 
z
" transform="scale(0.015625)"/>
        <path id="DejaVuSans-fd" d="M 2059 -325 
Q 1816 -950 1584 -1140 
Q 1353 -1331 966 -1331 
L 506 -1331 
L 506 -850 
L 844 -850 
Q 1081 -850 1212 -737 
Q 1344 -625 1503 -206 
L 1606 56 
L 191 3500 
L 800 3500 
L 1894 763 
L 2988 3500 
L 3597 3500 
L 2059 -325 
z
M 2330 5119 
L 2952 5119 
L 1934 3944 
L 1455 3944 
L 2330 5119 
z
" transform="scale(0.015625)"/>
        <path id="DejaVuSans-6e" d="M 3513 2113 
L 3513 0 
L 2938 0 
L 2938 2094 
Q 2938 2591 2744 2837 
Q 2550 3084 2163 3084 
Q 1697 3084 1428 2787 
Q 1159 2491 1159 1978 
L 1159 0 
L 581 0 
L 581 3500 
L 1159 3500 
L 1159 2956 
Q 1366 3272 1645 3428 
Q 1925 3584 2291 3584 
Q 2894 3584 3203 3211 
Q 3513 2838 3513 2113 
z
" transform="scale(0.015625)"/>
        <path id="DejaVuSans-63" d="M 3122 3366 
L 3122 2828 
Q 2878 2963 2633 3030 
Q 2388 3097 2138 3097 
Q 1578 3097 1268 2742 
Q 959 2388 959 1747 
Q 959 1106 1268 751 
Q 1578 397 2138 397 
Q 2388 397 2633 464 
Q 2878 531 3122 666 
L 3122 134 
Q 2881 22 2623 -34 
Q 2366 -91 2075 -91 
Q 1284 -91 818 406 
Q 353 903 353 1747 
Q 353 2603 823 3093 
Q 1294 3584 2113 3584 
Q 2378 3584 2631 3529 
Q 2884 3475 3122 3366 
z
" transform="scale(0.015625)"/>
        <path id="DejaVuSans-68" d="M 3513 2113 
L 3513 0 
L 2938 0 
L 2938 2094 
Q 2938 2591 2744 2837 
Q 2550 3084 2163 3084 
Q 1697 3084 1428 2787 
Q 1159 2491 1159 1978 
L 1159 0 
L 581 0 
L 581 4863 
L 1159 4863 
L 1159 2956 
Q 1366 3272 1645 3428 
Q 1925 3584 2291 3584 
Q 2894 3584 3203 3211 
Q 3513 2838 3513 2113 
z
" transform="scale(0.015625)"/>
       </defs>
       <use xlink:href="#DejaVuSans-50"/>
       <use xlink:href="#DejaVuSans-6f" x="56.677734"/>
       <use xlink:href="#DejaVuSans-20" x="117.859375"/>
       <use xlink:href="#DejaVuSans-32" x="149.646484"/>
       <use xlink:href="#DejaVuSans-20" x="213.269531"/>
       <use xlink:href="#DejaVuSans-74" x="245.056641"/>
       <use xlink:href="#DejaVuSans-fd" x="284.265625"/>
       <use xlink:href="#DejaVuSans-64" x="343.445312"/>
       <use xlink:href="#DejaVuSans-6e" x="406.921875"/>
       <use xlink:href="#DejaVuSans-65" x="470.300781"/>
       <use xlink:href="#DejaVuSans-63" x="531.824219"/>
       <use xlink:href="#DejaVuSans-68" x="586.804688"/>
      </g>
     </g>
    </g>
    <g id="xtick_3">
     <g id="line2d_3">
      <g>
       <use xlink:href="#m1b891de8d4" x="444" y="441" style="stroke: #000000; stroke-width: 0.8"/>
      </g>
     </g>
     <g id="text_3">
      <!-- Po 8 týdnech -->
      <g transform="translate(395.235937 459.997656)scale(0.15 -0.15)">
       <defs>
        <path id="DejaVuSans-38" d="M 2034 2216 
Q 1584 2216 1326 1975 
Q 1069 1734 1069 1313 
Q 1069 891 1326 650 
Q 1584 409 2034 409 
Q 2484 409 2743 651 
Q 3003 894 3003 1313 
Q 3003 1734 2745 1975 
Q 2488 2216 2034 2216 
z
M 1403 2484 
Q 997 2584 770 2862 
Q 544 3141 544 3541 
Q 544 4100 942 4425 
Q 1341 4750 2034 4750 
Q 2731 4750 3128 4425 
Q 3525 4100 3525 3541 
Q 3525 3141 3298 2862 
Q 3072 2584 2669 2484 
Q 3125 2378 3379 2068 
Q 3634 1759 3634 1313 
Q 3634 634 3220 271 
Q 2806 -91 2034 -91 
Q 1263 -91 848 271 
Q 434 634 434 1313 
Q 434 1759 690 2068 
Q 947 2378 1403 2484 
z
M 1172 3481 
Q 1172 3119 1398 2916 
Q 1625 2713 2034 2713 
Q 2441 2713 2670 2916 
Q 2900 3119 2900 3481 
Q 2900 3844 2670 4047 
Q 2441 4250 2034 4250 
Q 1625 4250 1398 4047 
Q 1172 3844 1172 3481 
z
" transform="scale(0.015625)"/>
       </defs>
       <use xlink:href="#DejaVuSans-50"/>
       <use xlink:href="#DejaVuSans-6f" x="56.677734"/>
       <use xlink:href="#DejaVuSans-20" x="117.859375"/>
       <use xlink:href="#DejaVuSans-38" x="149.646484"/>
       <use xlink:href="#DejaVuSans-20" x="213.269531"/>
       <use xlink:href="#DejaVuSans-74" x="245.056641"/>
       <use xlink:href="#DejaVuSans-fd" x="284.265625"/>
       <use xlink:href="#DejaVuSans-64" x="343.445312"/>
       <use xlink:href="#DejaVuSans-6e" x="406.921875"/>
       <use xlink:href="#DejaVuSans-65" x="470.300781"/>
       <use xlink:href="#DejaVuSans-63" x="531.824219"/>
       <use xlink:href="#DejaVuSans-68" x="586.804688"/>
      </g>
     </g>
    </g>
   </g>
   <g id="matplotlib.axis_2">
    <g id="ytick_1">
     <g id="line2d_4">
      <defs>
       <path id="mc6c641e20a" d="M 0 0 
L -3.5 0 
" style="stroke: #000000; stroke-width: 0.8"/>
      </defs>
      <g>
       <use xlink:href="#mc6c641e20a" x="72" y="429.077735" style="stroke: #000000; stroke-width: 0.8"/>
      </g>
     </g>
     <g id="text_4">
      <!-- 5 -->
      <g transform="translate(55.45625 434.776563)scale(0.15 -0.15)">
       <defs>
        <path id="DejaVuSans-35" d="M 691 4666 
L 3169 4666 
L 3169 4134 
L 1269 4134 
L 1269 2991 
Q 1406 3038 1543 3061 
Q 1681 3084 1819 3084 
Q 2600 3084 3056 2656 
Q 3513 2228 3513 1497 
Q 3513 744 3044 326 
Q 2575 -91 1722 -91 
Q 1428 -91 1123 -41 
Q 819 9 494 109 
L 494 744 
Q 775 591 1075 516 
Q 1375 441 1709 441 
Q 2250 441 2565 725 
Q 2881 1009 2881 1497 
Q 2881 1984 2565 2268 
Q 2250 2553 1709 2553 
Q 1456 2553 1204 2497 
Q 953 2441 691 2322 
L 691 4666 
z
" transform="scale(0.015625)"/>
       </defs>
       <use xlink:href="#DejaVuSans-35"/>
      </g>
     </g>
    </g>
    <g id="ytick_2">
     <g id="line2d_5">
      <g>
       <use xlink:href="#mc6c641e20a" x="72" y="370.964416" style="stroke: #000000; stroke-width: 0.8"/>
      </g>
     </g>
     <g id="text_5">
      <!-- 10 -->
      <g transform="translate(45.9125 376.663244)scale(0.15 -0.15)">
       <defs>
        <path id="DejaVuSans-31" d="M 794 531 
L 1825 531 
L 1825 4091 
L 703 3866 
L 703 4441 
L 1819 4666 
L 2450 4666 
L 2450 531 
L 3481 531 
L 3481 0 
L 794 0 
L 794 531 
z
" transform="scale(0.015625)"/>
        <path id="DejaVuSans-30" d="M 2034 4250 
Q 1547 4250 1301 3770 
Q 1056 3291 1056 2328 
Q 1056 1369 1301 889 
Q 1547 409 2034 409 
Q 2525 409 2770 889 
Q 3016 1369 3016 2328 
Q 3016 3291 2770 3770 
Q 2525 4250 2034 4250 
z
M 2034 4750 
Q 2819 4750 3233 4129 
Q 3647 3509 3647 2328 
Q 3647 1150 3233 529 
Q 2819 -91 2034 -91 
Q 1250 -91 836 529 
Q 422 1150 422 2328 
Q 422 3509 836 4129 
Q 1250 4750 2034 4750 
z
" transform="scale(0.015625)"/>
       </defs>
       <use xlink:href="#DejaVuSans-31"/>
       <use xlink:href="#DejaVuSans-30" x="63.623047"/>
      </g>
     </g>
    </g>
    <g id="ytick_3">
     <g id="line2d_6">
      <g>
       <use xlink:href="#mc6c641e20a" x="72" y="312.851097" style="stroke: #000000; stroke-width: 0.8"/>
      </g>
     </g>
     <g id="text_6">
      <!-- 15 -->
      <g transform="translate(45.9125 318.549925)scale(0.15 -0.15)">
       <use xlink:href="#DejaVuSans-31"/>
       <use xlink:href="#DejaVuSans-35" x="63.623047"/>
      </g>
     </g>
    </g>
    <g id="ytick_4">
     <g id="line2d_7">
      <g>
       <use xlink:href="#mc6c641e20a" x="72" y="254.737778" style="stroke: #000000; stroke-width: 0.8"/>
      </g>
     </g>
     <g id="text_7">
      <!-- 20 -->
      <g transform="translate(45.9125 260.436606)scale(0.15 -0.15)">
       <use xlink:href="#DejaVuSans-32"/>
       <use xlink:href="#DejaVuSans-30" x="63.623047"/>
      </g>
     </g>
    </g>
    <g id="ytick_5">
     <g id="line2d_8">
      <g>
       <use xlink:href="#mc6c641e20a" x="72" y="196.624459" style="stroke: #000000; stroke-width: 0.8"/>
      </g>
     </g>
     <g id="text_8">
      <!-- 25 -->
      <g transform="translate(45.9125 202.323287)scale(0.15 -0.15)">
       <use xlink:href="#DejaVuSans-32"/>
       <use xlink:href="#DejaVuSans-35" x="63.623047"/>
      </g>
     </g>
    </g>
    <g id="ytick_6">
     <g id="line2d_9">
      <g>
       <use xlink:href="#mc6c641e20a" x="72" y="138.51114" style="stroke: #000000; stroke-width: 0.8"/>
      </g>
     </g>
     <g id="text_9">
      <!-- 30 -->
      <g transform="translate(45.9125 144.209969)scale(0.15 -0.15)">
       <defs>
        <path id="DejaVuSans-33" d="M 2597 2516 
Q 3050 2419 3304 2112 
Q 3559 1806 3559 1356 
Q 3559 666 3084 287 
Q 2609 -91 1734 -91 
Q 1441 -91 1130 -33 
Q 819 25 488 141 
L 488 750 
Q 750 597 1062 519 
Q 1375 441 1716 441 
Q 2309 441 2620 675 
Q 2931 909 2931 1356 
Q 2931 1769 2642 2001 
Q 2353 2234 1838 2234 
L 1294 2234 
L 1294 2753 
L 1863 2753 
Q 2328 2753 2575 2939 
Q 2822 3125 2822 3475 
Q 2822 3834 2567 4026 
Q 2313 4219 1838 4219 
Q 1578 4219 1281 4162 
Q 984 4106 628 3988 
L 628 4550 
Q 988 4650 1302 4700 
Q 1616 4750 1894 4750 
Q 2613 4750 3031 4423 
Q 3450 4097 3450 3541 
Q 3450 3153 3228 2886 
Q 3006 2619 2597 2516 
z
" transform="scale(0.015625)"/>
       </defs>
       <use xlink:href="#DejaVuSans-33"/>
       <use xlink:href="#DejaVuSans-30" x="63.623047"/>
      </g>
     </g>
    </g>
    <g id="ytick_7">
     <g id="line2d_10">
      <g>
       <use xlink:href="#mc6c641e20a" x="72" y="80.397822" style="stroke: #000000; stroke-width: 0.8"/>
      </g>
     </g>
     <g id="text_10">
      <!-- 35 -->
      <g transform="translate(45.9125 86.09665)scale(0.15 -0.15)">
       <use xlink:href="#DejaVuSans-33"/>
       <use xlink:href="#DejaVuSans-35" x="63.623047"/>
      </g>
     </g>
    </g>
   </g>
   <g id="line2d_11">
    <path d="M 124.08 277.983106 
L 168.72 277.983106 
L 168.72 249.580197 
L 157.56 231.492451 
L 168.72 213.404704 
L 168.72 202.435791 
L 124.08 202.435791 
L 124.08 213.404704 
L 135.24 231.492451 
L 124.08 249.580197 
L 124.08 277.983106 
" clip-path="url(#p87a8ebb9a8)" style="fill: none; stroke: #000000; stroke-linecap: square"/>
   </g>
   <g id="line2d_12">
    <path d="M 146.4 277.983106 
L 146.4 336.096425 
" clip-path="url(#p87a8ebb9a8)" style="fill: none; stroke: #000000; stroke-linecap: square"/>
   </g>
   <g id="line2d_13">
    <path d="M 146.4 202.435791 
L 146.4 150.133804 
" clip-path="url(#p87a8ebb9a8)" style="fill: none; stroke: #000000; stroke-linecap: square"/>
   </g>
   <g id="line2d_14">
    <path d="M 135.24 336.096425 
L 157.56 336.096425 
" clip-path="url(#p87a8ebb9a8)" style="fill: none; stroke: #000000; stroke-linecap: square"/>
   </g>
   <g id="line2d_15">
    <path d="M 135.24 150.133804 
L 157.56 150.133804 
" clip-path="url(#p87a8ebb9a8)" style="fill: none; stroke: #000000; stroke-linecap: square"/>
   </g>
   <g id="line2d_16"/>
   <g id="line2d_17">
    <path d="M 272.88 289.60577 
L 317.52 289.60577 
L 317.52 290.505392 
L 306.36 277.983106 
L 317.52 265.46082 
L 317.52 237.303783 
L 272.88 237.303783 
L 272.88 265.46082 
L 284.04 277.983106 
L 272.88 290.505392 
L 272.88 289.60577 
" clip-path="url(#p87a8ebb9a8)" style="fill: none; stroke: #000000; stroke-linecap: square"/>
   </g>
   <g id="line2d_18">
    <path d="M 295.2 289.60577 
L 295.2 324.473761 
" clip-path="url(#p87a8ebb9a8)" style="fill: none; stroke: #000000; stroke-linecap: square"/>
   </g>
   <g id="line2d_19">
    <path d="M 295.2 237.303783 
L 295.2 185.001796 
" clip-path="url(#p87a8ebb9a8)" style="fill: none; stroke: #000000; stroke-linecap: square"/>
   </g>
   <g id="line2d_20">
    <path d="M 284.04 324.473761 
L 306.36 324.473761 
" clip-path="url(#p87a8ebb9a8)" style="fill: none; stroke: #000000; stroke-linecap: square"/>
   </g>
   <g id="line2d_21">
    <path d="M 284.04 185.001796 
L 306.36 185.001796 
" clip-path="url(#p87a8ebb9a8)" style="fill: none; stroke: #000000; stroke-linecap: square"/>
   </g>
   <g id="line2d_22">
    <defs>
     <path id="m9c44d3e435" d="M 0 3 
C 0.795609 3 1.55874 2.683901 2.12132 2.12132 
C 2.683901 1.55874 3 0.795609 3 0 
C 3 -0.795609 2.683901 -1.55874 2.12132 -2.12132 
C 1.55874 -2.683901 0.795609 -3 0 -3 
C -0.795609 -3 -1.55874 -2.683901 -2.12132 -2.12132 
C -2.683901 -1.55874 -3 -0.795609 -3 0 
C -3 0.795609 -2.683901 1.55874 -2.12132 2.12132 
C -1.55874 2.683901 -0.795609 3 0 3 
z
" style="stroke: #000000"/>
    </defs>
    <g clip-path="url(#p87a8ebb9a8)">
     <use xlink:href="#m9c44d3e435" x="295.2" y="150.133804" style="fill-opacity: 0; stroke: #000000"/>
    </g>
   </g>
   <g id="line2d_23">
    <path d="M 421.68 312.851097 
L 466.32 312.851097 
L 466.32 300.73669 
L 455.16 289.60577 
L 466.32 278.474849 
L 466.32 266.360442 
L 421.68 266.360442 
L 421.68 278.474849 
L 432.84 289.60577 
L 421.68 300.73669 
L 421.68 312.851097 
" clip-path="url(#p87a8ebb9a8)" style="fill: none; stroke: #000000; stroke-linecap: square"/>
   </g>
   <g id="line2d_24">
    <path d="M 444 312.851097 
L 444 359.341752 
" clip-path="url(#p87a8ebb9a8)" style="fill: none; stroke: #000000; stroke-linecap: square"/>
   </g>
   <g id="line2d_25">
    <path d="M 444 266.360442 
L 444 196.624459 
" clip-path="url(#p87a8ebb9a8)" style="fill: none; stroke: #000000; stroke-linecap: square"/>
   </g>
   <g id="line2d_26">
    <path d="M 432.84 359.341752 
L 455.16 359.341752 
" clip-path="url(#p87a8ebb9a8)" style="fill: none; stroke: #000000; stroke-linecap: square"/>
   </g>
   <g id="line2d_27">
    <path d="M 432.84 196.624459 
L 455.16 196.624459 
" clip-path="url(#p87a8ebb9a8)" style="fill: none; stroke: #000000; stroke-linecap: square"/>
   </g>
   <g id="line2d_28">
    <g clip-path="url(#p87a8ebb9a8)">
     <use xlink:href="#m9c44d3e435" x="444" y="185.001796" style="fill-opacity: 0; stroke: #000000"/>
    </g>
   </g>
   <g id="line2d_29">
    <path d="M 135.24 231.492451 
L 157.56 231.492451 
" clip-path="url(#p87a8ebb9a8)" style="fill: none; stroke: #ff7f0e; stroke-linecap: square"/>
   </g>
   <g id="line2d_30">
    <path d="M 284.04 277.983106 
L 306.36 277.983106 
" clip-path="url(#p87a8ebb9a8)" style="fill: none; stroke: #ff7f0e; stroke-linecap: square"/>
   </g>
   <g id="line2d_31">
    <path d="M 432.84 289.60577 
L 455.16 289.60577 
" clip-path="url(#p87a8ebb9a8)" style="fill: none; stroke: #ff7f0e; stroke-linecap: square"/>
   </g>
   <g id="patch_3">
    <path d="M 72 441 
L 72 60.48 
" style="fill: none; stroke: #000000; stroke-width: 0.8; stroke-linejoin: miter; stroke-linecap: square"/>
   </g>
   <g id="patch_4">
    <path d="M 518.4 441 
L 518.4 60.48 
" style="fill: none; stroke: #000000; stroke-width: 0.8; stroke-linejoin: miter; stroke-linecap: square"/>
   </g>
   <g id="patch_5">
    <path d="M 72 441 
L 518.4 441 
" style="fill: none; stroke: #000000; stroke-width: 0.8; stroke-linejoin: miter; stroke-linecap: square"/>
   </g>
   <g id="patch_6">
    <path d="M 72 60.48 
L 518.4 60.48 
" style="fill: none; stroke: #000000; stroke-width: 0.8; stroke-linejoin: miter; stroke-linecap: square"/>
   </g>
   <g id="text_11">
    <!-- IOP -->
    <g transform="translate(278.348437 54.48)scale(0.2 -0.2)">
     <defs>
      <path id="DejaVuSans-49" d="M 628 4666 
L 1259 4666 
L 1259 0 
L 628 0 
L 628 4666 
z
" transform="scale(0.015625)"/>
      <path id="DejaVuSans-4f" d="M 2522 4238 
Q 1834 4238 1429 3725 
Q 1025 3213 1025 2328 
Q 1025 1447 1429 934 
Q 1834 422 2522 422 
Q 3209 422 3611 934 
Q 4013 1447 4013 2328 
Q 4013 3213 3611 3725 
Q 3209 4238 2522 4238 
z
M 2522 4750 
Q 3503 4750 4090 4092 
Q 4678 3434 4678 2328 
Q 4678 1225 4090 567 
Q 3503 -91 2522 -91 
Q 1538 -91 948 565 
Q 359 1222 359 2328 
Q 359 3434 948 4092 
Q 1538 4750 2522 4750 
z
" transform="scale(0.015625)"/>
     </defs>
     <use xlink:href="#DejaVuSans-49"/>
     <use xlink:href="#DejaVuSans-4f" x="29.492188"/>
     <use xlink:href="#DejaVuSans-50" x="108.203125"/>
    </g>
   </g>
  </g>
 </g>
 <defs>
  <clipPath id="p87a8ebb9a8">
   <rect x="72" y="60.48" width="446.4" height="380.52"/>
  </clipPath>
 </defs>
</svg>
