<?xml version="1.0" encoding="utf-8" standalone="no"?>
<!DOCTYPE svg PUBLIC "-//W3C//DTD SVG 1.1//EN"
  "http://www.w3.org/Graphics/SVG/1.1/DTD/svg11.dtd">
<svg xmlns:xlink="http://www.w3.org/1999/xlink" width="576pt" height="504pt" viewBox="0 0 576 504" xmlns="http://www.w3.org/2000/svg" version="1.1">
 <metadata>
  <rdf:RDF xmlns:dc="http://purl.org/dc/elements/1.1/" xmlns:cc="http://creativecommons.org/ns#" xmlns:rdf="http://www.w3.org/1999/02/22-rdf-syntax-ns#">
   <cc:Work>
    <dc:type rdf:resource="http://purl.org/dc/dcmitype/StillImage"/>
    <dc:date>2023-06-23T21:28:28.769527</dc:date>
    <dc:format>image/svg+xml</dc:format>
    <dc:creator>
     <cc:Agent>
      <dc:title>Matplotlib v3.5.1, https://matplotlib.org/</dc:title>
     </cc:Agent>
    </dc:creator>
   </cc:Work>
  </rdf:RDF>
 </metadata>
 <defs>
  <style type="text/css">*{stroke-linejoin: round; stroke-linecap: butt}</style>
 </defs>
 <g id="figure_1">
  <g id="patch_1">
   <path d="M 0 504 
L 576 504 
L 576 0 
L 0 0 
L 0 504 
z
" style="fill: none"/>
  </g>
  <g id="axes_1">
   <g id="patch_2">
    <path d="M 72 441 
L 518.4 441 
L 518.4 60.48 
L 72 60.48 
z
" style="fill: #ffffff"/>
   </g>
   <g id="PolyCollection_1">
    <defs>
     <path id="m9e28a2ecc0" d="M 146.420157 -105.552555 
L 146.379843 -105.552555 
L 146.363926 -108.791656 
L 146.337374 -112.030758 
L 146.29448 -115.26986 
L 146.227333 -118.508962 
L 146.125387 -121.748064 
L 145.975126 -124.987166 
L 145.759853 -128.226267 
L 145.45965 -131.465369 
L 145.0515 -134.704471 
L 144.509566 -137.943573 
L 143.805632 -141.182675 
L 142.909786 -144.421777 
L 141.79153 -147.660878 
L 140.421625 -150.89998 
L 138.775 -154.139082 
L 136.834984 -157.378184 
L 134.598757 -160.617286 
L 132.083442 -163.856388 
L 129.331655 -167.095489 
L 126.414868 -170.334591 
L 123.432817 -173.573693 
L 120.507636 -176.812795 
L 117.772325 -180.051897 
L 115.354572 -183.290999 
L 113.358309 -186.5301 
L 111.846411 -189.769202 
L 110.828226 -193.008304 
L 110.254993 -196.247406 
L 110.024773 -199.486508 
L 109.996631 -202.72561 
L 110.011884 -205.964712 
L 109.918813 -209.203813 
L 109.596543 -212.442915 
L 108.974041 -215.682017 
L 108.041203 -218.921119 
L 106.850505 -222.160221 
L 105.509417 -225.399323 
L 104.165284 -228.638424 
L 102.985407 -231.877526 
L 102.135556 -235.116628 
L 101.76 -238.35573 
L 101.96555 -241.594832 
L 102.81124 -244.833934 
L 104.304329 -248.073035 
L 106.402416 -251.312137 
L 109.02078 -254.551239 
L 112.043538 -257.790341 
L 115.336934 -261.029443 
L 118.762978 -264.268545 
L 122.191784 -267.507646 
L 125.511252 -270.746748 
L 128.633267 -273.98585 
L 131.496178 -277.224952 
L 134.063904 -280.464054 
L 136.322524 -283.703156 
L 138.275409 -286.942257 
L 139.938001 -290.181359 
L 141.333095 -293.420461 
L 142.487138 -296.659563 
L 143.427678 -299.898665 
L 144.181842 -303.137767 
L 144.775504 -306.376868 
L 145.232829 -309.61597 
L 145.575938 -312.855072 
L 145.824535 -316.094174 
L 145.995508 -319.333276 
L 146.102558 -322.572378 
L 146.155979 -325.811479 
L 146.162695 -329.050581 
L 146.126659 -332.289683 
L 146.049634 -335.528785 
L 145.932344 -338.767887 
L 145.775877 -342.006989 
L 145.58317 -345.24609 
L 145.360296 -348.485192 
L 145.117288 -351.724294 
L 144.868221 -354.963396 
L 144.63041 -358.202498 
L 144.422741 -361.4416 
L 144.263363 -364.680701 
L 144.167155 -367.919803 
L 144.143469 -371.158905 
L 144.194656 -374.398007 
L 144.315688 -377.637109 
L 144.494979 -380.876211 
L 144.716211 -384.115312 
L 144.960783 -387.354414 
L 145.21036 -390.593516 
L 145.449055 -393.832618 
L 145.664901 -397.07172 
L 145.850476 -400.310822 
L 146.002736 -403.549924 
L 146.122271 -406.789025 
L 146.212235 -410.028127 
L 146.27724 -413.267229 
L 146.322384 -416.506331 
L 146.352543 -419.745433 
L 146.37194 -422.984535 
L 146.383955 -426.223636 
L 146.416045 -426.223636 
L 146.416045 -426.223636 
L 146.42806 -422.984535 
L 146.447457 -419.745433 
L 146.477616 -416.506331 
L 146.52276 -413.267229 
L 146.587765 -410.028127 
L 146.677729 -406.789025 
L 146.797264 -403.549924 
L 146.949524 -400.310822 
L 147.135099 -397.07172 
L 147.350945 -393.832618 
L 147.58964 -390.593516 
L 147.839217 -387.354414 
L 148.083789 -384.115312 
L 148.305021 -380.876211 
L 148.484312 -377.637109 
L 148.605344 -374.398007 
L 148.656531 -371.158905 
L 148.632845 -367.919803 
L 148.536637 -364.680701 
L 148.377259 -361.4416 
L 148.16959 -358.202498 
L 147.931779 -354.963396 
L 147.682712 -351.724294 
L 147.439704 -348.485192 
L 147.21683 -345.24609 
L 147.024123 -342.006989 
L 146.867656 -338.767887 
L 146.750366 -335.528785 
L 146.673341 -332.289683 
L 146.637305 -329.050581 
L 146.644021 -325.811479 
L 146.697442 -322.572378 
L 146.804492 -319.333276 
L 146.975465 -316.094174 
L 147.224062 -312.855072 
L 147.567171 -309.61597 
L 148.024496 -306.376868 
L 148.618158 -303.137767 
L 149.372322 -299.898665 
L 150.312862 -296.659563 
L 151.466905 -293.420461 
L 152.861999 -290.181359 
L 154.524591 -286.942257 
L 156.477476 -283.703156 
L 158.736096 -280.464054 
L 161.303822 -277.224952 
L 164.166733 -273.98585 
L 167.288748 -270.746748 
L 170.608216 -267.507646 
L 174.037022 -264.268545 
L 177.463066 -261.029443 
L 180.756462 -257.790341 
L 183.77922 -254.551239 
L 186.397584 -251.312137 
L 188.495671 -248.073035 
L 189.98876 -244.833934 
L 190.83445 -241.594832 
L 191.04 -238.35573 
L 190.664444 -235.116628 
L 189.814593 -231.877526 
L 188.634716 -228.638424 
L 187.290583 -225.399323 
L 185.949495 -222.160221 
L 184.758797 -218.921119 
L 183.825959 -215.682017 
L 183.203457 -212.442915 
L 182.881187 -209.203813 
L 182.788116 -205.964712 
L 182.803369 -202.72561 
L 182.775227 -199.486508 
L 182.545007 -196.247406 
L 181.971774 -193.008304 
L 180.953589 -189.769202 
L 179.441691 -186.5301 
L 177.445428 -183.290999 
L 175.027675 -180.051897 
L 172.292364 -176.812795 
L 169.367183 -173.573693 
L 166.385132 -170.334591 
L 163.468345 -167.095489 
L 160.716558 -163.856388 
L 158.201243 -160.617286 
L 155.965016 -157.378184 
L 154.025 -154.139082 
L 152.378375 -150.89998 
L 151.00847 -147.660878 
L 149.890214 -144.421777 
L 148.994368 -141.182675 
L 148.290434 -137.943573 
L 147.7485 -134.704471 
L 147.34035 -131.465369 
L 147.040147 -128.226267 
L 146.824874 -124.987166 
L 146.674613 -121.748064 
L 146.572667 -118.508962 
L 146.50552 -115.26986 
L 146.462626 -112.030758 
L 146.436074 -108.791656 
L 146.420157 -105.552555 
z
" style="stroke: #000000; stroke-opacity: 0.5"/>
    </defs>
    <g clip-path="url(#p92b55cdac3)">
     <use xlink:href="#m9e28a2ecc0" x="0" y="504" style="fill: #8bc191; fill-opacity: 0.5; stroke: #000000; stroke-opacity: 0.5"/>
    </g>
   </g>
   <g id="PolyCollection_2">
    <defs>
     <path id="m433dc01162" d="M 295.241582 -103.717788 
L 295.158418 -103.717788 
L 295.130514 -106.434527 
L 295.08647 -109.151266 
L 295.018619 -111.868004 
L 294.916597 -114.584743 
L 294.766882 -117.301482 
L 294.552456 -120.018221 
L 294.252737 -122.734959 
L 293.843879 -125.451698 
L 293.299563 -128.168437 
L 292.592343 -130.885176 
L 291.69554 -133.601914 
L 290.58558 -136.318653 
L 289.244567 -139.035392 
L 287.662778 -141.752131 
L 285.840706 -144.468869 
L 283.79029 -147.185608 
L 281.535039 -149.902347 
L 279.108916 -152.619086 
L 276.554067 -155.335824 
L 273.917706 -158.052563 
L 271.248663 -160.769302 
L 268.594192 -163.486041 
L 265.997636 -166.202779 
L 263.497351 -168.919518 
L 261.127027 -171.636257 
L 258.917192 -174.352996 
L 256.897366 -177.069734 
L 255.098114 -179.786473 
L 253.552202 -182.503212 
L 252.294187 -185.219951 
L 251.358131 -187.936689 
L 250.773525 -190.653428 
L 250.56 -193.370167 
L 250.721743 -196.086906 
L 251.242737 -198.803644 
L 252.083915 -201.520383 
L 253.183052 -204.237122 
L 254.457783 -206.953861 
L 255.81161 -209.670599 
L 257.142242 -212.387338 
L 258.351207 -215.104077 
L 259.353451 -217.820816 
L 260.085665 -220.537555 
L 260.51227 -223.254293 
L 260.628403 -225.971032 
L 260.459684 -228.687771 
L 260.059042 -231.40451 
L 259.501187 -234.121248 
L 258.875607 -236.837987 
L 258.278945 -239.554726 
L 257.807551 -242.271465 
L 257.55078 -244.988203 
L 257.585365 -247.704942 
L 257.970995 -250.421681 
L 258.7471 -253.13842 
L 259.930808 -255.855158 
L 261.516081 -258.571897 
L 263.474079 -261.288636 
L 265.754864 -264.005375 
L 268.29048 -266.722113 
L 270.999372 -269.438852 
L 273.791889 -272.155591 
L 276.576464 -274.87233 
L 279.265895 -277.589068 
L 281.783095 -280.305807 
L 284.065744 -283.022546 
L 286.069394 -285.739285 
L 287.768842 -288.456023 
L 289.157789 -291.172762 
L 290.247033 -293.889501 
L 291.061554 -296.60624 
L 291.636948 -299.322978 
L 292.015587 -302.039717 
L 292.242889 -304.756456 
L 292.363918 -307.473195 
L 292.420504 -310.189933 
L 292.448993 -312.906672 
L 292.478666 -315.623411 
L 292.530864 -318.34015 
L 292.618815 -321.056889 
L 292.748101 -323.773627 
L 292.917688 -326.490366 
L 293.121372 -329.207105 
L 293.349468 -331.923844 
L 293.590539 -334.640582 
L 293.83299 -337.357321 
L 294.066362 -340.07406 
L 294.28224 -342.790799 
L 294.474729 -345.507537 
L 294.640545 -348.224276 
L 294.778779 -350.941015 
L 294.890453 -353.657754 
L 294.977971 -356.374492 
L 295.044562 -359.091231 
L 295.09379 -361.80797 
L 295.129167 -364.524709 
L 295.153894 -367.241447 
L 295.170708 -369.958186 
L 295.181837 -372.674925 
L 295.218163 -372.674925 
L 295.218163 -372.674925 
L 295.229292 -369.958186 
L 295.246106 -367.241447 
L 295.270833 -364.524709 
L 295.30621 -361.80797 
L 295.355438 -359.091231 
L 295.422029 -356.374492 
L 295.509547 -353.657754 
L 295.621221 -350.941015 
L 295.759455 -348.224276 
L 295.925271 -345.507537 
L 296.11776 -342.790799 
L 296.333638 -340.07406 
L 296.56701 -337.357321 
L 296.809461 -334.640582 
L 297.050532 -331.923844 
L 297.278628 -329.207105 
L 297.482312 -326.490366 
L 297.651899 -323.773627 
L 297.781185 -321.056889 
L 297.869136 -318.34015 
L 297.921334 -315.623411 
L 297.951007 -312.906672 
L 297.979496 -310.189933 
L 298.036082 -307.473195 
L 298.157111 -304.756456 
L 298.384413 -302.039717 
L 298.763052 -299.322978 
L 299.338446 -296.60624 
L 300.152967 -293.889501 
L 301.242211 -291.172762 
L 302.631158 -288.456023 
L 304.330606 -285.739285 
L 306.334256 -283.022546 
L 308.616905 -280.305807 
L 311.134105 -277.589068 
L 313.823536 -274.87233 
L 316.608111 -272.155591 
L 319.400628 -269.438852 
L 322.10952 -266.722113 
L 324.645136 -264.005375 
L 326.925921 -261.288636 
L 328.883919 -258.571897 
L 330.469192 -255.855158 
L 331.6529 -253.13842 
L 332.429005 -250.421681 
L 332.814635 -247.704942 
L 332.84922 -244.988203 
L 332.592449 -242.271465 
L 332.121055 -239.554726 
L 331.524393 -236.837987 
L 330.898813 -234.121248 
L 330.340958 -231.40451 
L 329.940316 -228.687771 
L 329.771597 -225.971032 
L 329.88773 -223.254293 
L 330.314335 -220.537555 
L 331.046549 -217.820816 
L 332.048793 -215.104077 
L 333.257758 -212.387338 
L 334.58839 -209.670599 
L 335.942217 -206.953861 
L 337.216948 -204.237122 
L 338.316085 -201.520383 
L 339.157263 -198.803644 
L 339.678257 -196.086906 
L 339.84 -193.370167 
L 339.626475 -190.653428 
L 339.041869 -187.936689 
L 338.105813 -185.219951 
L 336.847798 -182.503212 
L 335.301886 -179.786473 
L 333.502634 -177.069734 
L 331.482808 -174.352996 
L 329.272973 -171.636257 
L 326.902649 -168.919518 
L 324.402364 -166.202779 
L 321.805808 -163.486041 
L 319.151337 -160.769302 
L 316.482294 -158.052563 
L 313.845933 -155.335824 
L 311.291084 -152.619086 
L 308.864961 -149.902347 
L 306.60971 -147.185608 
L 304.559294 -144.468869 
L 302.737222 -141.752131 
L 301.155433 -139.035392 
L 299.81442 -136.318653 
L 298.70446 -133.601914 
L 297.807657 -130.885176 
L 297.100437 -128.168437 
L 296.556121 -125.451698 
L 296.147263 -122.734959 
L 295.847544 -120.018221 
L 295.633118 -117.301482 
L 295.483403 -114.584743 
L 295.381381 -111.868004 
L 295.31353 -109.151266 
L 295.269486 -106.434527 
L 295.241582 -103.717788 
z
" style="stroke: #000000; stroke-opacity: 0.5"/>
    </defs>
    <g clip-path="url(#p92b55cdac3)">
     <use xlink:href="#m433dc01162" x="0" y="504" style="fill: #8bc191; fill-opacity: 0.5; stroke: #000000; stroke-opacity: 0.5"/>
    </g>
   </g>
   <g id="PolyCollection_3">
    <defs>
     <path id="me7d2f635df" d="M 444.019499 -80.296364 
L 443.980501 -80.296364 
L 443.969047 -82.92148 
L 443.951802 -85.546596 
L 443.926369 -88.171713 
L 443.88962 -90.796829 
L 443.837594 -93.421946 
L 443.765415 -96.047062 
L 443.667264 -98.672178 
L 443.536415 -101.297295 
L 443.365346 -103.922411 
L 443.145939 -106.547527 
L 442.869744 -109.172644 
L 442.528305 -111.79776 
L 442.113487 -114.422877 
L 441.617768 -117.047993 
L 441.034431 -119.673109 
L 440.35761 -122.298226 
L 439.582144 -124.923342 
L 438.703265 -127.548459 
L 437.716124 -130.173575 
L 436.615276 -132.798691 
L 435.39423 -135.423808 
L 434.045238 -138.048924 
L 432.559474 -140.67404 
L 430.927729 -143.299157 
L 429.14171 -145.924273 
L 427.195887 -148.54939 
L 425.089773 -151.174506 
L 422.830379 -153.799622 
L 420.434497 -156.424739 
L 417.93044 -159.049855 
L 415.358861 -161.674972 
L 412.772344 -164.300088 
L 410.233638 -166.925204 
L 407.812526 -169.550321 
L 405.581564 -172.175437 
L 403.611078 -174.800553 
L 401.963932 -177.42567 
L 400.690643 -180.050786 
L 399.8254 -182.675903 
L 399.383431 -185.301019 
L 399.36 -187.926135 
L 399.73113 -190.551252 
L 400.455926 -193.176368 
L 401.480198 -195.801485 
L 402.740946 -198.426601 
L 404.171194 -201.051717 
L 405.704652 -203.676834 
L 407.279744 -206.30195 
L 408.842653 -208.927066 
L 410.349196 -211.552183 
L 411.765496 -214.177299 
L 413.067606 -216.802416 
L 414.240348 -219.427532 
L 415.27573 -222.052648 
L 416.171314 -224.677765 
L 416.928855 -227.302881 
L 417.55343 -229.927998 
L 418.05313 -232.553114 
L 418.439246 -235.17823 
L 418.726742 -237.803347 
L 418.934744 -240.428463 
L 419.086767 -243.053579 
L 419.210442 -245.678696 
L 419.336625 -248.303812 
L 419.497902 -250.928929 
L 419.726615 -253.554045 
L 420.052656 -256.179161 
L 420.501298 -258.804278 
L 421.091348 -261.429394 
L 421.833819 -264.054511 
L 422.731279 -266.679627 
L 423.777862 -269.304743 
L 424.959932 -271.92986 
L 426.257224 -274.554976 
L 427.644348 -277.180092 
L 429.092467 -279.805209 
L 430.571014 -282.430325 
L 432.049347 -285.055442 
L 433.498235 -287.680558 
L 434.891139 -290.305674 
L 436.205239 -292.930791 
L 437.422183 -295.555907 
L 438.528539 -298.181024 
L 439.515951 -300.80614 
L 440.380998 -303.431256 
L 441.124791 -306.056373 
L 441.752344 -308.681489 
L 442.271794 -311.306605 
L 442.693522 -313.931722 
L 443.029279 -316.556838 
L 443.291354 -319.181955 
L 443.491872 -321.807071 
L 443.642231 -324.432187 
L 443.752709 -327.057304 
L 443.832241 -329.68242 
L 443.888328 -332.307537 
L 443.927072 -334.932653 
L 443.953284 -337.557769 
L 443.970651 -340.182886 
L 444.029349 -340.182886 
L 444.029349 -340.182886 
L 444.046716 -337.557769 
L 444.072928 -334.932653 
L 444.111672 -332.307537 
L 444.167759 -329.68242 
L 444.247291 -327.057304 
L 444.357769 -324.432187 
L 444.508128 -321.807071 
L 444.708646 -319.181955 
L 444.970721 -316.556838 
L 445.306478 -313.931722 
L 445.728206 -311.306605 
L 446.247656 -308.681489 
L 446.875209 -306.056373 
L 447.619002 -303.431256 
L 448.484049 -300.80614 
L 449.471461 -298.181024 
L 450.577817 -295.555907 
L 451.794761 -292.930791 
L 453.108861 -290.305674 
L 454.501765 -287.680558 
L 455.950653 -285.055442 
L 457.428986 -282.430325 
L 458.907533 -279.805209 
L 460.355652 -277.180092 
L 461.742776 -274.554976 
L 463.040068 -271.92986 
L 464.222138 -269.304743 
L 465.268721 -266.679627 
L 466.166181 -264.054511 
L 466.908652 -261.429394 
L 467.498702 -258.804278 
L 467.947344 -256.179161 
L 468.273385 -253.554045 
L 468.502098 -250.928929 
L 468.663375 -248.303812 
L 468.789558 -245.678696 
L 468.913233 -243.053579 
L 469.065256 -240.428463 
L 469.273258 -237.803347 
L 469.560754 -235.17823 
L 469.94687 -232.553114 
L 470.44657 -229.927998 
L 471.071145 -227.302881 
L 471.828686 -224.677765 
L 472.72427 -222.052648 
L 473.759652 -219.427532 
L 474.932394 -216.802416 
L 476.234504 -214.177299 
L 477.650804 -211.552183 
L 479.157347 -208.927066 
L 480.720256 -206.30195 
L 482.295348 -203.676834 
L 483.828806 -201.051717 
L 485.259054 -198.426601 
L 486.519802 -195.801485 
L 487.544074 -193.176368 
L 488.26887 -190.551252 
L 488.64 -187.926135 
L 488.616569 -185.301019 
L 488.1746 -182.675903 
L 487.309357 -180.050786 
L 486.036068 -177.42567 
L 484.388922 -174.800553 
L 482.418436 -172.175437 
L 480.187474 -169.550321 
L 477.766362 -166.925204 
L 475.227656 -164.300088 
L 472.641139 -161.674972 
L 470.06956 -159.049855 
L 467.565503 -156.424739 
L 465.169621 -153.799622 
L 462.910227 -151.174506 
L 460.804113 -148.54939 
L 458.85829 -145.924273 
L 457.072271 -143.299157 
L 455.440526 -140.67404 
L 453.954762 -138.048924 
L 452.60577 -135.423808 
L 451.384724 -132.798691 
L 450.283876 -130.173575 
L 449.296735 -127.548459 
L 448.417856 -124.923342 
L 447.64239 -122.298226 
L 446.965569 -119.673109 
L 446.382232 -117.047993 
L 445.886513 -114.422877 
L 445.471695 -111.79776 
L 445.130256 -109.172644 
L 444.854061 -106.547527 
L 444.634654 -103.922411 
L 444.463585 -101.297295 
L 444.332736 -98.672178 
L 444.234585 -96.047062 
L 444.162406 -93.421946 
L 444.11038 -90.796829 
L 444.073631 -88.171713 
L 444.048198 -85.546596 
L 444.030953 -82.92148 
L 444.019499 -80.296364 
z
" style="stroke: #000000; stroke-opacity: 0.5"/>
    </defs>
    <g clip-path="url(#p92b55cdac3)">
     <use xlink:href="#me7d2f635df" x="0" y="504" style="fill: #8bc191; fill-opacity: 0.5; stroke: #000000; stroke-opacity: 0.5"/>
    </g>
   </g>
   <g id="matplotlib.axis_1">
    <g id="xtick_1">
     <g id="line2d_1">
      <defs>
       <path id="m96cb57e3f0" d="M 0 0 
L 0 3.5 
" style="stroke: #000000; stroke-width: 0.8"/>
      </defs>
      <g>
       <use xlink:href="#m96cb57e3f0" x="146.4" y="441" style="stroke: #000000; stroke-width: 0.8"/>
      </g>
     </g>
     <g id="text_1">
      <!-- Před -->
      <g transform="translate(129.718359 459.397656)scale(0.15 -0.15)">
       <defs>
        <path id="DejaVuSans-50" d="M 1259 4147 
L 1259 2394 
L 2053 2394 
Q 2494 2394 2734 2622 
Q 2975 2850 2975 3272 
Q 2975 3691 2734 3919 
Q 2494 4147 2053 4147 
L 1259 4147 
z
M 628 4666 
L 2053 4666 
Q 2838 4666 3239 4311 
Q 3641 3956 3641 3272 
Q 3641 2581 3239 2228 
Q 2838 1875 2053 1875 
L 1259 1875 
L 1259 0 
L 628 0 
L 628 4666 
z
" transform="scale(0.015625)"/>
        <path id="DejaVuSans-159" d="M 2631 2963 
Q 2534 3019 2420 3045 
Q 2306 3072 2169 3072 
Q 1681 3072 1420 2755 
Q 1159 2438 1159 1844 
L 1159 0 
L 581 0 
L 581 3500 
L 1159 3500 
L 1159 2956 
Q 1341 3275 1631 3429 
Q 1922 3584 2338 3584 
Q 2397 3584 2469 3576 
Q 2541 3569 2628 3553 
L 2631 2963 
z
M 1457 3944 
L 691 5119 
L 1126 5119 
L 1688 4353 
L 2251 5119 
L 2685 5119 
L 1919 3944 
L 1457 3944 
z
" transform="scale(0.015625)"/>
        <path id="DejaVuSans-65" d="M 3597 1894 
L 3597 1613 
L 953 1613 
Q 991 1019 1311 708 
Q 1631 397 2203 397 
Q 2534 397 2845 478 
Q 3156 559 3463 722 
L 3463 178 
Q 3153 47 2828 -22 
Q 2503 -91 2169 -91 
Q 1331 -91 842 396 
Q 353 884 353 1716 
Q 353 2575 817 3079 
Q 1281 3584 2069 3584 
Q 2775 3584 3186 3129 
Q 3597 2675 3597 1894 
z
M 3022 2063 
Q 3016 2534 2758 2815 
Q 2500 3097 2075 3097 
Q 1594 3097 1305 2825 
Q 1016 2553 972 2059 
L 3022 2063 
z
" transform="scale(0.015625)"/>
        <path id="DejaVuSans-64" d="M 2906 2969 
L 2906 4863 
L 3481 4863 
L 3481 0 
L 2906 0 
L 2906 525 
Q 2725 213 2448 61 
Q 2172 -91 1784 -91 
Q 1150 -91 751 415 
Q 353 922 353 1747 
Q 353 2572 751 3078 
Q 1150 3584 1784 3584 
Q 2172 3584 2448 3432 
Q 2725 3281 2906 2969 
z
M 947 1747 
Q 947 1113 1208 752 
Q 1469 391 1925 391 
Q 2381 391 2643 752 
Q 2906 1113 2906 1747 
Q 2906 2381 2643 2742 
Q 2381 3103 1925 3103 
Q 1469 3103 1208 2742 
Q 947 2381 947 1747 
z
" transform="scale(0.015625)"/>
       </defs>
       <use xlink:href="#DejaVuSans-50"/>
       <use xlink:href="#DejaVuSans-159" x="58.552734"/>
       <use xlink:href="#DejaVuSans-65" x="97.416016"/>
       <use xlink:href="#DejaVuSans-64" x="158.939453"/>
      </g>
     </g>
    </g>
    <g id="xtick_2">
     <g id="line2d_2">
      <g>
       <use xlink:href="#m96cb57e3f0" x="295.2" y="441" style="stroke: #000000; stroke-width: 0.8"/>
      </g>
     </g>
     <g id="text_2">
      <!-- Po 2 týdnech -->
      <g transform="translate(246.435937 459.997656)scale(0.15 -0.15)">
       <defs>
        <path id="DejaVuSans-6f" d="M 1959 3097 
Q 1497 3097 1228 2736 
Q 959 2375 959 1747 
Q 959 1119 1226 758 
Q 1494 397 1959 397 
Q 2419 397 2687 759 
Q 2956 1122 2956 1747 
Q 2956 2369 2687 2733 
Q 2419 3097 1959 3097 
z
M 1959 3584 
Q 2709 3584 3137 3096 
Q 3566 2609 3566 1747 
Q 3566 888 3137 398 
Q 2709 -91 1959 -91 
Q 1206 -91 779 398 
Q 353 888 353 1747 
Q 353 2609 779 3096 
Q 1206 3584 1959 3584 
z
" transform="scale(0.015625)"/>
        <path id="DejaVuSans-20" transform="scale(0.015625)"/>
        <path id="DejaVuSans-32" d="M 1228 531 
L 3431 531 
L 3431 0 
L 469 0 
L 469 531 
Q 828 903 1448 1529 
Q 2069 2156 2228 2338 
Q 2531 2678 2651 2914 
Q 2772 3150 2772 3378 
Q 2772 3750 2511 3984 
Q 2250 4219 1831 4219 
Q 1534 4219 1204 4116 
Q 875 4013 500 3803 
L 500 4441 
Q 881 4594 1212 4672 
Q 1544 4750 1819 4750 
Q 2544 4750 2975 4387 
Q 3406 4025 3406 3419 
Q 3406 3131 3298 2873 
Q 3191 2616 2906 2266 
Q 2828 2175 2409 1742 
Q 1991 1309 1228 531 
z
" transform="scale(0.015625)"/>
        <path id="DejaVuSans-74" d="M 1172 4494 
L 1172 3500 
L 2356 3500 
L 2356 3053 
L 1172 3053 
L 1172 1153 
Q 1172 725 1289 603 
Q 1406 481 1766 481 
L 2356 481 
L 2356 0 
L 1766 0 
Q 1100 0 847 248 
Q 594 497 594 1153 
L 594 3053 
L 172 3053 
L 172 3500 
L 594 3500 
L 594 4494 
L 1172 4494 
z
" transform="scale(0.015625)"/>
        <path id="DejaVuSans-fd" d="M 2059 -325 
Q 1816 -950 1584 -1140 
Q 1353 -1331 966 -1331 
L 506 -1331 
L 506 -850 
L 844 -850 
Q 1081 -850 1212 -737 
Q 1344 -625 1503 -206 
L 1606 56 
L 191 3500 
L 800 3500 
L 1894 763 
L 2988 3500 
L 3597 3500 
L 2059 -325 
z
M 2330 5119 
L 2952 5119 
L 1934 3944 
L 1455 3944 
L 2330 5119 
z
" transform="scale(0.015625)"/>
        <path id="DejaVuSans-6e" d="M 3513 2113 
L 3513 0 
L 2938 0 
L 2938 2094 
Q 2938 2591 2744 2837 
Q 2550 3084 2163 3084 
Q 1697 3084 1428 2787 
Q 1159 2491 1159 1978 
L 1159 0 
L 581 0 
L 581 3500 
L 1159 3500 
L 1159 2956 
Q 1366 3272 1645 3428 
Q 1925 3584 2291 3584 
Q 2894 3584 3203 3211 
Q 3513 2838 3513 2113 
z
" transform="scale(0.015625)"/>
        <path id="DejaVuSans-63" d="M 3122 3366 
L 3122 2828 
Q 2878 2963 2633 3030 
Q 2388 3097 2138 3097 
Q 1578 3097 1268 2742 
Q 959 2388 959 1747 
Q 959 1106 1268 751 
Q 1578 397 2138 397 
Q 2388 397 2633 464 
Q 2878 531 3122 666 
L 3122 134 
Q 2881 22 2623 -34 
Q 2366 -91 2075 -91 
Q 1284 -91 818 406 
Q 353 903 353 1747 
Q 353 2603 823 3093 
Q 1294 3584 2113 3584 
Q 2378 3584 2631 3529 
Q 2884 3475 3122 3366 
z
" transform="scale(0.015625)"/>
        <path id="DejaVuSans-68" d="M 3513 2113 
L 3513 0 
L 2938 0 
L 2938 2094 
Q 2938 2591 2744 2837 
Q 2550 3084 2163 3084 
Q 1697 3084 1428 2787 
Q 1159 2491 1159 1978 
L 1159 0 
L 581 0 
L 581 4863 
L 1159 4863 
L 1159 2956 
Q 1366 3272 1645 3428 
Q 1925 3584 2291 3584 
Q 2894 3584 3203 3211 
Q 3513 2838 3513 2113 
z
" transform="scale(0.015625)"/>
       </defs>
       <use xlink:href="#DejaVuSans-50"/>
       <use xlink:href="#DejaVuSans-6f" x="56.677734"/>
       <use xlink:href="#DejaVuSans-20" x="117.859375"/>
       <use xlink:href="#DejaVuSans-32" x="149.646484"/>
       <use xlink:href="#DejaVuSans-20" x="213.269531"/>
       <use xlink:href="#DejaVuSans-74" x="245.056641"/>
       <use xlink:href="#DejaVuSans-fd" x="284.265625"/>
       <use xlink:href="#DejaVuSans-64" x="343.445312"/>
       <use xlink:href="#DejaVuSans-6e" x="406.921875"/>
       <use xlink:href="#DejaVuSans-65" x="470.300781"/>
       <use xlink:href="#DejaVuSans-63" x="531.824219"/>
       <use xlink:href="#DejaVuSans-68" x="586.804688"/>
      </g>
     </g>
    </g>
    <g id="xtick_3">
     <g id="line2d_3">
      <g>
       <use xlink:href="#m96cb57e3f0" x="444" y="441" style="stroke: #000000; stroke-width: 0.8"/>
      </g>
     </g>
     <g id="text_3">
      <!-- Po 8 týdnech -->
      <g transform="translate(395.235937 459.997656)scale(0.15 -0.15)">
       <defs>
        <path id="DejaVuSans-38" d="M 2034 2216 
Q 1584 2216 1326 1975 
Q 1069 1734 1069 1313 
Q 1069 891 1326 650 
Q 1584 409 2034 409 
Q 2484 409 2743 651 
Q 3003 894 3003 1313 
Q 3003 1734 2745 1975 
Q 2488 2216 2034 2216 
z
M 1403 2484 
Q 997 2584 770 2862 
Q 544 3141 544 3541 
Q 544 4100 942 4425 
Q 1341 4750 2034 4750 
Q 2731 4750 3128 4425 
Q 3525 4100 3525 3541 
Q 3525 3141 3298 2862 
Q 3072 2584 2669 2484 
Q 3125 2378 3379 2068 
Q 3634 1759 3634 1313 
Q 3634 634 3220 271 
Q 2806 -91 2034 -91 
Q 1263 -91 848 271 
Q 434 634 434 1313 
Q 434 1759 690 2068 
Q 947 2378 1403 2484 
z
M 1172 3481 
Q 1172 3119 1398 2916 
Q 1625 2713 2034 2713 
Q 2441 2713 2670 2916 
Q 2900 3119 2900 3481 
Q 2900 3844 2670 4047 
Q 2441 4250 2034 4250 
Q 1625 4250 1398 4047 
Q 1172 3844 1172 3481 
z
" transform="scale(0.015625)"/>
       </defs>
       <use xlink:href="#DejaVuSans-50"/>
       <use xlink:href="#DejaVuSans-6f" x="56.677734"/>
       <use xlink:href="#DejaVuSans-20" x="117.859375"/>
       <use xlink:href="#DejaVuSans-38" x="149.646484"/>
       <use xlink:href="#DejaVuSans-20" x="213.269531"/>
       <use xlink:href="#DejaVuSans-74" x="245.056641"/>
       <use xlink:href="#DejaVuSans-fd" x="284.265625"/>
       <use xlink:href="#DejaVuSans-64" x="343.445312"/>
       <use xlink:href="#DejaVuSans-6e" x="406.921875"/>
       <use xlink:href="#DejaVuSans-65" x="470.300781"/>
       <use xlink:href="#DejaVuSans-63" x="531.824219"/>
       <use xlink:href="#DejaVuSans-68" x="586.804688"/>
      </g>
     </g>
    </g>
   </g>
   <g id="matplotlib.axis_2">
    <g id="ytick_1">
     <g id="line2d_4">
      <defs>
       <path id="m1246f2d388" d="M 0 0 
L -3.5 0 
" style="stroke: #000000; stroke-width: 0.8"/>
      </defs>
      <g>
       <use xlink:href="#m1246f2d388" x="72" y="406.382281" style="stroke: #000000; stroke-width: 0.8"/>
      </g>
     </g>
     <g id="text_4">
      <!-- 0.2 -->
      <g transform="translate(41.145313 412.081109)scale(0.15 -0.15)">
       <defs>
        <path id="DejaVuSans-30" d="M 2034 4250 
Q 1547 4250 1301 3770 
Q 1056 3291 1056 2328 
Q 1056 1369 1301 889 
Q 1547 409 2034 409 
Q 2525 409 2770 889 
Q 3016 1369 3016 2328 
Q 3016 3291 2770 3770 
Q 2525 4250 2034 4250 
z
M 2034 4750 
Q 2819 4750 3233 4129 
Q 3647 3509 3647 2328 
Q 3647 1150 3233 529 
Q 2819 -91 2034 -91 
Q 1250 -91 836 529 
Q 422 1150 422 2328 
Q 422 3509 836 4129 
Q 1250 4750 2034 4750 
z
" transform="scale(0.015625)"/>
        <path id="DejaVuSans-2e" d="M 684 794 
L 1344 794 
L 1344 0 
L 684 0 
L 684 794 
z
" transform="scale(0.015625)"/>
       </defs>
       <use xlink:href="#DejaVuSans-30"/>
       <use xlink:href="#DejaVuSans-2e" x="63.623047"/>
       <use xlink:href="#DejaVuSans-32" x="95.410156"/>
      </g>
     </g>
    </g>
    <g id="ytick_2">
     <g id="line2d_5">
      <g>
       <use xlink:href="#m1246f2d388" x="72" y="353.383737" style="stroke: #000000; stroke-width: 0.8"/>
      </g>
     </g>
     <g id="text_5">
      <!-- 0.4 -->
      <g transform="translate(41.145313 359.082565)scale(0.15 -0.15)">
       <defs>
        <path id="DejaVuSans-34" d="M 2419 4116 
L 825 1625 
L 2419 1625 
L 2419 4116 
z
M 2253 4666 
L 3047 4666 
L 3047 1625 
L 3713 1625 
L 3713 1100 
L 3047 1100 
L 3047 0 
L 2419 0 
L 2419 1100 
L 313 1100 
L 313 1709 
L 2253 4666 
z
" transform="scale(0.015625)"/>
       </defs>
       <use xlink:href="#DejaVuSans-30"/>
       <use xlink:href="#DejaVuSans-2e" x="63.623047"/>
       <use xlink:href="#DejaVuSans-34" x="95.410156"/>
      </g>
     </g>
    </g>
    <g id="ytick_3">
     <g id="line2d_6">
      <g>
       <use xlink:href="#m1246f2d388" x="72" y="300.385193" style="stroke: #000000; stroke-width: 0.8"/>
      </g>
     </g>
     <g id="text_6">
      <!-- 0.6 -->
      <g transform="translate(41.145313 306.084021)scale(0.15 -0.15)">
       <defs>
        <path id="DejaVuSans-36" d="M 2113 2584 
Q 1688 2584 1439 2293 
Q 1191 2003 1191 1497 
Q 1191 994 1439 701 
Q 1688 409 2113 409 
Q 2538 409 2786 701 
Q 3034 994 3034 1497 
Q 3034 2003 2786 2293 
Q 2538 2584 2113 2584 
z
M 3366 4563 
L 3366 3988 
Q 3128 4100 2886 4159 
Q 2644 4219 2406 4219 
Q 1781 4219 1451 3797 
Q 1122 3375 1075 2522 
Q 1259 2794 1537 2939 
Q 1816 3084 2150 3084 
Q 2853 3084 3261 2657 
Q 3669 2231 3669 1497 
Q 3669 778 3244 343 
Q 2819 -91 2113 -91 
Q 1303 -91 875 529 
Q 447 1150 447 2328 
Q 447 3434 972 4092 
Q 1497 4750 2381 4750 
Q 2619 4750 2861 4703 
Q 3103 4656 3366 4563 
z
" transform="scale(0.015625)"/>
       </defs>
       <use xlink:href="#DejaVuSans-30"/>
       <use xlink:href="#DejaVuSans-2e" x="63.623047"/>
       <use xlink:href="#DejaVuSans-36" x="95.410156"/>
      </g>
     </g>
    </g>
    <g id="ytick_4">
     <g id="line2d_7">
      <g>
       <use xlink:href="#m1246f2d388" x="72" y="247.38665" style="stroke: #000000; stroke-width: 0.8"/>
      </g>
     </g>
     <g id="text_7">
      <!-- 0.8 -->
      <g transform="translate(41.145313 253.085478)scale(0.15 -0.15)">
       <use xlink:href="#DejaVuSans-30"/>
       <use xlink:href="#DejaVuSans-2e" x="63.623047"/>
       <use xlink:href="#DejaVuSans-38" x="95.410156"/>
      </g>
     </g>
    </g>
    <g id="ytick_5">
     <g id="line2d_8">
      <g>
       <use xlink:href="#m1246f2d388" x="72" y="194.388106" style="stroke: #000000; stroke-width: 0.8"/>
      </g>
     </g>
     <g id="text_8">
      <!-- 1.0 -->
      <g transform="translate(41.145313 200.086934)scale(0.15 -0.15)">
       <defs>
        <path id="DejaVuSans-31" d="M 794 531 
L 1825 531 
L 1825 4091 
L 703 3866 
L 703 4441 
L 1819 4666 
L 2450 4666 
L 2450 531 
L 3481 531 
L 3481 0 
L 794 0 
L 794 531 
z
" transform="scale(0.015625)"/>
       </defs>
       <use xlink:href="#DejaVuSans-31"/>
       <use xlink:href="#DejaVuSans-2e" x="63.623047"/>
       <use xlink:href="#DejaVuSans-30" x="95.410156"/>
      </g>
     </g>
    </g>
    <g id="ytick_6">
     <g id="line2d_9">
      <g>
       <use xlink:href="#m1246f2d388" x="72" y="141.389562" style="stroke: #000000; stroke-width: 0.8"/>
      </g>
     </g>
     <g id="text_9">
      <!-- 1.2 -->
      <g transform="translate(41.145313 147.088391)scale(0.15 -0.15)">
       <use xlink:href="#DejaVuSans-31"/>
       <use xlink:href="#DejaVuSans-2e" x="63.623047"/>
       <use xlink:href="#DejaVuSans-32" x="95.410156"/>
      </g>
     </g>
    </g>
    <g id="ytick_7">
     <g id="line2d_10">
      <g>
       <use xlink:href="#m1246f2d388" x="72" y="88.391019" style="stroke: #000000; stroke-width: 0.8"/>
      </g>
     </g>
     <g id="text_10">
      <!-- 1.4 -->
      <g transform="translate(41.145313 94.089847)scale(0.15 -0.15)">
       <use xlink:href="#DejaVuSans-31"/>
       <use xlink:href="#DejaVuSans-2e" x="63.623047"/>
       <use xlink:href="#DejaVuSans-34" x="95.410156"/>
      </g>
     </g>
    </g>
   </g>
   <g id="line2d_11">
    <path d="M 124.08 310.984902 
L 168.72 310.984902 
L 168.72 289.542132 
L 157.56 276.535849 
L 168.72 263.529565 
L 168.72 256.661395 
L 124.08 256.661395 
L 124.08 263.529565 
L 135.24 276.535849 
L 124.08 289.542132 
L 124.08 310.984902 
" clip-path="url(#p92b55cdac3)" style="fill: none; stroke: #000000; stroke-linecap: square"/>
   </g>
   <g id="line2d_12">
    <path d="M 146.4 310.984902 
L 146.4 342.784028 
" clip-path="url(#p92b55cdac3)" style="fill: none; stroke: #000000; stroke-linecap: square"/>
   </g>
   <g id="line2d_13">
    <path d="M 146.4 256.661395 
L 146.4 220.887378 
" clip-path="url(#p92b55cdac3)" style="fill: none; stroke: #000000; stroke-linecap: square"/>
   </g>
   <g id="line2d_14">
    <path d="M 135.24 342.784028 
L 157.56 342.784028 
" clip-path="url(#p92b55cdac3)" style="fill: none; stroke: #000000; stroke-linecap: square"/>
   </g>
   <g id="line2d_15">
    <path d="M 135.24 220.887378 
L 157.56 220.887378 
" clip-path="url(#p92b55cdac3)" style="fill: none; stroke: #000000; stroke-linecap: square"/>
   </g>
   <g id="line2d_16">
    <defs>
     <path id="ma0a0d13cb9" d="M 0 3 
C 0.795609 3 1.55874 2.683901 2.12132 2.12132 
C 2.683901 1.55874 3 0.795609 3 0 
C 3 -0.795609 2.683901 -1.55874 2.12132 -2.12132 
C 1.55874 -2.683901 0.795609 -3 0 -3 
C -0.795609 -3 -1.55874 -2.683901 -2.12132 -2.12132 
C -2.683901 -1.55874 -3 -0.795609 -3 0 
C -3 0.795609 -2.683901 1.55874 -2.12132 2.12132 
C -1.55874 2.683901 -0.795609 3 0 3 
z
" style="stroke: #000000"/>
    </defs>
    <g clip-path="url(#p92b55cdac3)">
     <use xlink:href="#ma0a0d13cb9" x="146.4" y="133.439781" style="fill-opacity: 0; stroke: #000000"/>
    </g>
   </g>
   <g id="line2d_17">
    <path d="M 272.88 315.224785 
L 317.52 315.224785 
L 317.52 311.439448 
L 306.36 297.735266 
L 317.52 284.031084 
L 317.52 257.986358 
L 272.88 257.986358 
L 272.88 284.031084 
L 284.04 297.735266 
L 272.88 311.439448 
L 272.88 315.224785 
" clip-path="url(#p92b55cdac3)" style="fill: none; stroke: #000000; stroke-linecap: square"/>
   </g>
   <g id="line2d_18">
    <path d="M 295.2 315.224785 
L 295.2 345.433955 
" clip-path="url(#p92b55cdac3)" style="fill: none; stroke: #000000; stroke-linecap: square"/>
   </g>
   <g id="line2d_19">
    <path d="M 295.2 257.986358 
L 295.2 186.173332 
" clip-path="url(#p92b55cdac3)" style="fill: none; stroke: #000000; stroke-linecap: square"/>
   </g>
   <g id="line2d_20">
    <path d="M 284.04 345.433955 
L 306.36 345.433955 
" clip-path="url(#p92b55cdac3)" style="fill: none; stroke: #000000; stroke-linecap: square"/>
   </g>
   <g id="line2d_21">
    <path d="M 284.04 186.173332 
L 306.36 186.173332 
" clip-path="url(#p92b55cdac3)" style="fill: none; stroke: #000000; stroke-linecap: square"/>
   </g>
   <g id="line2d_22"/>
   <g id="line2d_23">
    <path d="M 421.68 324.234538 
L 466.32 324.234538 
L 466.32 319.643011 
L 455.16 305.685048 
L 466.32 291.727085 
L 466.32 265.93614 
L 421.68 265.93614 
L 421.68 291.727085 
L 432.84 305.685048 
L 421.68 319.643011 
L 421.68 324.234538 
" clip-path="url(#p92b55cdac3)" style="fill: none; stroke: #000000; stroke-linecap: square"/>
   </g>
   <g id="line2d_24">
    <path d="M 444 324.234538 
L 444 366.633373 
" clip-path="url(#p92b55cdac3)" style="fill: none; stroke: #000000; stroke-linecap: square"/>
   </g>
   <g id="line2d_25">
    <path d="M 444 265.93614 
L 444 220.887378 
" clip-path="url(#p92b55cdac3)" style="fill: none; stroke: #000000; stroke-linecap: square"/>
   </g>
   <g id="line2d_26">
    <path d="M 432.84 366.633373 
L 455.16 366.633373 
" clip-path="url(#p92b55cdac3)" style="fill: none; stroke: #000000; stroke-linecap: square"/>
   </g>
   <g id="line2d_27">
    <path d="M 432.84 220.887378 
L 455.16 220.887378 
" clip-path="url(#p92b55cdac3)" style="fill: none; stroke: #000000; stroke-linecap: square"/>
   </g>
   <g id="line2d_28"/>
   <g id="line2d_29">
    <path d="M 135.24 276.535849 
L 157.56 276.535849 
" clip-path="url(#p92b55cdac3)" style="fill: none; stroke: #ff7f0e; stroke-linecap: square"/>
   </g>
   <g id="line2d_30">
    <path d="M 284.04 297.735266 
L 306.36 297.735266 
" clip-path="url(#p92b55cdac3)" style="fill: none; stroke: #ff7f0e; stroke-linecap: square"/>
   </g>
   <g id="line2d_31">
    <path d="M 432.84 305.685048 
L 455.16 305.685048 
" clip-path="url(#p92b55cdac3)" style="fill: none; stroke: #ff7f0e; stroke-linecap: square"/>
   </g>
   <g id="patch_3">
    <path d="M 72 441 
L 72 60.48 
" style="fill: none; stroke: #000000; stroke-width: 0.8; stroke-linejoin: miter; stroke-linecap: square"/>
   </g>
   <g id="patch_4">
    <path d="M 518.4 441 
L 518.4 60.48 
" style="fill: none; stroke: #000000; stroke-width: 0.8; stroke-linejoin: miter; stroke-linecap: square"/>
   </g>
   <g id="patch_5">
    <path d="M 72 441 
L 518.4 441 
" style="fill: none; stroke: #000000; stroke-width: 0.8; stroke-linejoin: miter; stroke-linecap: square"/>
   </g>
   <g id="patch_6">
    <path d="M 72 60.48 
L 518.4 60.48 
" style="fill: none; stroke: #000000; stroke-width: 0.8; stroke-linejoin: miter; stroke-linecap: square"/>
   </g>
   <g id="text_11">
    <!-- CBT1 -->
    <g transform="translate(268.885938 54.48)scale(0.2 -0.2)">
     <defs>
      <path id="DejaVuSans-43" d="M 4122 4306 
L 4122 3641 
Q 3803 3938 3442 4084 
Q 3081 4231 2675 4231 
Q 1875 4231 1450 3742 
Q 1025 3253 1025 2328 
Q 1025 1406 1450 917 
Q 1875 428 2675 428 
Q 3081 428 3442 575 
Q 3803 722 4122 1019 
L 4122 359 
Q 3791 134 3420 21 
Q 3050 -91 2638 -91 
Q 1578 -91 968 557 
Q 359 1206 359 2328 
Q 359 3453 968 4101 
Q 1578 4750 2638 4750 
Q 3056 4750 3426 4639 
Q 3797 4528 4122 4306 
z
" transform="scale(0.015625)"/>
      <path id="DejaVuSans-42" d="M 1259 2228 
L 1259 519 
L 2272 519 
Q 2781 519 3026 730 
Q 3272 941 3272 1375 
Q 3272 1813 3026 2020 
Q 2781 2228 2272 2228 
L 1259 2228 
z
M 1259 4147 
L 1259 2741 
L 2194 2741 
Q 2656 2741 2882 2914 
Q 3109 3088 3109 3444 
Q 3109 3797 2882 3972 
Q 2656 4147 2194 4147 
L 1259 4147 
z
M 628 4666 
L 2241 4666 
Q 2963 4666 3353 4366 
Q 3744 4066 3744 3513 
Q 3744 3084 3544 2831 
Q 3344 2578 2956 2516 
Q 3422 2416 3680 2098 
Q 3938 1781 3938 1306 
Q 3938 681 3513 340 
Q 3088 0 2303 0 
L 628 0 
L 628 4666 
z
" transform="scale(0.015625)"/>
      <path id="DejaVuSans-54" d="M -19 4666 
L 3928 4666 
L 3928 4134 
L 2272 4134 
L 2272 0 
L 1638 0 
L 1638 4134 
L -19 4134 
L -19 4666 
z
" transform="scale(0.015625)"/>
     </defs>
     <use xlink:href="#DejaVuSans-43"/>
     <use xlink:href="#DejaVuSans-42" x="69.824219"/>
     <use xlink:href="#DejaVuSans-54" x="138.427734"/>
     <use xlink:href="#DejaVuSans-31" x="199.511719"/>
    </g>
   </g>
  </g>
 </g>
 <defs>
  <clipPath id="p92b55cdac3">
   <rect x="72" y="60.48" width="446.4" height="380.52"/>
  </clipPath>
 </defs>
</svg>
